<?xml version="1.0" encoding="utf-8"?>
<!-- Generator: Adobe Illustrator 16.0.0, SVG Export Plug-In . SVG Version: 6.00 Build 0)  -->
<!DOCTYPE svg PUBLIC "-//W3C//DTD SVG 1.1//EN" "http://www.w3.org/Graphics/SVG/1.1/DTD/svg11.dtd">
<svg version="1.1" id="图层_1" xmlns="http://www.w3.org/2000/svg" xmlns:xlink="http://www.w3.org/1999/xlink" x="0px" y="0px"
	 width="149.333px" height="194.666px" viewBox="0 0 149.333 194.666" enable-background="new 0 0 149.333 194.666"
	 xml:space="preserve">
<path fill="#19273F" d="M143.74,116.515c0,14.325-11.613,25.938-25.935,25.938H32.041c-14.326,0-25.939-11.613-25.939-25.939V30.75
	c0-14.326,11.613-25.935,25.939-25.935h85.765c14.322,0,25.935,11.609,25.935,25.935V116.515z"/>
<g>
	<g>
		<polygon fill="none" points="111.438,39.18 112.468,36.792 111.406,39.18 		"/>
		<path fill="#FFFFFF" d="M118.06,31.005c-2.848,0-3.893,1.885-4.209,2.584l-1.207,2.8c-0.003,0.004,0,0.008,0,0.013l-0.175,0.391
			l-1.03,2.388h-0.032l-2.594,5.835c-0.055,0.124-0.175,0.196-0.302,0.196c-0.045,0-0.09-0.01-0.132-0.029
			c-0.167-0.074-0.241-0.268-0.167-0.434l2.475-5.569H84.084c-2.848,0-3.891,1.885-4.209,2.584l-3.312,7.595h28.999
			c3.992,0,5.271-2.573,5.581-3.269l1.741-3.86h5.477c3.991,0,5.27-2.573,5.58-3.269l3.532-7.957H118.06z"/>
		<polygon fill="#19273F" points="112.644,36.401 112.644,36.389 112.468,36.792 		"/>
	</g>
	<path fill="#FFD000" d="M93.344,79.835l-0.051-0.112l-0.01,0.005c-1.829-3.304-5.347-5.544-9.387-5.544
		c-5.92,0-10.709,4.805-10.709,10.724c0,1.363,0.265,2.663,0.728,3.862l-0.006,0.003l0.036,0.08
		c0.147,0.373,0.311,0.739,0.498,1.091l10.713,23.47c0,0,1.421,2.986,5.056,2.986c3.635,0,19.806,0,19.806,0L93.873,80.998
		C93.717,80.599,93.545,80.208,93.344,79.835z"/>
	<path fill="#FFD000" d="M83.302,59.63l-4.497,10.177c0,0,23.074-0.013,26.996-0.013c5.016,0,6.136-3.638,6.136-3.638l2.872-6.538
		L83.302,59.63z"/>
	<path fill="#FFD000" d="M90.91,31.005h-22.26h-2.736h-3.338c0,0,1.146,5.07-2.089,12.18c-0.228,0.501-0.376,0.858-0.468,1.114
		l-6.794,15.319c-8.662,0.001-17.378,0.001-19.476,0.001c-4.473,0-5.762,3.569-5.762,3.569l-2.865,6.605H48.71l-18.035,40.664
		c-1.906,3.409-4.733,5.943-4.733,5.943h2.097h3.227h3.704c2.567,0,10.454,0,14.151,0c0.306,0,0.593,0,0.836,0
		c3.187,0,4.468-2.936,4.468-2.936l26.432-59.743L90.91,31.005z"/>
</g>
<g>
	<path fill="#19273F" d="M46.354,169.316v-2.004h10.23v-5.379h3.164v5.379h10.23v2.004h-10.23
		c0.14,6.399,3.655,11.356,10.547,14.871v2.004c-6.048-2.531-10.056-5.906-12.023-10.125c-2.109,4.29-6.188,7.663-12.234,10.125
		v-2.004c6.961-3.515,10.476-8.472,10.547-14.871H46.354z"/>
	<path fill="#19273F" d="M81.897,173.429v-2.004h8.859v-9.703h2.953v3.691h10.23v1.898h-10.23v4.113h12.445v2.004H81.897z
		 M90.756,186.296v-12.023h2.953v12.023H90.756z M104.362,182.71c-3.095-2.109-6.293-3.621-9.598-4.535v-2.109
		c3.866,0.774,7.066,1.969,9.598,3.586V182.71z"/>
</g>
</svg>
