<?xml version="1.0" encoding="utf-8"?>
<!-- Generator: Adobe Illustrator 16.0.0, SVG Export Plug-In . SVG Version: 6.00 Build 0)  -->
<!DOCTYPE svg PUBLIC "-//W3C//DTD SVG 1.1//EN" "http://www.w3.org/Graphics/SVG/1.1/DTD/svg11.dtd">
<svg version="1.1" id="图层_1" xmlns="http://www.w3.org/2000/svg" xmlns:xlink="http://www.w3.org/1999/xlink" x="0px" y="0px"
	 width="465.15px" height="229.265px" viewBox="0 0 465.15 229.265" enable-background="new 0 0 465.15 229.265"
	 xml:space="preserve">
<g>
	<polygon fill-rule="evenodd" clip-rule="evenodd" fill="#19273F" points="266.221,40.403 264.593,38.353 262.624,36.497 
		262.28,40.941 261.695,41.884 261.109,43.007 261.012,43.3 260.898,43.528 260.637,44.423 260.588,45.009 257.528,50.461 
		246.981,52.154 237.102,51.145 230.509,47.336 229.468,46.588 229.288,46.377 229.288,38.89 229.321,38.89 229.728,39.02 
		231.111,39.296 232.023,39.313 232.934,39.215 234.692,38.613 235.099,38.37 235.196,38.287 235.557,38.125 236.435,37.522 
		236.726,37.619 237.72,37.717 238.061,37.652 239.232,37.278 240.487,36.497 242.913,34.461 250.726,28.342 250.726,28.229 
		250.741,28.211 250.774,28.098 250.823,27.854 250.823,27.61 250.806,27.528 250.806,27.366 250.741,27.138 250.741,27.072 
		250.643,26.78 250.382,26.21 250.382,26.194 249.7,25.153 249.439,24.811 247.99,23.232 244.948,21.197 241.545,19.487 
		240.99,19.781 240.958,19.813 239.607,20.513 238.81,20.855 238.859,21.05 238.859,21.083 239.2,22.368 239.396,23.557 
		239.396,24.013 239.365,24.061 239.365,24.42 239.283,24.712 239.152,24.94 239.348,25.071 239.656,25.184 240.047,25.25 
		240.52,25.282 240.583,25.282 240.667,25.331 240.699,25.364 240.748,25.445 240.812,25.656 240.845,25.966 231.323,35.146 
		229.288,35.146 229.109,35.032 228.849,34.772 228.685,34.43 228.621,34.006 228.621,33.778 228.784,33.469 228.996,32.965 
		229.532,31.305 230.997,25.282 226.228,21.864 223.852,20.855 223.511,20.529 222.811,20.09 222.126,19.927 221.785,19.943 
		221.427,20.024 221.117,20.171 220.89,20.449 220.612,20.677 220.222,20.789 219.767,20.855 219.572,20.855 219.181,20.919 
		218.986,21.018 218.758,21.099 218.286,21.375 218.058,21.539 218.09,21.652 218.236,21.962 219.066,23.052 221.703,25.885 
		222.111,26.502 222.551,27.382 222.746,28 222.793,29.188 222.485,30.377 222.485,30.767 222.599,31.402 222.746,31.647 
		222.875,31.825 223.038,31.972 223.25,32.053 223.511,32.086 223.511,32.428 223.314,32.493 223.234,32.542 223.168,32.688 
		223.038,32.818 222.811,33.452 222.485,38.89 222.387,38.971 222.371,39.052 222.387,39.313 222.436,39.427 222.534,39.574 
		222.811,39.899 221.801,42.975 222.811,46.718 222.811,51.145 223.007,51.471 223.706,52.154 224.389,52.66 224.584,52.855 
		224.845,53.246 224.91,53.458 224.926,53.702 224.876,54.189 232.137,56.077 237.426,57.005 244.523,57.331 245.614,57.266 
		245.955,56.583 253.443,57.266 253.801,56.583 258.879,56.013 263.308,55.037 265.244,54.384 267.879,53.213 268.546,52.807 
		268.662,52.774 268.743,52.693 270.126,51.813 269.102,48.411 268.646,45.807 267.848,43.366 266.221,40.403 	"/>
	<path fill-rule="evenodd" clip-rule="evenodd" fill="#19273F" d="M229.924,56.827l-1.303,0.098l-5.81,0.341l-2.703,0.668
		l-3.077,0.358l-0.112,0.129l-0.099,0.147l-0.079,0.065l-0.165,0.228l-0.308,0.227l-0.099,0.032l-0.244,0.179l-0.113,0.017
		l-0.311,0.114l-0.357,0.082l-0.082,0.032l-0.521,0.066h-0.276l-0.017,0.017l-0.847,0.017l-0.977,0.113l-0.766,0.277l-0.307,0.178
		l-0.244,0.213l-0.195,0.243l-6.137,1.367l-1.01-3.743l1.237-3.907l0.033-0.781l-0.195-0.748l-0.179-0.374l-0.212-0.327l0.684-0.342
		l-0.048-0.195l-0.049-0.147l-0.049-0.065l-0.017-0.033l-0.195-0.228l0.375-1.154l0.064-0.375l0.083-0.749v-0.358l-0.083-0.733
		l-0.178-0.715l-0.147-0.342l-0.781-1.367l-4.085-4.41v-1.042l2.052-1.693l1.691-1.709l0.359-0.537l2.36-2.783l0.259-0.569
		l0.099-0.521l4.752-1.709l-0.082-0.945l-0.178-0.765l-0.163-0.326l-0.164-0.275l-0.21-0.228l-0.212-0.164l-2.767-3.06l-2.897-2.361
		l-2.54-1.513l-3.173-1.254l-2.181-0.488l-2.8-0.179l-0.147,0.098l-0.065,0.049l-0.032,0.276l0.179,0.522l0.195,0.325l0.569,0.765
		l0.261,0.147l0.488,0.39l0.391,0.456l0.26,0.504l0.114,0.293l0.114,0.57l0.017,0.634l-1.319,6.202l-4.069,5.778l-2.734,3.061
		l-2.718,2.377l0.049,0.456l-0.049,0.195l-0.098,0.194l-0.179,0.147h-0.049v0.032l-0.049,0.033l-0.097,0.081l-0.553,0.228
		l-0.325,0.083l-0.538,0.245l-0.326,0.34l-0.097,0.213l-0.049,0.211L183.339,44l0.065,0.179v0.065l0.017,0.033l0.081,0.292
		l0.017,0.195l-0.065,0.342l-0.114,0.277v0.047l-0.228,0.278l-0.277,0.245l-0.39,0.211l-0.456,0.211l-0.504,0.147l-0.716,0.422
		l-0.423,0.504l-0.099,0.311l-0.032,0.309l0.082,0.341l0.357,0.131l0.472,0.114l1.563,0.145l0.407,0.115l0.943,0.521l4.77-3.614
		l2.213-1.367l0.716-0.326l0.196-0.114l0.96-0.309l0.325-0.066l0.146-0.326l0.391-0.537l0.423-0.326l0.229-0.097l0.244-0.049
		l0.277-0.017v0.147l0.032,0.18l0.114,0.342l0.212,0.34l0.309,0.342l0.147,0.197l0.113,0.308l0.05,0.39l0.032,0.473l0.504,1.971
		l0.179,2.18l-0.179,2.409l-0.504,2.62l0.342,0.195l0.684,0.7l0.341,0.472l-0.423,0.098l-0.357,0.18l-0.326,0.211l-0.521,0.585
		l-0.276,0.57l-0.147,0.733l1.042,2.392l0.229,1.709l0.097,0.343l4.753,4.412l0.065-0.164l0.065-0.064l0.261-0.083l0.634-0.032
		l0.098,0.195l0.049,0.081l0.097,0.066l0.179,0.08h0.245l0.276-0.08l0.326-0.147l0.358-0.228l0.195-0.163l0.228-0.129l0.553,3.32
		l0.13,0.586l0.049,0.585v0.341l0.017,0.116l-0.017,0.081v0.228l-0.032,0.097l-0.017,0.081l0.033,0.342l0.048,0.13l0.147,0.211
		l0.179,0.245l0.52,0.39l0.782,0.391l-0.343,0.179l-0.276,0.228l-0.227,0.278l-0.18,0.341l-0.179,0.488l-0.505,0.864l0.684,1.025
		l-0.684,5.777v12.256l-4.428,2.035l-7.829,1.008l-0.179,0.082l-0.115,0.113l-0.097,0.146l-0.082,0.342l0.049,0.424l0.098,0.26
		l4.752,0.684l9.863,0.342l-0.683,1.482l-0.7,1.057l-0.114,0.115l-0.032,0.049l-0.114,0.195l-1.904,1.838l-0.065,0.098l-7.259,6.057
		l-0.293,0.455l-0.505,0.391l-0.342,0.146l-0.195,0.064l-0.163,0.066l-0.911,0.242l-0.407,0.148l-0.619,0.422l-0.423,0.506
		l-0.147,0.309l-0.065,0.291l-0.032,0.359l0.146,0.066l0.099,0.098l0.048,0.113l0.032,0.146l-0.081,0.262l-0.244,0.324h-0.098
		l-0.065,0.08v0.18l0.065,0.26l0.098,0.182l1.676-0.311l0.18-0.064h0.065l0.277-0.033l1.807-0.455l1.366-0.57h0.049l1.058-0.604
		l0.147,0.131l0.195,0.098l0.407,0.098l0.44-0.098l0.504-0.229l0.179-0.146l0.244-0.031h0.113l0.147,0.031l0.325,0.146l3.076-1.041
		l0.407-0.244l0.782-0.293l0.782-0.082l0.373,0.051l0.522,0.145l0.195,0.1l3.564-2.898l0.261-0.275l0.634-0.555l0.229-0.244
		l0.049-0.082l0.016-0.031l0.503-0.098l0.505-0.26l0.506-0.439l0.537-0.57l5.096-3.063l-0.229-0.355l-0.016-0.049l-1.434-1.645
		l-0.292-0.666l-0.488-0.604l-0.7-0.602l-3.987-2.197l4.101-1.367l4.412-0.668l0.341-0.26l0.895-0.391l1.106-0.277l6.511-0.115
		l0.098,0.213l0.064,0.098l0.099,0.115l0.211,0.129l0.277,0.129l0.308,0.066h0.831l0.505-0.066l0.699,1.662l0.456,1.301l0.033,0.115
		l0.116,0.389l0.063,0.424v0.146l0.032,0.164l-0.049,0.227l-0.78-0.096l-0.343-0.098l-0.049-0.018h-0.047l-0.489-0.131l-0.129-0.178
		l-0.131-0.1l-0.211-0.063l-0.211-0.018l-0.602,0.08l-0.36,0.1l-0.39,0.178l0.195,0.064l0.147,0.115l0.064,0.146v0.164l-0.081,0.178
		l-0.146,0.211l-0.521,0.473l8.514,8.514h0.227l0.424,0.113l0.341,0.275l0.13,0.164l0.715,1.547l0.343,0.488l0.196,0.211
		l0.341,0.277h-0.341l0.227,0.471l0.163,0.211l0.422,0.424l0.261,0.213l1.481,0.846l0.424,0.342l0.307,0.359l0.115,0.178
		l0.163-0.244l0.422-0.342l0.261-0.098l0.245-0.064l0.293-0.018l0.308,0.018l0.343,0.082l0.619,0.404h0.017l0.26,0.131h0.032
		l0.26,0.131l0.228,0.066l0.228,0.014l0.049-0.014h0.163l0.196-0.066l0.326-0.342h-0.326l-0.164-0.195l-0.096-0.164l-0.065-0.211
		l-0.017-0.193l0.017-0.23l0.162-0.455l0.164-0.244l-0.164-0.113l-0.276-0.244l-0.18-0.34l-0.064-0.426l-0.015-0.504l-0.066-0.213
		l-0.195-0.375l-0.146-0.178l-0.18-0.129l-0.212-0.113l-0.211-0.082l0.066-0.195l0.064-0.18l0.081-0.342v-0.375l-0.016-0.195
		l-0.016-0.051v-0.127l-0.308-0.781l-0.116-0.182l-0.016-0.029l-0.407-0.604l-1.368-2.719l-0.439-0.652l-0.292-0.307l-0.309-0.262
		l-1.206-0.666l-2.441-0.945l-0.667-0.439l-0.244-0.244l-0.179-0.227l-0.065-0.326l0.049-0.293l0.116-0.262l0.339-0.26l0.556-0.146
		l1.041-0.082l0.016-0.537l0.163-1.008l0.163-0.488l0.325-3.402l-0.146-0.668l-0.131-1.154l0.065-0.945l0.146-0.391l0.165-0.326
		l0.259-0.26l-0.357-2.393l0.098-0.39l-0.015-0.472l-0.066-0.261l-0.342-0.912l0.259-0.228l0.049-0.113l0.034-0.017l0.066-0.162
		l0.015-0.375l-0.098-0.456l-0.097-0.195l-0.065-0.406v-0.423l0.065-0.456l0.097-0.228l-0.049-0.408l-0.113-0.472l-0.504-1.171
		l0.016-0.375l0.163-0.846l0.163-0.489l0.325-3.042l-0.162-0.115l-0.163-0.146l-0.146-0.163l-0.375-0.699l-0.163-0.586l0.048-0.341
		l0.049-0.667l-0.081-0.587l-0.358-0.798l1.351-0.341l-0.325-0.667l0.325-0.439l0.357-0.586l-0.292-0.684l-0.132-0.667l-0.03-0.358
		l0.08-0.635l0.195-0.618l0.18-0.31l0.994-1.236l0.717-0.586l-0.147-0.57l-0.392-1.075l-0.667-1.009l-0.862-0.976l-1.107-0.944
		l-2.101-1.319l-3.581-1.61l-1.007-0.586l-0.586-0.211l-1.009-0.211L229.924,56.827L229.924,56.827z M228.149,63.011l0.7-0.098
		l0.585,0.033l0.489,0.195l0.195,0.131l0.146,0.163l0.131,0.212l0.096,0.211l0.147,0.553l0.357,4.769l0.114,2.019l0.276,1.107
		l0.375,0.895l0.261,0.391l0.195,0.537l0.032,0.634l-0.195,0.733l-0.39,0.829l-0.228,0.294l-0.212,0.456l-0.016,0.146l0.016,0.277
		l0.081,0.229l0.147,0.228l0.228,0.211l0.342,0.195l0.326,4.086l0.228,1.269v0.408l0.017,0.147v0.553l-0.083,0.487l-0.033,0.097
		l-0.079,0.342l-0.18,0.408l-0.195,0.373l0.326,2.035l0.083,0.489l-0.018,0.439l-0.047,0.195l-0.05,0.033h-0.017v0.064l-0.033,0.113
		l-0.243,0.359l0.243,0.164l0.1,0.063l0.047,0.131l0.018,0.064v0.084l-0.083,0.193l-0.489-0.064l-0.389-0.115l-0.165-0.111
		l-0.228-0.244l-0.082-0.164h-7.145l-0.31-0.049l-1.041-0.016l-0.212,0.031l-0.766,0.26l-0.308,0.213l-0.245,0.277l-0.195,0.324
		l-0.196-0.098l-0.57-0.146l-0.423-0.049l-1.189,0.113l-0.813,0.262l-0.555,0.244l-0.943,0.195l-0.765-0.115l-0.325-0.178
		l-0.147-0.113l-0.114-0.115l-0.259-0.309l-0.164-0.375l-0.342-1.367l0.049-0.358l0.113-0.342l0.211-0.342l0.132-0.179l0.178-0.146
		l-0.683-1.026l-0.684,0.359l0.146-0.179l0.36-0.147l0.178-0.033l-0.342-0.862l-0.196-0.31l-0.146-0.18l16-2.717l0.667-1.025
		l-0.146-0.277l-0.18-0.228l-0.439-0.406l-0.553-0.358l-0.308-0.163l-0.718-0.244l-0.846-0.195l-2.587-0.18l-9.864,2.051v-5.094
		l9.538-1.368l4.769-2.735l-0.375-0.488l-0.829-0.765l-0.684-0.407l-0.505-0.195l-0.796-0.147l-3.581-0.033l-0.586,0.082l-0.7,0.163
		l-4.899,1.79l-0.585-0.081l-0.261-0.114l-0.163-0.146l0.146-0.326l0.343-0.52l0.195-0.164l-0.522-0.976l-1.285-1.84l-3.304-3.646
		l0.195-0.049l0.585-0.048l0.667,0.081l0.261,0.097l0.131,0.05l0.227,0.178l0.325,0.375l5.438-1.367l0.309,0.049l0.342,0.015
		l0.684-0.064l0.7-0.278l0.684-0.406h6.135l0.439-0.162L228.149,63.011L228.149,63.011z"/>
</g>
<g>
	<polygon fill-rule="evenodd" clip-rule="evenodd" fill="#19273F" points="272.794,94.946 272.974,95.077 273.219,95.176 
		273.841,95.274 273.808,95.013 273.661,94.325 273.301,93.736 273.138,93.573 272.794,94.946 	"/>
	<polygon fill-rule="evenodd" clip-rule="evenodd" fill="#19273F" points="306.358,36.961 306.031,37.011 305.737,37.011 
		305.655,37.027 302.089,37.125 301.942,37.141 300.503,37.158 296.741,37.845 292.979,38.859 296.397,45.369 296.724,45.402 
		297.068,45.517 297.427,45.729 297.935,46.17 298.033,46.236 298.18,46.286 298.785,46.383 300.503,47.757 302.548,48.788 
		315.551,47.413 319.313,46.743 319.493,46.563 319.804,46.465 320.67,46.383 321.407,45.827 321.554,45.68 321.702,45.532 
		321.947,45.271 322.028,45.091 322.126,44.943 322.257,44.633 322.372,43.995 322.568,43.848 322.699,43.701 322.748,43.701 
		323.026,43.39 323.075,43.292 323.124,43.226 323.206,43.063 323.304,42.703 323.304,42.491 323.239,42.065 323.189,41.869 
		322.993,41.411 322.863,41.165 320.67,37.845 316.909,36.145 312.476,35.44 310.088,36.471 307.339,36.815 307.209,36.815 
		307.209,36.831 307.078,36.88 306.653,36.946 306.375,36.946 306.358,36.961 	"/>
	<polygon fill-rule="evenodd" clip-rule="evenodd" fill="#19273F" points="323.778,56.655 322.552,56.115 321.227,55.789 
		318.953,55.609 316.222,58.013 316.107,57.948 315.796,57.866 314.815,57.751 310.758,57.686 309.384,58.013 307.683,58.7 
		307.503,58.7 306.244,58.88 305.623,59.044 305.475,59.027 305.328,59.027 305.181,59.011 305.05,59.011 304.428,58.945 
		304.232,58.912 304.199,58.896 304.052,58.896 303.873,58.863 303.823,58.831 303.692,58.831 302.907,58.7 301.615,59.207 
		300.503,59.37 300.29,59.37 299.21,59.502 298.098,59.73 296.054,59.044 293.649,59.044 291.605,59.37 289.887,60.401 
		289.217,60.434 288.579,60.548 287.957,60.761 286.845,61.464 285.88,62.478 285.455,63.148 287.172,64.866 288.022,65.586 
		288.448,66.093 288.758,66.633 288.873,66.911 290.313,67.909 290.59,68.04 290.64,68.089 290.917,68.22 290.967,68.252 
		291.605,68.53 292.177,68.678 292.717,68.759 293.06,68.727 293.191,68.727 293.649,68.628 294.058,68.759 294.14,68.776 
		295.105,69.119 295.841,69.282 295.939,69.282 296.054,69.299 299.145,69.299 299.358,68.972 299.505,68.809 300.192,68.449 
		300.83,68.269 301.092,70.052 301.157,71.197 301.189,71.344 297.771,78.868 294.352,84.675 294.238,84.773 294.156,84.919 
		293.813,85.754 293.649,86.392 292.57,88.093 291.441,89.468 290.182,90.498 288.873,91.185 287.499,93.932 287.172,94.178 
		286.632,94.865 286.305,95.716 286.142,96.746 286.125,97.335 286.485,101.783 287.172,102.128 287.205,102.455 287.319,102.798 
		287.532,103.158 287.843,103.501 287.745,104.173 287.499,104.875 287.385,104.974 287.319,105.006 287.286,105.056 
		287.057,105.219 286.894,105.235 286.763,105.268 286.485,105.268 286.109,105.202 285.7,105.039 284.784,104.516 284.587,104.499 
		284.555,104.482 284.408,104.482 284.032,104.4 283.213,104.073 282.052,103.37 280.319,101.947 279.844,101.686 279.37,101.506 
		278.912,101.408 278.47,101.44 278.028,101.556 277.603,101.783 275.182,100.41 275.019,100.263 274.643,99.854 274.544,99.69 
		274.496,99.56 274.414,99.298 274.397,98.971 274.528,98.48 274.855,98.021 274.741,98.005 274.659,97.94 274.397,97.596 
		274.168,96.991 274.152,96.877 274.103,96.795 273.988,96.647 273.76,96.468 273.056,96.043 272.467,95.503 272.271,95.274 
		272.124,95.013 272.058,94.75 272.042,94.488 272.124,94.26 272.238,94.031 272.271,93.884 272.287,93.736 272.271,93.54 
		272.124,92.886 272.025,92.771 271.944,92.51 271.944,92.166 272.025,91.757 272.124,91.528 272.124,91.594 272.157,91.676 
		272.189,91.708 272.271,91.757 272.483,91.823 272.794,91.855 272.794,91.185 272.761,91.005 272.696,90.873 272.582,90.742 
		272.238,90.563 271.731,90.498 271.437,90.498 270.406,88.436 270.406,86.048 270.684,85.737 270.979,85.377 271.208,84.919 
		271.256,84.773 271.42,84.413 271.551,83.808 271.551,83.71 271.616,83.48 271.616,83.383 271.666,83.153 271.666,82.859 
		271.698,82.794 271.878,79.162 272.157,77.969 272.336,77.494 272.549,77.118 272.794,76.823 272.941,76.268 273.351,75.236 
		274.119,73.928 274.414,73.552 275.051,72.865 275.771,72.293 276.998,71.638 277.439,71.458 277.931,71.344 277.603,67.926 
		270.406,64.506 269.458,64.866 269.228,64.997 268.983,65.095 268.803,65.21 268.296,65.636 268.231,65.733 268.214,65.848 
		268.214,66.044 268.362,66.224 262.081,69.708 262.015,69.708 261.982,69.725 261.868,69.725 261.835,69.708 261.77,69.708 
		261.623,69.643 261.475,69.544 261.181,69.299 254.687,71.687 254.638,71.852 254.654,72.03 254.704,72.244 254.9,72.718 
		255.783,73.846 256.438,74.517 258.776,76.48 259.12,76.136 263.913,76.823 265.286,77.854 264.943,86.048 265.499,88.895 
		266.661,91.953 268.002,94.26 268.018,94.996 268.002,95.144 268.002,95.323 267.969,95.649 267.806,96.223 267.577,96.729 
		267.527,96.763 267.413,96.942 267.217,97.154 267.036,97.269 267.004,97.318 266.775,97.515 266.235,97.793 265.614,98.021 
		261.181,98.709 260.559,99.265 259.463,99.984 255.227,101.997 254.425,102.455 253.428,103.289 253.166,103.583 252.741,104.221 
		252.446,104.908 252.25,105.66 252.217,106.478 252.283,106.919 253.918,110.403 255.227,112.481 255.849,113.25 256.176,113.577 
		256.797,114.085 257.402,114.443 257.713,114.542 258.073,114.575 258.417,114.493 258.76,114.346 259.104,114.085 
		259.463,113.724 260.15,112.727 262.195,111.353 264.583,111.009 264.845,110.911 265.385,110.879 265.974,110.977 266.3,111.059 
		266.988,111.353 268.64,111.206 270.079,111.304 270.488,111.369 271.273,111.631 271.927,111.99 272.483,112.448 272.729,112.742 
		273.138,113.397 273.383,113.331 273.661,113.299 273.939,113.331 274.528,113.496 274.855,113.659 276.147,114.526 
		276.736,114.853 277.194,115.049 277.243,115.049 277.292,115.065 277.407,115.099 277.603,115.115 277.849,114.968 
		278.126,114.886 278.388,114.869 278.994,115.049 279.648,115.458 279.991,115.802 286.125,119.236 289.887,120.577 
		295.71,121.952 295.792,122.1 295.939,122.263 296.299,122.557 296.512,122.672 297.427,122.999 297.575,122.999 298.18,123.146 
		299.145,123.669 316.222,127.775 320.327,129.133 323.746,129.476 327.508,130.18 327.917,130.311 327.999,130.326 328.964,130.67 
		329.7,130.834 329.782,130.834 329.912,130.851 330.419,130.866 331.63,131.03 332.3,131.193 338.794,130.851 341.198,128.806 
		342.573,126.417 350.08,123.326 359.992,121.952 360.287,121.756 360.418,121.641 360.435,121.608 360.549,121.543 
		360.924,121.085 361.022,120.807 361.04,120.66 361.072,120.529 361.022,119.907 360.336,117.519 359.911,116.897 359.666,116.636 
		359.224,116.374 359.06,116.309 358.357,116.161 355.2,116.146 348.036,115.802 341.198,115.115 333.674,114.101 331.27,114.443 
		331.073,114.428 330.403,114.265 329.226,113.74 324.089,113.74 319.657,113.07 315.191,112.727 314.913,112.105 314.668,111.859 
		314.259,111.581 313.703,111.434 312.803,111.353 309.728,111.696 309.548,111.369 309.335,111.14 309.09,110.992 308.861,110.911 
		308.6,110.895 308.436,110.911 307.994,111.123 307.683,111.353 307.471,111.106 307.242,110.895 306.947,110.714 306.277,110.453 
		305.426,110.339 304.003,110.388 303.234,110.24 302.744,109.962 302.629,109.864 302.384,109.603 302.204,109.308 
		301.942,109.308 301.926,109.324 301.647,109.373 301.092,109.39 301.026,109.373 300.454,109.373 299.815,109.308 
		298.523,109.063 298.458,109.046 298.344,109.046 296.969,108.653 296.937,108.653 296.741,108.621 294.352,107.868 
		292.979,107.689 292.063,107.722 291.261,107.934 289.56,105.889 289.642,105.726 289.871,105.514 290.214,105.415 290.64,105.447 
		290.917,105.546 291.146,105.66 291.425,105.742 291.67,105.742 291.932,105.693 292.439,105.415 292.979,104.875 293.175,104.516 
		293.862,103.828 298.785,100.753 299.57,100.164 301.321,99.102 305.475,97.318 306.653,96.991 313.833,92.886 314.34,92.984 
		314.946,92.968 315.878,92.689 316.222,92.559 317.122,92.117 317.416,92.035 317.645,91.938 318.086,91.855 318.283,91.855 
		318.691,92.231 318.953,92.64 319.019,92.853 319.035,93.082 319.019,93.311 318.953,93.573 318.986,93.932 319.133,94.783 
		321.702,102.471 322.372,100.41 322.601,100.328 322.731,100.328 322.863,100.377 323.092,100.475 323.321,100.655 323.517,100.9 
		323.729,101.244 324.089,102.128 324.776,101.783 324.776,101.588 324.842,101.194 324.94,101.015 325.021,100.785 
		325.284,100.312 325.463,100.083 325.529,99.969 325.594,99.854 325.626,99.771 325.66,99.723 325.708,99.56 325.807,98.709 
		326.428,97.842 326.493,97.81 327.05,96.877 327.475,95.879 327.77,94.849 327.835,94.293 327.835,94.063 327.852,93.998 
		327.901,93.736 327.917,93.147 327.901,93 327.901,92.591 327.835,92.133 327.835,92.002 327.508,90.171 326.919,85.361 
		325.545,80.912 323.321,76.807 320.327,73.061 320.131,73.045 320.049,72.996 319.968,72.979 319.559,72.799 319.33,72.636 
		318.61,72.03 318.07,71.899 317.563,71.867 317.072,71.899 316.565,72.03 316.238,72.227 316.091,72.375 315.714,72.93 
		315.551,73.405 315.191,75.45 316.222,79.571 316.909,83.661 315.191,85.705 314.831,86.179 314.619,86.277 314.504,86.311 
		314.422,86.311 314.308,86.261 314.193,86.212 314.079,86.131 313.85,85.901 313.506,85.377 311.936,86.997 311.298,87.472 
		310.758,87.766 310.742,87.439 310.676,87.145 310.579,86.899 310.481,86.719 310.333,86.572 310.153,86.474 309.94,86.425 
		309.728,86.392 309.711,86.441 309.711,86.49 309.695,86.604 309.663,86.703 309.646,86.818 309.581,86.899 309.548,86.932 
		309.515,86.932 309.515,86.997 309.384,87.145 309.27,87.193 309.221,87.193 309.221,87.21 309.172,87.243 309.057,87.292 
		308.943,87.341 308.795,87.356 308.648,87.406 308.371,87.406 308.371,87.422 307.88,87.603 307.323,87.962 307.193,88.11 
		306.997,88.436 304.608,88.436 304.248,88.502 304.052,88.568 303.709,88.83 303.381,89.222 303.234,89.468 302.204,89.14 
		302.089,89.468 302.073,89.581 301.942,89.892 301.942,89.958 301.828,90.089 301.778,90.105 301.729,90.22 301.615,90.317 
		301.549,90.351 301.517,90.415 301.353,90.448 301.222,90.448 301.222,90.464 300.912,90.464 300.617,90.367 300.552,90.351 
		300.159,90.171 299.897,90.187 299.652,90.252 299.423,90.399 298.998,90.824 298.622,91.462 298.441,91.855 298.327,91.839 
		298.294,91.823 298.229,91.823 298.115,91.79 298,91.757 297.706,91.676 297.444,91.528 297.427,91.528 297.559,91.282 
		297.559,91.218 297.607,91.103 297.673,90.923 297.673,90.776 297.722,90.415 297.722,90.121 297.755,90.121 297.771,89.811 
		298.033,89.483 298.785,88.796 298.883,88.387 298.867,87.93 298.72,87.356 298.441,86.752 302.548,82.63 301.86,81.616 
		301.762,81.518 301.746,81.436 301.762,81.338 301.828,81.305 301.926,81.289 302.204,81.272 302.433,81.305 302.613,81.305 
		302.694,81.321 302.793,81.289 302.907,81.272 303.136,81.175 303.333,80.995 303.365,80.929 303.431,80.896 303.545,80.798 
		304.33,79.719 304.952,78.868 304.87,78.442 304.902,78.033 305.001,77.641 305.426,76.855 306.146,76.136 307.536,75.269 
		308.19,74.763 308.583,74.238 308.681,73.961 308.714,73.732 309.237,73.355 309.335,73.242 309.663,72.947 309.81,72.718 
		309.875,72.603 309.94,72.505 310.153,72.015 310.219,71.458 310.202,71.311 310.202,71.164 310.088,70.591 309.728,69.643 
		309.025,68.351 308.812,67.762 308.632,66.96 308.681,66.29 308.812,65.881 308.91,65.684 309.041,65.537 318.283,63.836 
		321.014,64.506 323.746,64.506 323.828,64.343 324.073,64.065 324.417,63.918 324.842,63.836 325.12,63.836 325.218,63.722 
		325.496,63.509 325.708,63.395 325.921,63.231 326.837,62.789 327.05,62.593 327.083,62.544 327.247,62.429 327.295,62.315 
		327.508,62.02 327.573,61.792 327.573,61.611 327.589,61.579 327.573,61.497 327.573,61.333 327.508,61.088 326.559,59.207 
		325.774,58.177 324.842,57.326 323.778,56.655 	"/>
</g>
<g>
	<path fill="#16263E" d="M57.527,149.84v-4.215h10.837c-0.536-1.204-0.938-2.675-1.204-4.415h6.422
		c0.401,1.605,0.869,3.079,1.405,4.415h11.038c0.803-1.336,1.27-2.81,1.405-4.415h6.623c-0.135,1.74-0.602,3.211-1.405,4.415h11.239
		v4.215h-20.47c-0.401,1.605-0.872,3.079-1.405,4.415h17.259v24.886c0.131,4.816-2.208,7.155-7.024,7.024H62.143v-31.91h13.246
		c0.267-0.668,0.533-1.671,0.803-3.01c0.132-0.668,0.267-1.136,0.401-1.405H57.527z M68.364,158.269v5.419h24.685v-5.419H68.364z
		 M68.364,167.501v5.418h24.685v-5.418H68.364z M68.364,182.352h21.474c2.273,0,3.343-1.069,3.211-3.211v-2.208H68.364V182.352z"/>
	<path fill="#16263E" d="M120.566,186.968v-3.612c3.211-1.069,4.748-3.212,4.616-6.423v-16.657h-4.616v-4.214h10.837v19.065
		c0.132,4.55,2.474,6.893,7.024,7.023h28.498v4.015h-28.899c-4.148,0-7.093-1.273-8.83-3.813
		C127.189,185.026,124.31,186.566,120.566,186.968z M126.386,152.248c-0.537-3.211-1.606-6.554-3.211-10.034h5.62
		c1.605,3.079,2.81,6.422,3.612,10.034H126.386z M134.012,156.062v-3.211c2.941-2.811,4.547-6.288,4.816-10.437h5.218
		c-0.135,1.605-0.401,3.079-0.803,4.415h4.214v-5.819h6.221v5.819h10.637v4.015H153.68v7.826h12.443v4.215h-8.63v9.633
		c-0.135,1.74,0.602,2.543,2.208,2.408h0.803c1.605,0,2.339-0.803,2.208-2.408v-1.204h3.813v1.807
		c0.132,4.014-1.605,5.954-5.218,5.819h-3.813c-4.014,0.135-5.955-1.872-5.82-6.021v-10.034h-4.415
		c0.132,8.563-4.214,14.249-13.045,17.059v-3.612c4.816-2.81,7.225-7.291,7.225-13.446h-7.626v-4.215h13.647v-7.826h-6.021
		C139.832,153.12,137.355,154.857,134.012,156.062z"/>
	<path fill="#16263E" d="M190.228,187.168v-16.857c-2.007,1.605-4.416,3.145-7.225,4.615v-4.014
		c5.886-4.816,9.633-10.301,11.239-16.456h-10.035v-4.014h16.256v3.813c-1.204,4.148-2.408,7.093-3.612,8.83
		c1.471,2.007,3.744,4.215,6.823,6.623v3.813c-2.678-1.204-5.017-2.54-7.024-4.014v17.66H190.228z M191.833,149.037
		c-0.401-2.408-1.273-5.018-2.609-7.827h5.619c1.471,2.81,2.474,5.419,3.01,7.827H191.833z M202.47,159.071v-4.214h9.433V141.21
		h6.623v13.647h9.834v4.214h-9.834v22.276h11.439v4.015h-29.702v-4.015h11.64v-22.276H202.47z"/>
	<path fill="#16263E" d="M246.644,162.684v-3.612c6.021-1.069,10.101-3.543,12.242-7.425h7.225
		C263.301,158.47,256.811,162.151,246.644,162.684z M292.602,187.369c-10.436-2.277-18.062-4.751-22.878-7.426
		c-4.685,2.675-12.311,5.148-22.879,7.426v-4.215c7.626-1.872,13.578-4.08,17.861-6.623c-4.148-3.612-7.425-8.294-9.833-14.048
		h7.225c2.139,4.148,4.682,7.561,7.626,10.235c2.941-2.675,5.484-6.087,7.626-10.235h7.225c-2.81,6.155-6.156,10.837-10.035,14.048
		c4.682,2.679,10.702,4.886,18.062,6.623V187.369z M247.045,149.438v-4.415h18.865v-3.813h7.426v3.813h19.065v4.415H247.045z
		 M292.803,162.684c-10.169-0.532-16.657-4.214-19.467-11.037h7.225c2.139,3.882,6.222,6.355,12.242,7.425V162.684z"/>
	<path fill="#16263E" d="M309.683,187.369v-5.219c1.471-2.138,2.408-4.547,2.81-7.225c0.401-2.54,0.602-7.023,0.602-13.446v-16.055
		h18.062v-4.215h7.426v4.215h16.858v4.415h-35.723v11.439C320.119,174.123,316.773,182.818,309.683,187.369z M336.776,175.127
		c-0.536-5.619-1.941-12.107-4.214-19.467h5.418c2.139,6.823,3.744,13.045,4.816,18.664c2.408-5.886,4.146-12.509,5.218-19.868
		h6.221c-1.875,10.304-4.816,19.134-8.831,26.49h10.436v4.015h-36.726v-4.015h21.072c0.803-2.007,1.605-3.944,2.408-5.819H336.776z
		 M325.337,175.127c-0.803-5.751-2.276-12.242-4.415-19.467h5.218c2.273,6.155,4.014,12.644,5.218,19.467H325.337z"/>
	<path fill="#16263E" d="M372.923,187.569v-4.415c2.675-2.408,3.945-6.354,3.813-11.841v-28.097h40.138v37.128
		c0,4.28-2.276,6.422-6.823,6.422h-4.616v-4.415h2.208c1.872,0.132,2.74-0.733,2.608-2.609v-8.228h-10.235v14.65h-6.422v-14.65
		h-10.436C383.29,179.009,379.878,184.358,372.923,187.569z M383.158,147.632v7.627h10.436v-7.627H383.158z M383.158,159.473v7.827
		h10.436v-7.827H383.158z M410.251,147.632h-10.235v7.627h10.235V147.632z M400.016,159.473v7.827h10.235v-7.827H400.016z"/>
</g>
<g>
	<path fill="#19273F" d="M117.133,59.508c-1.46,2.085-3.439,2.71-5.941,1.876c-2.71-1.042-5.316-1.667-7.817-1.876
		c-3.126,0.208-5.733,0.625-7.817,1.25c-2.085,0.625-3.857,1.876-5.315,3.752c0,1.043,0.521,2.294,1.563,3.752
		c0.833,1.459,1.354,2.294,1.563,2.501c1.25,0,2.292-0.521,3.126-1.563c0.833-0.833,2.292-0.729,4.377,0.313
		c3.543,1.668,5.316,3.127,5.316,4.378c0.208,1.25-0.105,2.71-0.938,4.377c-0.625,4.586-0.625,10.006,0,16.259
		c0.417,6.046,0.417,10.839,0,14.383c-0.418,3.544-1.981,5.211-4.69,5.004c-2.71-0.418-4.69-1.877-5.941-4.378
		c-0.209-1.251-0.313-2.085-0.313-2.501c-0.209-0.626-0.313-0.835-0.313-0.626c-2.085-0.209-3.961-0.104-5.628,0.313
		c-1.668,0.417-2.919,0.521-3.752,0.313c-1.25,3.127-2.71,4.168-4.377,3.127c-1.876-1.044-3.335-3.127-4.377-6.254
		c-0.418-5.629-0.313-10.84,0.313-15.634c0.417-4.794,0.729-7.296,0.938-7.504c1.042-2.501,2.501-4.481,4.378-5.941
		c1.876-1.667,2.917-4.065,3.126-7.192c0.208-1.876,0.833-3.127,1.876-3.752c0.833-0.625,1.458-0.833,1.876-0.625
		c-7.088,1.668-11.674,3.232-13.758,4.69c-2.085,1.25-4.377,0.938-6.879-0.938c-2.501-1.667-4.586-3.439-6.253-5.315
		c-1.876-1.667-1.459-2.814,1.25-3.439c14.383-5.21,25.327-7.921,32.832-8.13c7.712-0.208,11.777-0.625,12.195-1.25
		c2.083-0.417,4.272,0.625,6.566,3.127C116.402,54.505,117.34,57.007,117.133,59.508z M87.115,76.393
		c-2.71-1.458-4.17-1.251-4.377,0.625c0,1.668,0.417,3.336,1.25,5.003c0.208-1.458,0.729-2.709,1.563-3.752
		C86.385,77.018,86.906,76.393,87.115,76.393z M94.62,88.275c-0.417-0.208-1.043,0.417-1.876,1.876
		c-0.834,1.459-2.294,2.918-4.377,4.377c-0.834,0.418-0.834-0.104,0-1.563c0.625-1.251,1.25-2.396,1.876-3.439
		c-1.459-0.208-2.501-0.417-3.127-0.625l-1.25-0.625c-0.418,1.042-0.625,2.814-0.625,5.316c-0.209,2.293-0.209,4.689,0,7.191
		c0.625,0,1.771-0.208,3.439-0.625c1.876-0.626,3.647-0.834,5.315-0.626c0-1.042,0.104-2.918,0.313-5.628
		C94.307,91.194,94.411,89.317,94.62,88.275z M94.62,75.768c-0.209-0.625-0.521-0.938-0.938-0.938c-0.625,0-0.938,0.105-0.938,0.313
		c-1.668,1.459-3.023,2.71-4.065,3.752c-1.043,1.25-1.563,2.501-1.563,3.752c1.667,0.209,3.022,0.313,4.065,0.313
		c0.833,0.209,1.771,0.938,2.814,2.189L94.62,75.768z"/>
	<path fill="#19273F" d="M182.553,61.384c-1.043,2.501-2.501,3.232-4.377,2.188c-1.876-0.833-4.17-1.979-6.879-3.439
		c-2.085,0.209-3.752,0.834-5.003,1.876c-1.043,0.834-2.294,2.084-3.752,3.752c0.833,0.625,1.042,1.563,0.625,2.814
		c-0.418,1.251-0.834,2.189-1.251,2.814c0.833,1.25,2.189,1.981,4.065,2.188c2.084,0,4.69,1.981,7.817,5.941
		c1.25,1.668,1.458,3.127,0.625,4.377c-0.834,1.251-1.876,2.71-3.126,4.378c-2.085,3.96-4.483,8.026-7.192,12.195
		c-2.71,4.168-5.108,7.191-7.191,9.067c-2.501,1.667-4.274,1.876-5.316,0.626c-1.25-1.461-2.397-3.127-3.439-5.004
		c-1.876-2.084-3.544-3.959-5.003-5.628c-1.459-1.876-2.71-3.127-3.752-3.753c-0.625,0.418-1.772,1.147-3.439,2.189
		c-1.876,1.043-3.648,1.772-5.316,2.189c-2.501,0.208-4.795-0.73-6.879-2.814c-2.085-2.084-0.834-3.647,3.752-4.69
		c2.292-1.251,4.794-3.022,7.504-5.316c2.501-2.083,3.959-3.23,4.377-3.439c0.208-2.501,0.938-5.21,2.188-8.129
		c1.251-2.709,1.563-2.292,0.938,1.25c0.417-0.208,0.417,0.209,0,1.251c-0.418,1.043-0.625,2.085-0.625,3.126
		c3.959-4.168,6.879-7.608,8.755-10.318l3.127-4.065c-1.043-0.417-2.501-0.208-4.377,0.625c-1.876,0.834-2.294,0.418-1.251-1.25
		c2.084-1.251,4.272-1.98,6.566-2.189c2.292-0.208,4.272,0.105,5.941,0.938c0.833-1.25,1.458-2.188,1.876-2.814l0.625-0.938
		c-10.631,1.668-17.719,3.648-21.262,5.941c-3.752,2.294-6.879,2.397-9.38,0.313c-3.127-2.083-5.733-4.168-7.817-6.253
		c-2.293-2.084-1.563-3.334,2.189-3.752c4.585-1.25,11.256-2.709,20.012-4.377c8.546-1.876,16.676-2.083,24.389-0.625
		c1.25-1.667,3.647-1.458,7.191,0.625C181.823,55.548,183.179,58.257,182.553,61.384z M163.792,81.396
		c-1.251-0.833-2.189-1.876-2.814-3.126c-0.625-1.251-1.147-2.292-1.563-3.127c-2.501,2.294-5.108,5.108-7.817,8.442
		c-2.919,3.127-5.315,5.524-7.191,7.192c0.833,2.085,2.396,4.064,4.69,5.941c2.501,1.668,4.481,1.771,5.941,0.313
		c1.251-1.043,2.814-3.127,4.69-6.254C161.604,87.442,162.958,84.315,163.792,81.396z"/>
</g>
<g>
	<path fill="#19273F" d="M409.13,92.725c0.417,2.085-1.356,3.231-5.315,3.439c-4.17,0.209-8.443,0.104-12.82-0.313
		c-6.672-4.794-12.612-9.693-17.822-14.696c-5.421-5.003-9.486-6.774-12.195-5.315c-3.336,3.752-6.462,7.297-9.38,10.631
		c-2.919,3.126-4.377,4.795-4.377,5.002c-4.586,3.336-7.922,4.064-10.006,2.189c-2.085-2.084-2.085-4.482,0-7.192
		c4.794-6.879,10.109-13.653,15.947-20.324c5.835-6.879,9.067-10.526,9.693-10.944c1.667-2.293,3.022-3.127,4.065-2.501
		c1.042,0.625,2.605,2.085,4.689,4.377c1.877,1.668,2.293,3.127,1.252,4.377c-0.835,1.043-1.669,2.085-2.502,3.127
		c6.045,5.003,11.256,9.276,15.634,12.82c4.378,3.335,6.671,5.108,6.88,5.315c6.879,2.71,11.359,5.003,13.444,6.879
		C408.399,91.474,409.338,92.517,409.13,92.725z"/>
</g>
<g>
	<polygon fill="#19273F" points="462.082,226.179 3.082,226.179 3.082,78.679 31.582,78.679 31.582,88.679 13.082,88.679 
		13.082,216.179 452.082,216.179 452.082,88.679 438.582,88.679 438.582,78.679 462.082,78.679 	"/>
</g>
</svg>
