<?xml version="1.0" encoding="utf-8"?>
<!-- Generator: Adobe Illustrator 16.0.0, SVG Export Plug-In . SVG Version: 6.00 Build 0)  -->
<!DOCTYPE svg PUBLIC "-//W3C//DTD SVG 1.1//EN" "http://www.w3.org/Graphics/SVG/1.1/DTD/svg11.dtd">
<svg version="1.1" id="图层_1" xmlns="http://www.w3.org/2000/svg" xmlns:xlink="http://www.w3.org/1999/xlink" x="0px" y="0px"
	 width="428px" height="316px" viewBox="0 0 428 316" enable-background="new 0 0 428 316" xml:space="preserve">
<circle fill="#64C0F9" stroke="#231815" stroke-width="6" stroke-linejoin="round" stroke-miterlimit="10" cx="206.634" cy="165.829" r="135.494"/>
<path fill="#48ADE0" d="M293.104,121.827c4.511,1.835,6.894,6.291,8.284,10.593c2.807,8.685,5.282,18.568,6.51,27.41
	c1.988,14.309,1.458,25.588-2.145,39.881c-6.535,25.929-21.393,45.298-44.308,58.736c-20.481,12.011-39.39,14.809-62.958,14.93
	c-4.785,0.024-11.003,0.429-14.721-2.726c-3.091-2.622-4.997-8.884-2.089-13.439c3.47-5.435,12.93-3.259,18.248-2.495
	c7.314,1.052,15.873,3.965,21.431-2.549c6.83-8.005-0.534-18.745-2.899-27.535c-3.077-11.435-5.423-24.52,1.434-34.984
	c7.002-10.688,18.905-11.123,30.621-13c9.713-1.557,19.503-6.096,26.124-13.789c6.235-7.247,3.105-18.664,0.375-26.745
	c-3.431-10.151-9.868-20.593-8.974-31.671c0.515-6.378,1.847-5.072,8.16-5.947c4.122-0.571,7.491-1.842,11.652-0.609
	c17.854,5.29,17.949,35.216,20.607,49.538c1.708,9.203,4.112,16.846,4.018,26.264c-0.052,5.184-1.021,9.815-2.263,14.701
	c-0.789,3.106-4.623,14.363-6.629,18.783"/>
<path fill="#48ADE0" d="M214.69,77.646c-13.602-4.849-29.846-9.111-44.588-8.5c-18.06,0.748-30.867,9.242-42.951,22.64
	c-17.828,19.769-29.461,47.163-29.461,73.111c0,11.508,0.533,24.021,7,33.965c5.836,8.975,14.832,8.37,21.939,1.325
	c5.201-5.155,2.436-14.124,3.424-20.704c1.262-8.413,4.088-18.032,9.037-25.138c8.211-11.787,36.59-1.265,28.947-23.689
	c-2.506-7.353-2.979-13.708,3.252-19.037c5.074-4.342,11.816-5.678,18.451-4.361c8.576,1.701,24.324,11.866,32.471,4.873
	c2.873-2.468,3.598-8.881,3.391-12.425c-13.068-5.443,14.082-17.675,17.01-18.646c1.461-6.602-5.271-9.373-10.319-9.413
	c-5.052-0.04-9.325,0.471-13.989,1.5c-9.531,2.103-19.299-1.658-29.113-2"/>
<circle fill="#FED10C" stroke="#231815" stroke-width="4" stroke-miterlimit="10" cx="308.309" cy="74.37" r="9.893"/>
<circle fill="#FED10C" stroke="#231815" stroke-width="4" stroke-miterlimit="10" cx="284.579" cy="275.829" r="9.893"/>
<circle fill="#FED10C" stroke="#231815" stroke-width="4" stroke-miterlimit="10" cx="72.61" cy="184.97" r="9.893"/>
<circle fill="#231815" cx="72.61" cy="184.97" r="4.346"/>
<circle fill="#231815" cx="284.579" cy="275.829" r="4.346"/>
<circle fill="#231815" cx="308.31" cy="74.37" r="4.346"/>
<circle fill="#FED10C" stroke="#231815" stroke-width="4" stroke-miterlimit="10" cx="341.677" cy="150.82" r="9.893"/>
<circle fill="#231815" cx="341.677" cy="150.82" r="4.346"/>
<circle fill="#FED10C" stroke="#231815" stroke-width="4" stroke-miterlimit="10" cx="129.69" cy="275.829" r="9.893"/>
<circle fill="#231815" cx="129.69" cy="275.829" r="4.346"/>
<circle fill="#FED10C" stroke="#231815" stroke-width="4" stroke-miterlimit="10" cx="109.39" cy="70.024" r="9.893"/>
<circle fill="#231815" cx="109.39" cy="70.024" r="4.346"/>
<path fill="#FED10C" stroke="#231815" stroke-width="4" stroke-linejoin="round" stroke-miterlimit="10" d="M399.247,34.973
	c0,7.827-6.346,14.173-14.174,14.173c0,0-54.074,0-64.382,0s-12.22,8.863-12.22,8.863s-1.917-8.863-12.225-8.863
	s-120.827,0-120.827,0c-7.827,0-14.173-6.346-14.173-14.173v-4.32c0-7.827,6.346-14.173,14.173-14.173h209.653
	c7.828,0,14.174,6.346,14.174,14.173V34.973z"/>
<path fill="#FED10C" stroke="#231815" stroke-width="4" stroke-linejoin="round" stroke-miterlimit="10" d="M253.691,145.926
	c0,7.827-6.346,14.173-14.173,14.173c0,0-145.869,0-156.177,0c-10.308,0-12.219,8.863-12.219,8.863s-1.917-8.863-12.225-8.863
	s-29.033,0-29.033,0c-7.828,0-14.173-6.346-14.173-14.173v-4.32c0-7.827,6.346-14.173,14.173-14.173h209.654
	c7.827,0,14.173,6.346,14.173,14.173V145.926z"/>
<path fill="#FED10C" stroke="#231815" stroke-width="4" stroke-linejoin="round" stroke-miterlimit="10" d="M423.127,236.926
	c0,7.827-6.346,14.173-14.173,14.173c0,0-101.845,0-112.152,0s-12.219,8.863-12.219,8.863s-1.918-8.863-12.226-8.863
	s-125.827,0-125.827,0c-7.827,0-14.173-6.346-14.173-14.173v-4.32c0-7.827,6.346-14.173,14.173-14.173h262.424
	c7.827,0,14.173,6.346,14.173,14.173V236.926z"/>
<circle fill="#FED10C" stroke="#231815" stroke-width="4" stroke-linejoin="round" stroke-miterlimit="10" cx="180.44" cy="32.501" r="27.631"/>
<path fill="#FED10C" stroke="#231815" stroke-width="2" stroke-linejoin="round" stroke-miterlimit="10" d="M399.524,126.981
	c0,3.18-2.578,5.758-5.758,5.758c0,0-37.855,0-42.043,0s-4.964,3.601-4.964,3.601s-0.779-3.601-4.966-3.601
	c-4.188,0-17.945,0-17.945,0c-3.18,0-5.758-2.578-5.758-5.758v-1.755c0-3.18,2.578-5.758,5.758-5.758h69.918
	c3.18,0,5.758,2.578,5.758,5.758V126.981z"/>
<path opacity="0.5" fill="#FED10C" stroke="#231815" stroke-width="2" stroke-linejoin="round" stroke-miterlimit="10" d="
	M66.294,299.873c0-2.676,2.169-4.845,4.845-4.845c0,0,49.741,0,53.264,0s4.178-3.03,4.178-3.03s0.655,3.03,4.179,3.03
	s9.272,0,9.272,0c2.676,0,4.845,2.169,4.845,4.845v1.477c0,2.676-2.169,4.846-4.845,4.846H71.139c-2.676,0-4.845-2.17-4.845-4.846
	V299.873z"/>
<circle fill="#FED10C" stroke="#231815" stroke-width="4" stroke-linejoin="round" stroke-miterlimit="10" cx="31.44" cy="141.331" r="27.631"/>
<circle fill="#FED10C" stroke="#231815" stroke-width="4" stroke-linejoin="round" stroke-miterlimit="10" cx="150.31" cy="234.87" r="27.631"/>
<path fill="#449E0E" d="M164.205,41.902c0,0,1.259-5.391,6.851-7.138c0,0,5.109,5.053,9.217,5.053s8.646-3.523,9.174-5.053
	c0.525-1.53,5.783,2.712,6.668,6.423l0.658,9.199v2.158c0,0-6.617,5.723-16.283,5.723c-9.668,0-15.113-4.973-16.284-5.958
	S164.205,41.902,164.205,41.902z"/>
<path fill="none" stroke="#231815" stroke-width="3" stroke-linejoin="round" stroke-miterlimit="10" d="M196.772,54.608v-9.553
	c0-6.262-4.927-11.338-11.006-11.338h-10.988c-6.079,0-11.006,5.077-11.006,11.338v9.046"/>
<path fill="#FED10C" stroke="#231815" stroke-width="3" stroke-linejoin="round" stroke-miterlimit="10" d="M190.627,29.634
	c0,5.626-4.561,10.187-10.188,10.187l0,0c-5.626,0-10.187-4.561-10.187-10.187v-5.762c0-5.626,4.561-10.187,10.187-10.187l0,0
	c5.627,0,10.188,4.561,10.188,10.187V29.634z"/>
<path fill="none" stroke="#231815" stroke-width="3" stroke-linejoin="round" stroke-miterlimit="10" d="M175.479,37.794v-4.25
	c0-1.439,1.27-2.605,2.835-2.605h4.079c1.565,0,2.835,1.167,2.835,2.605v4.25"/>
<circle fill="#231815" cx="176.141" cy="25.688" r="1.323"/>
<circle fill="#231815" cx="184.917" cy="25.688" r="1.324"/>
<ellipse fill="none" stroke="#231815" stroke-miterlimit="10" cx="180.423" cy="32.232" rx="4.15" ry="1.897"/>
<path fill="none" stroke="#231815" stroke-width="2" stroke-miterlimit="10" d="M169.685,30.938h-0.881
	c-1.047,0-1.896-0.849-1.896-1.896v-2.577c0-1.047,0.755-1.896,1.802-1.896h0.75"/>
<path fill="none" stroke="#231815" stroke-width="2" stroke-miterlimit="10" d="M191.354,30.938h0.879
	c1.047,0,1.896-0.849,1.896-1.896v-2.577c0-1.047-0.755-1.896-1.802-1.896h-0.75"/>
<line fill="none" stroke="#231815" stroke-width="2" stroke-linecap="round" stroke-linejoin="round" stroke-miterlimit="10" x1="170.253" y1="49.399" x2="170.253" y2="58.009"/>
<line fill="none" stroke="#231815" stroke-width="2" stroke-linecap="round" stroke-linejoin="round" stroke-miterlimit="10" x1="190.292" y1="49.399" x2="190.292" y2="58.009"/>
<g>
	<path fill="#10489B" d="M15.126,150.776c0,0,1.26-5.391,6.852-7.138c0,0,5.109,5.053,9.216,5.053s8.647-3.522,9.173-5.053
		s5.784,2.713,6.668,6.424l0.658,9.199v2.158c0,0-6.617,5.723-16.284,5.723s-15.113-4.973-16.284-5.958
		C13.956,160.199,15.126,150.776,15.126,150.776z"/>
	<path fill="none" stroke="#231815" stroke-width="3" stroke-linejoin="round" stroke-miterlimit="10" d="M47.694,163.482v-9.553
		c0-6.262-4.927-11.338-11.005-11.338H25.699c-6.079,0-11.005,5.076-11.005,11.338v9.046"/>
	<path fill="#FED10C" stroke="#231815" stroke-width="3" stroke-linejoin="round" stroke-miterlimit="10" d="M41.548,138.508
		c0,5.626-4.561,10.187-10.188,10.187l0,0c-5.626,0-10.187-4.561-10.187-10.187v-5.762c0-5.627,4.561-10.188,10.187-10.188l0,0
		c5.627,0,10.188,4.561,10.188,10.188V138.508z"/>
	<circle fill="#231815" cx="27.062" cy="135.988" r="1.324"/>
	<circle fill="#231815" cx="35.838" cy="135.988" r="1.324"/>
	<path fill="none" stroke="#231815" stroke-width="2" stroke-miterlimit="10" d="M20.605,139.813h-0.88
		c-1.047,0-1.896-0.85-1.896-1.896v-2.578c0-1.047,0.754-1.896,1.802-1.896h0.75"/>
	<path fill="none" stroke="#231815" stroke-width="2" stroke-miterlimit="10" d="M42.275,139.813h0.88
		c1.047,0,1.896-0.85,1.896-1.896v-2.578c0-1.047-0.755-1.896-1.802-1.896H42.5"/>
	
		<line fill="none" stroke="#231815" stroke-width="2" stroke-linecap="round" stroke-linejoin="round" stroke-miterlimit="10" x1="21.174" y1="158.273" x2="21.174" y2="166.883"/>
	
		<line fill="none" stroke="#231815" stroke-width="2" stroke-linecap="round" stroke-linejoin="round" stroke-miterlimit="10" x1="41.214" y1="158.273" x2="41.214" y2="166.883"/>
	<g>
		<path fill="#231815" d="M27.371,132.829c-4.774,0-6.203-2.764-6.278-2.917l1.346-0.661l1.322-0.708
			c0.015,0.026,1.769,3.402,8.428,1.351c6.021-1.854,8.661,1.201,8.888,1.623l-0.68,1.313c0,0.001-0.605-0.927-0.605-0.927
			c-0.009,0-1.409-1.808-6.874-0.057C30.698,132.557,28.87,132.829,27.371,132.829z"/>
	</g>
</g>
<g>
	<path fill="#AAAAAA" d="M134.058,244.244c0,0,1.26-5.391,6.852-7.138c0,0,5.109,5.053,9.216,5.053c4.107,0,8.647-3.522,9.174-5.053
		s5.784,2.713,6.669,6.424l0.657,9.199v2.158c0,0-6.616,5.723-16.283,5.723s-15.112-4.973-16.284-5.958
		C132.888,253.667,134.058,244.244,134.058,244.244z"/>
	<path fill="none" stroke="#231815" stroke-width="3" stroke-linejoin="round" stroke-miterlimit="10" d="M166.625,256.95v-9.553
		c0-6.262-4.927-11.338-11.005-11.338h-10.989c-6.079,0-11.006,5.076-11.006,11.338v9.046"/>
	<path fill="#FED10C" stroke="#231815" stroke-width="3" stroke-linejoin="round" stroke-miterlimit="10" d="M160.479,231.976
		c0,5.626-4.561,10.187-10.188,10.187l0,0c-5.626,0-10.186-4.561-10.186-10.187v-5.762c0-5.627,4.56-10.188,10.186-10.188l0,0
		c5.627,0,10.188,4.561,10.188,10.188V231.976z"/>
	<circle fill="#231815" cx="145.994" cy="229.456" r="1.324"/>
	<circle fill="#231815" cx="154.77" cy="229.456" r="1.324"/>
	<path fill="none" stroke="#231815" stroke-width="2" stroke-miterlimit="10" d="M139.537,233.28h-0.88
		c-1.047,0-1.896-0.85-1.896-1.896v-2.578c0-1.047,0.756-1.896,1.803-1.896h0.75"/>
	<path fill="none" stroke="#231815" stroke-width="2" stroke-miterlimit="10" d="M161.207,233.28h0.88
		c1.047,0,1.896-0.85,1.896-1.896v-2.578c0-1.047-0.756-1.896-1.803-1.896h-0.75"/>
</g>
<path fill="#10489B" d="M141.842,238.685l4.151,2.917v6.166c0,0-0.465,1.517,1.324,1.517s5.789,0,5.789,0s1.537-0.225,1.537-1.537
	s0-5.229,0-5.229l3.629-2.5v8.681l1.873,3.043v6.896c0,0-8.885,4.703-19.754,0v-9.057l1.45-1.937V238.685z"/>
<path fill="#FED10C" stroke="#231815" stroke-width="3" stroke-linejoin="round" stroke-miterlimit="10" d="M142.543,219.605
	c1.954,3.215,6.809,8.95,17.937,8.526"/>
<path fill="none" stroke="#231815" stroke-width="2" stroke-linecap="round" stroke-linejoin="round" stroke-miterlimit="10" d="
	M154.683,241.172v6.615c0,0.99-0.803,1.794-1.793,1.794h-5.616c-0.991,0-1.794-0.804-1.794-1.794v-7.415"/>
<polyline fill="none" stroke="#231815" stroke-width="2" stroke-linecap="round" stroke-linejoin="round" stroke-miterlimit="10" points="
	160.146,260.647 160.146,252.038 158.631,249.481 158.631,238.515 "/>
<polyline fill="none" stroke="#231815" stroke-width="2" stroke-linecap="round" stroke-linejoin="round" stroke-miterlimit="10" points="
	141.62,238.515 141.62,247.124 140.106,249.681 140.106,260.647 "/>
<circle fill="#231815" cx="156.353" cy="252.172" r="1.324"/>
<circle fill="#231815" cx="143.867" cy="252.172" r="1.324"/>
<circle fill="none" stroke="#FFFFFF" stroke-width="2" stroke-miterlimit="10" cx="276.803" cy="107.737" r="2.146"/>
<circle fill="none" stroke="#FFFFFF" stroke-width="2" stroke-miterlimit="10" cx="206.634" cy="84.039" r="2.145"/>
<circle fill="none" stroke="#FFFFFF" stroke-width="2" stroke-miterlimit="10" cx="162.595" cy="105.592" r="2.145"/>
<circle fill="none" stroke="#FFFFFF" stroke-width="2" stroke-miterlimit="10" cx="122.678" cy="110.539" r="2.145"/>
<circle fill="none" stroke="#FFFFFF" stroke-width="2" stroke-miterlimit="10" cx="297.461" cy="127.149" r="2.146"/>
<circle fill="none" stroke="#FFFFFF" stroke-width="2" stroke-miterlimit="10" cx="270.471" cy="175.116" r="2.145"/>
<circle fill="none" stroke="#FFFFFF" stroke-width="2" stroke-miterlimit="10" cx="237.369" cy="188.199" r="2.146"/>
<g>
	<g>
		<path fill="none" stroke="#FFFFFF" stroke-width="2" stroke-linecap="round" stroke-miterlimit="10" d="M278.107,108.374
			c0.171,0.035,0.313,0.119,0.438,0.229"/>
		
			<path fill="none" stroke="#FFFFFF" stroke-width="2" stroke-linecap="round" stroke-miterlimit="10" stroke-dasharray="1.0082,4.0329" d="
			M281.319,111.52c0.437,0.389,0.881,0.771,1.324,1.163c1.034,0.912,2.318,1.305,3.423,2.146c1.625,1.237,3.308,2.223,5.019,3.313
			c1.821,1.161,3.34,2.696,4.296,4.541"/>
		<path fill="none" stroke="#FFFFFF" stroke-width="2" stroke-linecap="round" stroke-miterlimit="10" d="M296.122,124.562
			c0.044,0.161,0.085,0.324,0.121,0.489"/>
	</g>
</g>
<g>
	<g>
		<path fill="none" stroke="#FFFFFF" stroke-width="2" stroke-linecap="round" stroke-miterlimit="10" d="M298.328,129.324
			c0.048,0.155,0.089,0.317,0.124,0.483"/>
		
			<path fill="none" stroke="#FFFFFF" stroke-width="2" stroke-linecap="round" stroke-miterlimit="10" stroke-dasharray="1.0384,4.1536" d="
			M298.59,133.948c-0.065,1.142-0.159,2.261-0.157,3.202c0.008,4.313-0.733,9.16-1.898,13.311c-0.89,3.169-1.625,7.05-3.458,9.805
			c-1.587,2.386-3.276,4.39-5.419,6.272c-2.884,2.535-6.264,4.872-9.699,6.564c-0.813,0.4-1.66,0.637-2.512,0.868"/>
		<path fill="none" stroke="#FFFFFF" stroke-width="2" stroke-linecap="round" stroke-miterlimit="10" d="M273.462,174.578
			c-0.155,0.06-0.31,0.123-0.463,0.191"/>
	</g>
</g>
<g>
	<g>
		<path fill="none" stroke="#FFFFFF" stroke-width="2" stroke-linecap="round" stroke-miterlimit="10" d="M267.522,177.435
			c-0.164,0.021-0.328,0.046-0.492,0.075"/>
		
			<path fill="none" stroke="#FFFFFF" stroke-width="2" stroke-linecap="round" stroke-miterlimit="10" stroke-dasharray="0.9883,3.9532" d="
			M263.268,178.704c-2.378,1-4.765,2.304-7.099,2.982c-4.05,1.179-8.106,2.331-12.185,3.505c-5.489,1.581-14.845,6.997-17.296,13.16
			c-1.356,3.412-2.624,10.017-3.06,14.283"/>
		<path fill="none" stroke="#FFFFFF" stroke-width="2" stroke-linecap="round" stroke-miterlimit="10" d="M223.481,214.608
			c-0.006,0.176-0.01,0.342-0.012,0.498"/>
	</g>
</g>
<path fill="none" stroke="#FFFFFF" stroke-width="2" stroke-linecap="round" stroke-miterlimit="10" stroke-dasharray="1,4" d="
	M124.522,111.685c2.268,2.331,8.304,1.75,11.382,1.75c3.483,0.001,7.196,0.388,10.637-0.056c5.568-0.718,9.756-3.657,14.481-5.694"
	/>
<path fill="none" stroke="#FFFFFF" stroke-width="2" stroke-linecap="round" stroke-miterlimit="10" stroke-dasharray="1,4" d="
	M162.772,101.935c2.6-9.378,7.286-17.343,17.542-19.242c4.591-0.851,9.211-1.258,13.889-1.258c3.012,0,7.946-0.963,10.569,0.75"/>
<text transform="matrix(1 0 0 1 83.8159 304.835)" opacity="0.7" font-family="'FZZYJW--GB1-0'" font-size="12.8182" letter-spacing="-6">······</text>
<text transform="matrix(1 0 0 1 329.5942 132.2979)" font-family="'FZZYJW--GB1-0'" font-size="17.3215" letter-spacing="-8">······</text>
<text transform="matrix(1 0 0 1 219.8784 39.8203)" fill="#231815" font-family="'FZZCHJW--GB1-0'" font-size="20.4613">前边高速又堵上了</text>
<text transform="matrix(1 0 0 1 72.6099 150.4756)" fill="#231815" font-family="'FZZCHJW--GB1-0'" font-size="19.763">这有单活，谁有空</text>
<text transform="matrix(1 0 0 1 196.7725 242.1621)" fill="#231815" font-family="'FZZCHJW--GB1-0'" font-size="19.902">某公司是骗子,大家小心</text>
</svg>
