<?xml version="1.0" encoding="utf-8"?>
<!-- Generator: Adobe Illustrator 16.0.0, SVG Export Plug-In . SVG Version: 6.00 Build 0)  -->
<!DOCTYPE svg PUBLIC "-//W3C//DTD SVG 1.1//EN" "http://www.w3.org/Graphics/SVG/1.1/DTD/svg11.dtd">
<svg version="1.1" id="图层_1" xmlns="http://www.w3.org/2000/svg" xmlns:xlink="http://www.w3.org/1999/xlink" x="0px" y="0px"
	 width="337px" height="351px" viewBox="0 0 337 351" enable-background="new 0 0 337 351" xml:space="preserve">
<circle fill="#31DD9F" stroke="#000000" stroke-width="6" stroke-miterlimit="10" cx="193.232" cy="207.572" r="135.589"/>
<path fill="#11A569" d="M271.452,279.868c0,4.696-3.808,8.504-8.505,8.504L120.562,318.55c0,0-10.597-7.269-16.302-12.704
	c-4.728-4.334-9.936-9.976-9.936-9.976l168.623-31.57c4.697,0,8.505,3.808,8.505,8.504V279.868z"/>
<path fill="#727272" stroke="#231815" stroke-width="4" stroke-miterlimit="10" d="M167.932,300.319l-12.33-5.497
	c-2.361-0.887-4.19-3.797-4.19-6.109V46.293c0-2.313,1.877-4.188,4.19-4.188l13.272-1.383"/>
<path fill="#AFAFAF" stroke="#231815" stroke-width="4" stroke-miterlimit="10" d="M270.057,197.389v84.072
	c0,2.313-1.875,4.189-4.189,4.189l-96.993,14.776c-2.313,0-4.189-1.877-4.189-4.188V44.911c0-2.313,1.875-4.189,4.189-4.189
	L265.867,55.5c2.313,0,4.189,1.875,4.189,4.188V72.29"/>
<path fill="#3A3736" d="M265.561,197.389v4.622c0,2.313-1.877,4.189-4.19,4.189h-0.124c-2.313,0-4.189-1.876-4.189-4.189V69.395
	c0-2.313,1.877-4.189,4.189-4.189h0.124c2.313,0,4.19,1.875,4.19,4.189v2.293v1.008h-3.25v124.693H265.561z"/>
<path fill="none" stroke="#231815" stroke-width="3" stroke-miterlimit="10" d="M265.561,71.688v-2.293
	c0-2.313-1.877-4.189-4.19-4.189h-0.124c-2.313,0-4.189,1.875-4.189,4.189v132.616c0,2.313,1.877,4.189,4.189,4.189h0.124
	c2.313,0,4.19-1.876,4.19-4.189v-4.622"/>
<ellipse fill="#FFFFFF" stroke="#231815" stroke-width="2" stroke-miterlimit="10" cx="216.057" cy="276.336" rx="6.797" ry="8.375"/>
<path fill="none" stroke="#231815" stroke-width="3" stroke-miterlimit="10" d="M234.23,62.211c-0.041,0.303-0.32,0.514-0.625,0.472
	l-18.983-2.698c-0.302-0.043-0.513-0.324-0.472-0.626l0,0c0.043-0.303,0.322-0.514,0.625-0.472l18.983,2.699
	C234.063,61.626,234.273,61.908,234.23,62.211L234.23,62.211z"/>
<path fill="none" stroke="#231815" stroke-width="3" stroke-miterlimit="10" d="M207.463,58.403
	c-0.042,0.303-0.32,0.513-0.626,0.472l-0.217,0.005c-0.302-0.043-0.515-0.322-0.472-0.625l0,0c0.043-0.303,0.322-0.514,0.625-0.472
	l0.217-0.005C207.293,57.818,207.506,58.1,207.463,58.403L207.463,58.403z"/>
<path fill="#CDF9E2" stroke="#231815" stroke-width="3" stroke-miterlimit="10" d="M257.057,197.389h41.508
	c2.313,0,4.189-1.875,4.189-4.189V77.104c0-2.312-1.875-4.189-4.189-4.189h-41.508V197.389z"/>
<g>
	<rect x="261.686" y="100.975" fill="none" width="15.09" height="1.715"/>
	<rect x="261.686" y="106.005" fill="none" width="15.09" height="1.602"/>
	<path fill="none" d="M259.854,114.694c0.916,0.076,1.486-0.037,1.715-0.343l5.832-3.545h-9.433v3.888H259.854z"/>
	<rect x="261.686" y="96.059" fill="none" width="15.09" height="1.714"/>
	<path fill="#231815" d="M281.35,107.606V92.742h-14.179l0.916-1.143h-6.289l-0.571,0.686c-0.306,0.383-0.914,0.534-1.828,0.457
		h-1.43v18.064h9.432l-5.83,3.545c-0.229,0.306-0.801,0.419-1.715,0.343h-1.887v2.857h4.059c1.447,0,2.818-0.419,4.117-1.257
		l8.459-5.488h2.172v2.973c0.076,0.611-0.189,0.878-0.799,0.8h-5.488v2.859h6.975c2.973,0.303,4.268-0.802,3.889-3.315v-3.316h1.143
		v-3.2L281.35,107.606L281.35,107.606z M276.775,107.606h-15.092v-1.602h15.092V107.606z M276.775,102.689h-15.092v-1.715h15.092
		V102.689z M276.775,97.772h-15.092v-1.714h15.092V97.772z"/>
	<path fill="#231815" d="M279.977,124.756l-1.029-4.003h-6.629v3.2h3.543l0.687,2.632c0.304,2.133,1.524,3.049,3.659,2.743h2.059
		v-3.429h-1.029C280.473,126.051,280.053,125.668,279.977,124.756z"/>
	<path fill="#231815" d="M281.578,130.586H264.2v3.315h3.657l-1.601,8.346c-0.153,0.991-0.571,1.413-1.257,1.258h-1.145v3.315h2.974
		c1.676,0.075,2.667-0.8,2.973-2.629l2.173-10.29h5.373v8.689c0.076,0.762-0.191,1.069-0.8,0.914h-5.144v3.201h6.059
		c3.047,0.229,4.419-0.991,4.116-3.659L281.578,130.586L281.578,130.586z"/>
	<path fill="#231815" d="M269.344,126.698l2.174-6.061h-4.459l-1.259,4.118c-0.305,0.99-0.687,1.409-1.144,1.257h-0.686v3.43h2.4
		C267.743,129.595,268.732,128.681,269.344,126.698z"/>
	<path fill="#231815" d="M258.141,129.556v17.265h4.23v-19.779l2.172-6.403h-4.23l-1.486,4.23c-0.225,0.615-0.512,0.98-0.857,1.102
		v3.586L258.141,129.556L258.141,129.556z"/>
	<path fill="#231815" d="M265,154.024h7.773v18.749h-3.545c-0.381,0-0.533-0.149-0.457-0.456v-15.091H265v16.463
		c-0.078,1.675,0.646,2.515,2.171,2.515h14.407v-3.431h-5.031v-9.26h5.031v-3.316h-5.031v-6.173h5.031v-3.545H265V154.024z"/>
	<path fill="#231815" d="M259.512,176.204h4.116v-3.2h-1.83c-0.229,0.076-0.343-0.076-0.343-0.458v-13.49h-3.486v16.264
		C258.254,175.842,258.748,176.156,259.512,176.204z"/>
	<rect x="257.968" y="150.479" fill="#231815" width="4.858" height="3.658"/>
</g>
<rect x="257.057" y="72.916" opacity="0.6" fill="#231815" enable-background="new    " width="8.504" height="124.473"/>
<path fill="none" stroke="#231815" stroke-width="8" stroke-linecap="round" stroke-miterlimit="10" d="M134.25,45.657
	c0-11.045,8.953-19.999,19.998-19.999"/>
<path fill="none" stroke="#231815" stroke-width="8" stroke-linecap="round" stroke-miterlimit="10" d="M112.27,45.229
	c0-21.618,17.524-39.143,39.143-39.143"/>
<polygon fill="#FFFFFF" stroke="#231815" stroke-width="4" stroke-miterlimit="10" points="249.057,256.691 175.057,264.3 
	175.057,65.206 249.057,75.254 "/>
<path fill="#FED10C" stroke="#231815" stroke-width="3" stroke-linejoin="round" stroke-miterlimit="10" d="M237.732,109.906
	c-0.312,7.982-7.037,14.201-15.019,13.89l-70.088,1.248c-15.915,0.176-20.989-13.33-20.678-21.313l0,0
	c0.312-7.983,6.354-19.252,22.236-18.633l69.657,9.788c7.983,0.313,14.19,4.99,13.88,12.976L237.732,109.906z"/>
<g>
	
		<circle fill="#FED10C" stroke="#231815" stroke-width="4" stroke-linejoin="round" stroke-miterlimit="10" cx="146.476" cy="105.06" r="23.429"/>
	<g>
		<path fill="#AAAAAA" d="M132.697,113.008c0,0,1.067-4.57,5.809-6.052c0,0,4.332,4.284,7.814,4.284
			c3.483,0,7.332-2.986,7.779-4.284c0.446-1.298,4.904,2.3,5.654,5.447l0.557,7.8v1.83c0,0-5.61,4.852-13.806,4.852
			c-8.197,0-12.815-4.216-13.807-5.051C131.704,120.998,132.697,113.008,132.697,113.008z"/>
		<path fill="none" stroke="#231815" stroke-width="3" stroke-linejoin="round" stroke-miterlimit="10" d="M160.31,123.782v-8.101
			c0-5.31-4.177-9.613-9.331-9.613h-9.318c-5.154,0-9.332,4.304-9.332,9.613v7.671"/>
		<path fill="#FED10C" stroke="#231815" stroke-width="3" stroke-linejoin="round" stroke-miterlimit="10" d="M155.1,102.605
			c0,4.771-3.867,8.638-8.638,8.638l0,0c-4.771,0-8.637-3.867-8.637-8.638V97.72c0-4.771,3.867-8.639,8.637-8.639l0,0
			c4.771,0,8.638,3.868,8.638,8.639V102.605z"/>
		<circle fill="#231815" cx="142.817" cy="100.469" r="1.123"/>
		<circle fill="#231815" cx="150.258" cy="100.469" r="1.122"/>
		<path fill="none" stroke="#231815" stroke-width="2" stroke-miterlimit="10" d="M137.342,103.712h-0.746
			c-0.888,0-1.607-0.721-1.607-1.608v-2.186c0-0.889,0.64-1.607,1.527-1.607h0.636"/>
		<path fill="none" stroke="#231815" stroke-width="2" stroke-miterlimit="10" d="M155.716,103.712h0.746
			c0.888,0,1.607-0.721,1.607-1.608v-2.186c0-0.889-0.64-1.607-1.527-1.607h-0.636"/>
	</g>
	<path fill="#10489B" d="M139.296,108.294l3.521,2.474v5.229c0,0-0.395,1.285,1.123,1.285c1.516,0,4.908,0,4.908,0
		s1.303-0.189,1.303-1.303s0-4.435,0-4.435l3.078-2.12v7.361l1.588,2.579v5.848c0,0-7.534,3.989-16.75,0v-7.679l1.229-1.642V108.294
		z"/>
	<path fill="#FED10C" stroke="#231815" stroke-width="3" stroke-linejoin="round" stroke-miterlimit="10" d="M139.891,92.117
		c1.657,2.725,5.772,7.588,15.209,7.229"/>
	<path fill="none" stroke="#231815" stroke-width="2" stroke-linecap="round" stroke-linejoin="round" stroke-miterlimit="10" d="
		M150.185,110.403v5.608c0,0.84-0.681,1.521-1.521,1.521h-4.762c-0.84,0-1.521-0.682-1.521-1.521v-6.287"/>
	
		<polyline fill="none" stroke="#231815" stroke-width="2" stroke-linecap="round" stroke-linejoin="round" stroke-miterlimit="10" points="
		154.816,126.917 154.816,119.617 153.532,117.448 153.532,108.149 	"/>
	
		<polyline fill="none" stroke="#231815" stroke-width="2" stroke-linecap="round" stroke-linejoin="round" stroke-miterlimit="10" points="
		139.109,108.149 139.109,115.45 137.825,117.618 137.825,126.917 	"/>
	<circle fill="#231815" cx="151.601" cy="119.729" r="1.123"/>
	<circle fill="#231815" cx="141.014" cy="119.729" r="1.123"/>
</g>
<g>
	<path d="M179.784,113.016c-1.693-0.025-2.517-0.906-2.472-2.64v-7.816l2.338,0.158v1.938l6.479,0.44
		c0.979,0.111,1.446-0.325,1.401-1.309v-2.605l-10.621-0.722v-1.47l12.895,0.876v4.409c0.043,1.74-0.826,2.527-2.607,2.361
		l-7.549-0.512v4.209c0,0.892,0.424,1.364,1.271,1.422l7.215,0.49c0.937,0.107,1.38-0.263,1.337-1.112v-1.001l1.803,0.121v1.27
		c0.088,1.565-0.734,2.266-2.472,2.104L179.784,113.016z"/>
	<path d="M194.682,114.027v-8.551l-1.67-0.114v-1.403l3.74,0.255v7.349c0.355-0.152,0.957-0.446,1.805-0.88
		c-0.625,0.358-0.535,0.321,0.268-0.115v1.67C197.664,112.96,196.285,113.558,194.682,114.027z M195.082,102.83
		c-0.223-0.994-0.602-2.133-1.135-3.416l1.937,0.131c0.535,1.195,0.937,2.335,1.203,3.422L195.082,102.83z M208.244,115.615
		c-2.764-2.592-4.389-5.351-4.877-8.279c-0.535,2.902-2.184,5.44-4.943,7.613v-1.604c2.627-3.251,3.896-7.328,3.809-12.234v-1.068
		l2.271,0.153v1.069c-0.089,4.849,1.158,9.099,3.742,12.747L208.244,115.615L208.244,115.615z"/>
	<path d="M211.518,115.17v-8.551l-1.404-0.095v-1.404l3.408,0.231v7.283c0.49-0.145,1.068-0.418,1.736-0.818v1.537
		C214.412,114.055,213.164,114.658,211.518,115.17z M212.118,104.054c-0.224-1.084-0.624-2.224-1.202-3.422l1.87,0.128
		c0.534,1.061,0.958,2.202,1.271,3.426L212.118,104.054z M215.191,102.993v-1.403l10.287,0.699v1.402l-3.474-0.235v4.143
		l3.007,0.204v1.403l-3.007-0.204v5.611l3.741,0.254v1.27l-11.357-0.771v-1.27l1.67,0.113v-8.752l1.938,0.132v8.752l1.871,0.128
		v-11.157L215.191,102.993z"/>
</g>
<g>
	
		<path fill="#FED10C" stroke="#000000" stroke-width="5" stroke-linecap="round" stroke-linejoin="round" stroke-miterlimit="10" d="
		M9.775,165.606c-6.957,18.16-5.531,39.268,5.699,56.939c18.847,29.658,58.173,38.43,87.834,19.579
		c5.676-3.604,10.254-8.259,14.683-12.853c6.954-7.211,21.371-6.683,21.371-6.683s-10.034-11.067-8.072-20.328
		c1.669-7.878,1.937-16.067,0.643-24.128c-1.322-8.24-4.279-16.346-9.044-23.843c-10.251-16.136-26.564-26.087-44.084-28.778"/>
	<g>
		<polygon fill="#020202" points="92.927,195.839 91.455,197.295 81.567,200.087 80.797,200.491 80.292,200.982 80.137,201.292 
			80.026,201.614 80.012,201.992 81.371,202.439 82.79,202.641 84.303,202.582 85.888,202.287 91.722,200.154 92.255,200.087 
			92.772,200.087 93.249,200.154 93.501,200.239 92.618,220.46 92.338,220.755 87.612,221.611 80.728,222.341 78.553,222.214 
			78.259,215.777 81.483,215.174 81.891,214.839 82.915,214.236 83.209,214.109 85.396,213.561 88.51,213.182 89.981,212.764 
			90.038,212.721 90.29,212.623 91.005,212.217 91.146,212.161 92.043,211.372 91.958,211.191 91.932,210.798 92.017,210.279 
			92.198,209.677 92.338,209.329 91.496,208.667 90.864,208.359 90.192,208.176 89.45,208.091 88.65,208.136 86.911,208.539 
			82.368,210.195 78.259,210.505 78.259,206.395 78.862,202.287 78.833,202.061 78.791,201.822 78.623,201.404 78.343,200.956 
			77.965,200.521 77.151,199.859 76.506,199.063 74.752,200.239 74.458,205.795 74.458,211.372 73.855,216.057 74.164,216.646 
			74.009,216.801 73.926,216.997 73.868,217.249 73.855,217.532 73.911,217.6 73.954,217.695 73.996,217.813 74.009,217.965 
			73.996,218.105 73.855,218.707 74.206,219.479 74.373,220.378 74.358,221.386 74.164,222.51 73.855,226.617 75.032,228.09 
			75.188,228.341 75.369,228.564 75.554,228.736 75.762,228.872 75.972,228.957 76.239,229.016 76.799,228.957 78.862,227.204 
			79.31,226.982 81.526,226.322 84.374,225.932 89.814,225.956 90.864,226.041 91.75,229.844 94.679,233.951 95.325,233.051 
			95.493,232.615 95.534,232.395 95.548,232.184 95.634,232.027 95.747,231.891 96.068,231.594 96.475,231.299 97.021,231.02 
			98.493,230.418 100.247,226.909 100.556,225.73 100.499,225.677 100.485,225.593 100.485,225.495 100.849,224.359 
			101.998,221.932 102.309,210.995 102.421,210.477 102.421,210.337 102.436,210.293 102.476,210.111 102.729,207.768 
			102.882,201.992 101.171,198.4 100.737,197.854 100.598,197.744 100.471,197.661 100.345,197.604 100.247,197.59 100.035,197.365 
			99.589,196.959 99.054,196.598 97.751,195.964 96.111,195.486 94.679,195.248 		"/>
		<path fill="#020202" d="M102.882,149.292l-0.293-0.797l-0.42-0.575l-0.17-0.167l-2.762-1.644l-3.125-1.455l-0.392-0.145
			l-1.04-0.264h-0.237l-0.365,0.07l-0.267,0.127l-0.197,0.238l-0.111,0.292l-0.028,0.367l0.125,0.688l0.197,0.56v3.519l-0.295,3.802
			l-2.637,4.696l-2.929,4.686l-4.095,0.894H79.73l1.207-2.647l0.533-1.769l0.448-2.635l0.155-2.932l0.828-1.275l0.477-1.149
			l0.098-0.547l0.015-0.502l-0.083-0.481l-0.17-0.447l-1.529,0.813l-1.331,0.433l-0.603,0.043l-0.548-0.025l-0.52-0.155
			l-0.447-0.212l-0.168-0.025l-0.099-0.045l-0.027-0.013h-0.058l-0.392-0.211l-1.487-1.273l-0.252-0.158l-0.504-0.224l-0.546-0.099
			H74.46l-0.364,0.085l-0.282,0.127l-0.238,0.184l-0.238,0.363l-0.056,0.155l-0.069,0.701l0.013,0.21l0.632,2.858l0.07,0.111
			l0.126,0.308l0.394,1.335l0.756,4.629l0.196,0.658l0.449,0.869l0.351,0.461l0.42,0.41l0.505,0.335l0.563,0.267l0.168,0.195
			l0.39,0.591l0.155,0.349l0.015,0.073l0.027,0.081l0.043,0.171v0.125l-0.028,0.126l-0.086,0.25l-0.183,0.197l-0.096,0.056
			l-0.014,0.029l-0.112,0.099l-4.979,0.281l-4.978,0.899l-0.883,1.454l0.266,0.254l1.557,1.108l2.916,1.514l4.937,2.103v2.932
			l-0.293,2.648l-1.108,0.646l-0.49,0.17l-0.239,0.041l-0.21,0.013l-2.216,1.476l-0.434,0.194l-0.45,0.084l-0.224,0.029
			l-0.211-0.029l-0.223-0.058l-0.462-0.209l-0.436-0.28l-1.723-1.668l-1.474-1.097l-0.419-0.151l-0.14-0.042h-0.1l0.07,0.896
			l-0.07,1.222l-0.758,4.569l-0.027,1.054l0.126,1.261l0.379,1.081l0.28,0.478l0.1,0.211l0.182,0.277l0.603,0.672l2.048,1.768
			l2.648-4.109l2.932-3.516v-0.017h0.113l0.126-0.056l0.028-0.028l0.223-0.139l0.197-0.28l0.043-0.102v-0.041h0.013l0.029-0.041
			l0.098-0.184l0.056-0.154l0.042-0.07l0.127-0.07l0.11-0.098l0.155-0.068l0.391-0.123l0.114,0.375l0.182,1.528l-0.547,4.476
			l0.013,0.949l0.17,1.083l0.364,0.968l-2.638,0.586l-11.147,1.756l-0.294-0.297l-7.965,1.936l-0.098,0.014l-0.058,0.045
			l-0.083,0.069l-0.042,0.296v0.11l-0.057,0.42l-0.126,0.396l-0.041,0.041v0.043l-0.099,0.289l-0.226,0.355l-0.195,0.252
			l-0.041,0.097l-0.309,0.323l-2.973,2.65h-0.577l-0.154-0.015l-0.099-0.043l-0.083-0.039l-0.042-0.059l-0.041-0.101l0.041-0.211
			l0.07-0.109l2.931-14.065l0.913-2.817l0.166-0.308l0.101-0.098v-0.072l0.013-0.085l0.044-0.098l1.99-3.575l0.307-0.702
			l0.043-0.225v-0.239l0.014-0.015v-0.221l-0.084-0.507l-0.211-0.521l-0.028-0.057l-0.265-0.491l-0.939-1.135l-1.248-0.743
			l-0.828-0.309l-0.826-0.168l-0.828-0.029l-0.855,0.099l-0.869,0.226l-0.421,0.182l-0.869,0.462l-1.234,0.994l-1.43,0.845
			l-0.519,0.252l-0.083,0.013l-0.464,0.24l-2.482,0.727l-2.861,0.438l-4.402,1.176l-0.73,0.084l-1.205,0.34l-0.744,0.36
			l-0.419,0.296l-0.477,0.546l-0.143,0.196l-0.152,0.435v0.101l0.027,0.112l0.085,0.183l0.168,0.193l0.195,0.172l0.281,0.184
			l0.757,0.337l4.979,2.619l0.644,0.157h0.1l0.056,0.011l0.168,0.03l0.32,0.041l0.632-0.058l0.153-0.024l0.17-0.016l0.322-0.072
			l1.234-0.561l1.207-0.966l3.505-0.589l-0.449,4.526l-0.533,3.745l-0.773,3.464l-1.47,9.954l-0.731,2.594l-0.699,1.631
			l-0.015,0.086l-0.841,1.494l-1.346,1.685l-0.674,0.616l-0.083,0.103H37.36l-0.352,0.068l-0.153,0.085l-0.209,0.054l-0.394,0.239
			l-0.197,0.154l-0.881,1.443l1.344,2.652l0.717,1.021l0.237,0.312l0.997,0.952l0.518,0.349l0.658,0.21l0.94,0.102l0.154,0.054
			l0.125,0.085l0.169,0.127l0.295-0.141l0.125-0.043l0.294-0.139l0.113-0.045l0.083-0.055l0.661-0.393l0.645-0.576l0.197-0.252
			l0.083-0.056l0.281-0.353l0.463-0.799l0.392-0.885l0.141-0.504l0.336-1.627l1.178-1.754l0.056-0.182l1.108-1.866l0.027-0.081
			l0.181-0.365l0.073-0.083l0.364-0.521l0.099-0.184l0.419-0.531l0.126-0.238l8.398-10.602l3.802,1.178l6.156-2.061l5.861-1.473
			l7.32-2.049l5.582-0.28l4.107-0.603l0.141,0.043l0.224,0.113l0.098,0.068l0.406,0.377l0.128-0.098l0.126-0.084l0.252-0.195
			l0.379-0.521l7.626-0.572h15.244l4.979,0.572l0.266-0.139l0.238-0.236h0.043l0.547-0.804l0.952-2.917l-0.658-0.783l-0.756-0.646
			l-0.899-0.544l-1.542-0.646l-2.495-0.492l-2.146-0.098l-4.109,1.15l-4.11,0.897l-5.272,0.571H94.09l0.308-2.044V184.1l0.421-1.037
			l0.14-0.576l0.016-0.139l0.573-1.752l0.171,0.125l0.265,0.069l0.745,0.084l0.054-0.015l0.069-0.014l0.127-0.057l0.141-0.029
			l0.925-0.336l0.295-0.127l3.086-1.178l3.224-1.751l3.507-1.179l1.177-3.801l-0.111-0.448l-0.154-0.381l-0.212-0.348l-0.268-0.308
			l-0.503-0.422l-0.406-0.212l-3.912-1.399l-0.224,0.054l-0.183,0.085l-0.142,0.097l-0.238,0.227l-0.042,0.127l-0.057,0.278
			l0.589,1.474l-1.766,2.06l-6.157,5.555l-0.124-1.812l0.097-5.638L96.082,168l0.364-1.194l5.246-0.965l0.926-0.144l0.98-0.279
			l0.1-0.042h0.042l0.167-0.039l0.505-0.239h0.042l0.519-0.267l0.843-0.647l0.097-0.194l0.029-0.124l0.014-0.128l-0.014-0.17
			l-0.407-2.031l-0.114-0.155l-0.152-0.123l-0.195-0.145l-0.253-0.109l-0.659-0.212l-1.36-0.236l-4.895-0.196l-2.93,0.882
			l0.153-0.312l0.436-0.586l5.862-6.143l1.457-4.095l0.029-0.42L102.882,149.292L102.882,149.292z M88.579,169.066l0.154,0.167
			l0.099,0.157l0.085,0.223L89,170.121l-0.027,0.614l-0.155,0.758l-0.293,14.077l-0.589,4.111l-7.63,0.883v-8.526l0.211-1.292
			l0.519-1.43l0.8-1.569l0.828-1.25l-0.281-0.251l-0.239-0.267l-0.183-0.28l-0.169-0.492l-0.068-0.36l0.015-0.803l0.926-3.126
			l4.107-2.046l0.337-0.086l0.603-0.043l0.478,0.099l0.222,0.114L88.579,169.066L88.579,169.066z"/>
	</g>
	<g>
		<polygon fill="#020202" points="44.218,142.455 44.435,146.568 44.839,150.696 44.74,150.846 44.691,151.032 44.661,151.23 
			44.71,151.701 44.898,152.233 45.046,152.548 45.125,152.785 45.183,153.04 45.193,153.525 45.153,153.741 45.115,153.81 
			45.115,153.851 45.086,153.969 44.839,154.392 44.906,164.36 45.026,165.495 45.153,166.075 45.253,166.343 45.115,166.696 
			45.036,167.06 45.016,167.417 45.115,168.136 45.244,168.511 45.666,169.229 45.686,169.415 45.755,169.601 45.805,169.683 
			45.883,169.768 46.07,169.938 46.582,170.211 47.312,170.46 47.519,170.289 47.605,170.254 47.666,170.185 47.735,170.124 
			47.872,169.985 48.049,169.712 48.119,169.633 48.159,169.533 48.335,169.219 48.7,168.136 48.868,167.189 48.897,167.108 
			48.965,166.757 49.795,165.307 50.405,163.869 53.29,163.869 58.601,164.303 59.655,164.272 60.906,164.076 61.939,163.66 
			62.757,163.042 62.778,162.954 62.846,162.707 62.857,162.618 62.916,162.369 62.916,162.262 62.946,161.987 62.946,161.878 
			62.975,161.604 62.669,161.201 61.891,160.471 61.143,159.998 60.562,159.722 58.847,159.142 51.025,159.751 50.975,159.713 
			50.956,159.653 50.907,159.584 50.879,159.495 50.809,159.329 50.8,159.297 50.8,159.269 50.643,158.787 50.198,157.082 
			50.257,156.913 50.424,156.658 50.679,156.45 51.025,156.303 52.868,155.84 54.078,155.938 54.896,155.919 55.035,155.879 
			55.093,155.879 55.3,155.858 56.109,155.682 57.694,155.021 59.26,153.988 57.153,152.638 56.66,152.432 56.513,152.383 
			56.267,152.333 56.167,152.333 53.085,152.548 50.405,152.135 50.416,151.734 50.514,151.032 50.71,150.461 50.859,150.236 
			51.034,150.039 51.231,149.869 55.754,149.869 56.394,149.792 57.557,149.556 58.069,149.407 58.945,148.973 59.675,148.431 
			59.615,148.363 59.565,148.285 59.526,148.177 59.487,147.911 59.447,147.279 59.359,146.875 59.053,146.167 58.658,145.969 
			57.763,145.703 56.68,145.595 55.074,145.681 52.513,145.931 50.828,145.9 49.991,145.744 49.961,145.713 49.932,145.646 
			49.795,145.466 49.381,145.083 44.839,141.841 		"/>
		<polygon fill="#020202" points="40.11,110.94 39.528,111.057 39.273,111.146 38.849,111.352 38.525,111.607 38.299,111.924 
			38.15,112.266 38.119,112.683 38.181,113.156 38.563,114.427 39.097,116.22 39.136,116.317 39.252,116.801 39.252,116.839 
			39.273,116.86 39.273,116.899 39.283,116.918 38.879,117.323 38.948,117.639 38.967,118 38.879,118.771 38.919,119.489 
			39.016,119.895 39.075,120.012 39.097,120.287 39.086,120.316 39.086,120.543 39.047,120.612 39.047,120.651 39.016,120.723 
			39.016,120.75 38.919,120.929 38.849,120.968 38.839,120.986 38.762,121.055 38.575,121.166 38.327,121.224 36.968,121.292 
			36.455,121.38 36.102,121.55 35.992,121.646 35.933,121.628 35.914,121.588 35.884,121.519 35.884,121.311 35.933,121.007 
			35.992,120.838 35.786,119.393 34.751,117.953 32.071,115.264 30.555,115.373 30.338,115.41 29.787,115.567 29.194,115.895 
			28.978,116.091 28.84,116.288 28.76,116.533 28.743,116.78 28.84,117.362 28.968,117.678 29.403,118.356 28.88,120.102 
			28.693,120.592 28.645,120.673 28.624,120.741 28.574,120.838 27.136,122.681 26.654,123.813 25.895,125.145 23.423,128.453 
			23.482,128.623 23.57,128.789 23.659,128.907 23.786,129.006 23.914,129.066 24.072,129.104 24.457,129.066 24.565,129.006 
			25.197,128.888 25.905,128.867 32.692,124.544 32.988,124.495 33.667,124.582 34.388,124.838 36.555,126.179 37.115,126.435 
			37.628,126.565 37.667,126.565 37.805,126.604 38.132,126.621 38.455,126.604 38.533,126.652 38.623,126.722 38.673,126.801 
			38.71,126.909 38.722,127.133 38.455,128.236 36.82,128.867 35.166,129.271 27.136,129.687 19.512,130.72 15.602,130.72 
			11.473,131.329 11.364,131.329 11.128,131.401 10.872,131.568 10.597,131.795 10.449,131.952 10.163,132.141 9.967,132.347 
			9.838,132.552 9.779,132.76 9.788,132.976 9.867,133.182 10.024,133.389 11.896,135.045 12.488,135.401 13.08,135.707 
			13.601,135.89 13.649,135.911 14.469,136.098 15.246,136.108 15.354,136.089 15.383,136.078 15.482,136.078 15.739,136.021 
			16.152,135.882 16.221,135.862 16.29,135.707 16.684,135.182 16.939,134.967 17.384,134.72 18.083,134.482 18.487,134.424 
			21.363,133.389 28.368,132.159 37.628,131.329 37.825,131.281 38.317,131.313 38.898,131.458 39.894,131.952 40.475,132.267 
			40.76,132.354 41.026,132.404 41.272,132.404 41.381,132.378 41.41,132.365 41.508,132.365 41.735,132.275 41.784,132.238 
			41.953,132.159 43.606,130.926 45.253,130.305 58.02,129.893 60.493,130.098 62.975,130.926 65.644,131.125 65.851,131.113 
			65.901,131.105 66.078,131.105 66.502,131.057 66.846,130.977 66.906,130.977 67.279,130.869 67.625,130.72 67.949,130.542 
			68.157,130.378 68.236,130.336 68.53,130.098 68.49,129.825 68.432,129.618 68.422,129.586 68.422,129.557 68.206,129.132 
			67.989,128.858 67.428,128.267 66.599,127.617 66.019,127.241 65.714,127.114 65.052,126.917 64.698,126.857 63.959,126.839 
			62.069,127.173 60.906,127.626 47.519,128.453 47.312,128.236 44.218,128.236 44.287,126.801 44.454,126.131 44.563,125.884 
			44.691,125.697 44.839,125.569 46.907,124.948 52.868,122.888 52.907,122.851 52.954,122.808 52.976,122.753 52.976,122.719 
			52.985,122.719 53.006,122.691 53.006,122.535 53.025,122.535 53.025,122.328 52.907,121.766 52.67,121.037 52.571,120.908 
			52.444,120.791 52.276,120.673 52.089,120.584 51.321,120.327 48.435,120.022 47.302,120.012 47.302,120.044 47.281,120.079 
			47.242,120.079 47.242,120.089 47.212,120.089 47.212,120.102 47.065,120.079 46.995,120.044 46.987,120.044 46.917,120.012 
			46.149,119.953 45.558,119.807 45.311,119.677 45.115,119.529 45.026,119.44 44.888,119.264 44.839,119.184 45.696,115.972 
			45.696,115.913 45.707,115.873 45.696,115.805 45.696,115.747 45.666,115.626 45.509,115.383 45.499,115.362 45.44,115.285 
			45.253,115.066 45.272,114.94 45.362,114.633 45.47,114.446 44.021,112.8 43.902,112.788 43.882,112.78 43.805,112.78 
			43.598,112.723 43.36,112.615 43.214,112.525 43.144,112.485 43.016,112.397 42.662,112.093 41.942,111.315 41.725,111.126 
			41.48,110.979 41.351,110.917 41.094,110.84 40.968,110.812 40.396,110.85 40.248,110.892 		"/>
		<path fill="#020202" d="M50.257,132.603l-0.118-0.043l-0.246-0.146l-0.02-0.01l-0.078-0.058l-0.218-0.188l-0.324-0.18
			l-0.296-0.087l-0.305-0.011l-0.167,0.011l-0.138,0.06l-0.207,0.009l-0.208,0.051l-0.206,0.079l-0.217,0.116l-0.413,0.315
			l-0.206,0.204l-0.188,0.263l-0.434,0.417l-0.235,0.16l-0.108,0.06l-0.109,0.068l-0.068,0.01l-0.178,0.07l-0.227,0.049l-0.255,0.01
			l-0.07-0.01H44.96l-0.119-0.02h-9.882l-1.438-0.61l-0.364-0.041l-0.602,0.029l-0.512,0.12l-0.216,0.078l-0.168,0.086l-0.293,0.258
			l-0.101,0.17l-0.086,0.166l-0.051,0.413l0.038,0.484l0.078,0.294v0.029l0.346,1.35l0.031,0.209l0.159,0.748v0.018l0.027,0.111
			l0.042,0.313l0.019,0.099v0.087l0.038,0.269l-0.019,0.265l-0.011,0.05v0.063l-0.008,0.034v0.06l0.139,0.69l0.738,2.701l0.177,0.51
			l0.473,0.928l0.109,0.137l0.109,0.11l0.117,0.077h-0.011v0.079l-0.029,0.099l-0.02,0.027l-0.009,0.052l-0.04,0.089L33.48,144.6
			l-0.069,0.029l-0.01,0.021l-0.099,0.077l-0.206,0.039l-0.355,0.138l-0.286,0.188l-0.217,0.248l-0.158,0.295l-0.077,0.323
			l-0.021,0.365l0.01,0.217l0.177,1.161v0.071l0.011,0.03l0.019,0.116v0.365l0.011,0.027v0.365l-0.108,0.581l-0.04,0.04
			l-0.068,0.177l-0.128,0.187l-0.306-0.008l-0.267-0.041l-0.463-0.117l-0.197-0.089l-0.167-0.108l-0.137-0.13l-0.1-0.125h-7.211
			l-0.106,0.096l-0.052,0.129l-0.038,0.131l-0.01,0.147l0.048,0.335l0.052,0.187l0.934,1.575l0.277,0.295l0.315,0.247l0.372,0.205
			l0.396,0.157l0.218,0.062l0.739,0.127l0.549,0.021l3.518-0.425l2.049-1.014l0.148,0.759l0.069,0.894l0.089,0.622l0.108,0.395
			v2.473l-0.029,0.285v0.101l-0.031,0.373l-0.058,0.246l-0.01,0.088l-0.069,0.248l-0.01,0.087l-0.108,0.216l-0.02,0.081
			l-0.147,0.265l-0.139,0.179l-0.029,0.067l-0.177,0.229l-5.96,2.679l-0.424,0.049l-0.206,0.049l-0.198,0.108l-1.861,0.829
			l-1.854,0.403l-0.118,0.138l-0.129,0.108l-0.039,0.048l-0.442,0.278l-0.591,0.245l-0.316,0.078l-0.03,0.019l-1.487,0.483
			l-0.572,0.297l-0.432,0.363l-0.158,0.207l1.015,1.253l1.449,1.014l0.62,0.101l0.68,0.009l0.346-0.042l1.131-0.224l1.617-0.649
			l0.866-0.487l5.458-3.642l2.049-1.035l0.129,0.529l0.019,0.593l-0.118,0.652l-0.237,0.698l-0.404,2.483l0.443,1.291l0.297,0.618
			l0.236,0.324l0.255,0.229l0.208-0.032h0.087l0.05-0.018l0.215-0.051l0.11-0.062l0.04-0.026h0.019l0.069-0.028l0.089-0.078h0.02
			l0.118-0.07l0.188-0.209l0.028-0.066l0.138-0.179l0.276-0.63l0.325-0.218l0.068-0.078l0.08-0.069l0.108-0.148l0.039-0.03
			l0.247-0.451l0.079-0.246l0.029-0.02l0.099-0.286l0.068-0.337l0.02-0.087l0.07-0.254l0.079-0.583v-0.06l0.03-0.138l0.087-1.418
			v-0.257l0.207-2.108l0.414-2.068l1.243-1.232l0.402-0.322l0.207-0.307l0.021-0.158l-0.021-0.138l-0.031-0.099l-0.048-0.068
			l-0.117-0.138l-0.178-0.061l-0.354-0.018l-0.424,0.058l-0.453,0.129l-0.247,0.098l-0.276-0.405l-0.265-0.561l-0.039-0.156
			l-0.031-0.317l0.828-5.771l-0.198-0.228l-0.146-0.216l-0.051-0.13l-0.079-0.247l-0.021-0.382l0.08-0.435l0.118-0.286l0.078-0.138
			l-0.817-1.446l-1.232-1.234l0.089-0.442l0.186-0.346l0.356-0.365l0.236-0.125l0.266-0.099l2.768-0.465l2.69-0.63l2.876-0.197
			l1.319-0.207h0.129l1.635-0.413l2.068-1.438l1.853-1.655l0.61-1.438l0.424-1.438l0.068-0.119l0.02-0.068v-0.037h0.01l0.03-0.021
			l0.011-0.275l-0.051-0.179l-0.068-0.166v-0.012l-0.236-0.364l-0.729-0.767l-0.502-0.684l-0.108,0.043l-0.119,0.009l-0.068-0.009
			h-0.059V132.603z M46.08,134.424l-0.01,0.038v0.326l-0.009,0.029l-0.041,0.986l-0.03,0.217v0.077l-0.107,0.661l-0.01,0.029v0.098
			l-0.107,0.314l-0.021,0.108l-0.138,0.347l-0.137,0.197l-0.039,0.07l-0.178,0.184v0.021h-6.798l-0.63,0.324l-0.601,0.187
			l-0.631,0.033l-0.601-0.13l-0.207-1.448l5.141-1.232L46.08,134.424L46.08,134.424z"/>
		<polygon fill="#020202" points="31.873,155.801 31.747,155.682 31.667,155.645 26.101,155.22 21.579,156.875 22.939,157.909 
			23.984,158.434 24.702,158.656 25.814,158.836 27.343,158.717 27.481,158.521 27.786,158.264 28.092,158.165 28.25,158.175 
			28.416,158.214 28.574,158.312 31.037,157.082 31.608,156.588 31.914,156.194 31.944,156.018 31.923,155.87 		"/>
	</g>
</g>
<g enable-background="new    ">
	<path d="M182.469,146.76v-1.003c0.588-0.444,0.869-1.201,0.843-2.268v-5.176l3.491-0.257v-0.923l1.765-0.13v0.923l3.169-0.234
		v1.043l-6.779,0.5v3.611C185.063,144.656,184.234,145.961,182.469,146.76z"/>
	<path d="M192.659,141.916c0.241-0.873,0.428-1.837,0.562-2.89l0.843-0.063c-0.054,0.994-0.188,1.953-0.401,2.878L192.659,141.916z
		 M193.061,145.938v-0.963c0.828-0.649,1.23-1.468,1.203-2.456v-5.776l1.404-0.104v5.616
		C195.775,143.88,194.906,145.107,193.061,145.938z M196.27,141.65c-0.08-0.743-0.214-1.683-0.4-2.819l0.803-0.059
		c0.213,0.813,0.387,1.697,0.521,2.65v-4.734l1.363-0.101v8.545l-1.363,0.101v-3.65L196.27,141.65z M199.158,141.437
		c-0.054-0.771-0.188-1.712-0.4-2.819l0.842-0.063c0.134,0.525,0.308,1.396,0.521,2.609v-4.854l1.364-0.101v9.106l-1.364,0.101
		v-4.052L199.158,141.437z"/>
	<path d="M202.849,141.124v-1.083l5.497-0.405v1.083L202.849,141.124z"/>
	<path d="M209.428,136.747v-0.843l3.571-0.264v-0.481l1.564-0.115v0.481l3.61-0.267v0.843l-3.61,0.267v0.481l3.209-0.237v0.803
		l-3.209,0.237v0.521l3.852-0.284v0.802l-9.228,0.681v-0.802l3.812-0.281v-0.521l-3.169,0.234v-0.803l3.169-0.234v-0.481
		L209.428,136.747z M210.15,144.637v-4.935l7.301-0.539v3.61c0.027,0.881-0.387,1.326-1.243,1.336l-1.123,0.083v-0.883l0.441-0.033
		c0.321,0.003,0.468-0.141,0.44-0.434v-0.12l-4.332,0.319v1.484L210.15,144.637z M211.635,140.516v0.481l4.332-0.319v-0.481
		L211.635,140.516z M211.635,141.759v0.521l4.332-0.319v-0.521L211.635,141.759z"/>
	<path d="M219.738,142.767V140.6l1.324-0.098v1.244l1.123-0.083v-1.564l1.324-0.098v1.564l0.562-0.042
		c0.401-0.03,0.589-0.231,0.562-0.603v-0.683l1.324-0.098v0.883c0.026,0.881-0.415,1.341-1.324,1.382L219.738,142.767z
		 M225.396,143.392v-0.883l0.843-0.063c0.481-0.036,0.708-0.279,0.682-0.732v-2.247l-5.295,0.391
		c-0.91,0.095-1.352-0.328-1.324-1.266v-3.289l2.006-0.148c0.08-0.22,0.133-0.465,0.16-0.735l1.805-0.133
		c-0.026,0.082-0.053,0.191-0.08,0.327c-0.053,0.165-0.094,0.302-0.12,0.411l3.45-0.255v1.885c0.026,0.908-0.415,1.382-1.324,1.422
		l-1.162,0.086V137.2l0.561-0.042c0.348-0.025,0.521-0.212,0.521-0.56v-0.762l-4.292,0.317v2.166c0,0.348,0.187,0.508,0.562,0.48
		l6.058-0.447v3.37c0.026,0.987-0.495,1.507-1.564,1.56L225.396,143.392z M223.109,138.185c-0.055-0.478-0.201-1.015-0.441-1.612
		l1.283-0.095c0.268,0.515,0.454,1.049,0.563,1.603L223.109,138.185z"/>
</g>
<g enable-background="new    ">
	<path d="M182.71,157.293v-1.003l2.086-0.154l0.28-0.864l1.646-0.121l-0.321,0.866l5.055-0.373v1.003l-5.495,0.406
		c-0.269,0.662-0.709,1.417-1.324,2.265l1.806-0.133v-1.364l1.604-0.118v1.364l2.929-0.216v1.043l-2.929,0.216v1.323l3.651-0.27
		v1.043l-3.651,0.27v1.806l-1.604,0.118v-1.806l-3.973,0.293v-1.043l3.973-0.293v-1.323l-3.21,0.237v-1.043
		c0.508-0.786,0.909-1.538,1.204-2.256L182.71,157.293z"/>
	<path d="M193.061,163.871v-8.826l3.49-0.258v0.963c-0.08,0.809-0.32,1.602-0.722,2.38c0.507,0.524,0.762,1.147,0.762,1.87
		c0,1.391-0.669,2.135-2.005,2.234v-1.123c0.587-0.043,0.882-0.426,0.882-1.149c0.026-0.616-0.241-1.172-0.803-1.666
		c0.348-0.748,0.548-1.565,0.603-2.452l-0.924,0.068v7.863L193.061,163.871z M201.807,163.226c-1.445-0.776-2.421-1.854-2.929-3.234
		c-0.562,1.459-1.552,2.682-2.97,3.669v-1.083c0.83-0.998,1.391-1.988,1.686-2.973c0.321-0.986,0.481-2.295,0.481-3.927v-1.283
		l1.564-0.116v1.283c-0.106,2.951,0.615,5.144,2.167,6.581V163.226z"/>
	<path d="M203.049,156.153v-0.963l0.883-0.065v-1.244l1.365-0.101v1.244l0.762-0.056v0.963l-0.762,0.056v1.846l0.722-0.254v0.963
		c-0.081,0.033-0.188,0.082-0.321,0.144c-0.16,0.119-0.295,0.196-0.4,0.23v2.768c0,0.856-0.429,1.302-1.284,1.339l-0.843,0.063
		v-0.923l0.361-0.027c0.267-0.02,0.4-0.176,0.4-0.471v-2.246c-0.32,0.104-0.655,0.195-1.002,0.274v-1.203
		c0.347-0.079,0.682-0.144,1.002-0.195v-2.206L203.049,156.153z M206.219,158.447v-0.883c0.883-0.599,1.284-1.499,1.203-2.696
		l-1.162,0.086v-0.963l5.696-0.42v2.527c0.026,1.041-0.469,1.586-1.484,1.634l-1.043,0.077v-1.003l0.562-0.042
		c0.4-0.03,0.588-0.23,0.562-0.603v-1.524l-1.726,0.127C208.88,156.472,208.011,157.699,206.219,158.447z M206.34,162.61v-3.932
		l5.576-0.412v2.568c0.026,0.934-0.469,1.424-1.484,1.473L206.34,162.61z M207.743,161.625l2.207-0.163
		c0.401-0.03,0.588-0.231,0.562-0.604v-1.524l-2.769,0.205V161.625z"/>
	<path d="M214.082,155.058v-1.043l2.086-0.154v-0.923l1.565-0.115v0.923l2.046-0.151v1.003c0.294-0.342,0.588-0.751,0.883-1.229
		l1.725-0.127c-0.643,1.01-1.297,1.875-1.965,2.592l2.125-0.157v1.043l-3.289,0.243c-0.723,0.615-1.564,1.172-2.527,1.671v0.602
		c1.443-0.267,2.58-0.858,3.41-1.776l1.685-0.125c-0.99,1.598-2.688,2.512-5.095,2.743v0.24c-0.027,0.457,0.174,0.656,0.602,0.598
		l2.729-0.201c0.374-0.001,0.547-0.202,0.521-0.601v-0.32l1.243-0.092v0.521c0.026,0.881-0.429,1.341-1.364,1.384l-3.852,0.284
		c-1.016,0.102-1.512-0.316-1.484-1.253v-1.284c-0.215,0.069-0.562,0.202-1.043,0.398c-0.375,0.135-0.655,0.236-0.842,0.303v-1.003
		c1.578-0.571,2.889-1.216,3.932-1.935l-3.893,0.287v-1.043l2.889-0.213v-1.244L214.082,155.058z M219.779,154.638l-2.046,0.151
		v1.244l0.802-0.059C218.963,155.568,219.378,155.122,219.779,154.638z"/>
	<path d="M223.59,155.561v-1.003l6.779-0.5v1.003L223.59,155.561z M229.487,161.103v-0.963l0.803-0.059
		c0.401-0.003,0.587-0.217,0.562-0.643v-6.139l-6.9,0.509v-1.003l8.425-0.622v7.222c0.026,1.014-0.468,1.545-1.485,1.594
		L229.487,161.103z M224.271,160.083v-3.771l5.377-0.396v2.327c0.025,0.988-0.429,1.503-1.365,1.545L224.271,160.083z
		 M225.676,159.057l2.086-0.154c0.322-0.024,0.482-0.196,0.482-0.517v-1.444l-2.568,0.189V159.057z"/>
	<path d="M233.9,153.876v-0.963l0.963-0.071v-1.324l1.404-0.104v1.324l0.922-0.068v0.963l-0.882,0.065
		c0.187,0.815,0.508,1.581,0.963,2.296v1.323c-0.054-0.049-0.12-0.138-0.2-0.266c-0.268-0.274-0.535-0.588-0.803-0.944v4.573
		l-1.404,0.104v-3.852c-0.268,0.661-0.655,1.346-1.163,2.051v-1.444c0.562-1.271,0.936-2.516,1.123-3.733L233.9,153.876z
		 M236.829,160.681v-1.003c0.588-0.631,0.855-1.855,0.803-3.669v-4.213l3.972-0.293v7.262c0,0.214,0.106,0.313,0.32,0.297
		c0.16-0.012,0.241-0.125,0.241-0.339v-0.321l0.962-0.071v0.521c0.027,0.721-0.32,1.093-1.043,1.12l-0.762,0.056
		c-0.775,0.084-1.15-0.289-1.123-1.12v-6.339l-1.123,0.083v3.21C239.182,158.18,238.434,159.786,236.829,160.681z"/>
</g>
<g enable-background="new    ">
	<path d="M182.43,174.924v-0.922l3.771-0.278v-0.563l1.806-0.133v0.563l3.73-0.275v0.922L182.43,174.924z M182.83,182.558v-4.573
		l8.506-0.628v3.169c0.025,0.934-0.402,1.42-1.284,1.459l-1.124,0.083v-0.883l0.482-0.035c0.347,0.001,0.508-0.144,0.48-0.437
		v-2.326l-5.576,0.411v3.65L182.83,182.558z M183.713,177.438v-2.167l6.74-0.498v0.883c0.025,0.907-0.361,1.364-1.164,1.37
		L183.713,177.438z M184.957,181.479v-2.248l4.252-0.313v1.084c0.053,0.798-0.335,1.214-1.163,1.249L184.957,181.479z
		 M185.197,176.565l3.41-0.251c0.294,0.005,0.428-0.139,0.401-0.432v-0.24l-3.812,0.281V176.565z M186.24,180.621l1.284-0.096
		c0.294,0.006,0.427-0.151,0.401-0.47v-0.281l-1.686,0.124V180.621z"/>
	<path d="M192.82,174.92v-0.963l1.002-0.074v-1.324l1.364-0.101v1.324l0.843-0.062v0.963l-0.843,0.062
		c0.214,0.921,0.548,1.752,1.003,2.493v1.365c-0.4-0.452-0.735-0.896-1.003-1.331v4.453l-1.364,0.101v-3.852
		c-0.24,0.58-0.642,1.266-1.203,2.055v-1.404c0.535-1.135,0.923-2.395,1.164-3.776L192.82,174.92z M195.908,181.111v-0.924
		l6.18-0.455v0.922L195.908,181.111z M196.311,174.703V173.7l0.802-0.06c0-0.026-0.013-0.065-0.04-0.117
		c-0.08-0.395-0.135-0.752-0.16-1.071l1.363-0.101c0.027,0.266,0.081,0.609,0.161,1.031c0-0.054,0.013-0.001,0.04,0.157l1.163-0.086
		c0.134-0.438,0.214-0.845,0.241-1.221l1.363-0.101c-0.026,0.43-0.106,0.837-0.24,1.221l0.883-0.065v1.003L196.311,174.703z
		 M196.631,177.768v-1.003l4.895-0.361v1.003L196.631,177.768z"/>
	<path d="M203.25,173.749v-1.003l2.086-0.154l0.281-0.863l1.645-0.122l-0.32,0.867l5.055-0.373v1.003l-5.496,0.405
		c-0.268,0.662-0.709,1.417-1.324,2.265l1.805-0.133v-1.364l1.605-0.119v1.364l2.929-0.216v1.043l-2.929,0.216v1.324l3.65-0.27
		v1.043l-3.65,0.27v1.805l-1.605,0.119v-1.806l-3.971,0.293V178.3l3.971-0.293v-1.323l-3.209,0.236v-1.042
		c0.508-0.787,0.909-1.538,1.204-2.256L203.25,173.749z"/>
	<path d="M213.4,173.441v-1.043l3.73-0.275v-1.324l1.564-0.116v1.324l1.205-0.089v-1.083l1.443-0.106v1.083l1.083-0.08v1.043
		l-3.731,0.275v1.123c0.081,0.102,0.188,0.254,0.321,0.458c0.106,0.153,0.294,0.419,0.562,0.801c0.295-0.583,0.495-1.266,0.602-2.05
		l1.445-0.107c-0.107,0.757-0.348,1.457-0.723,2.1l-1.283,0.095c0.694,0.858,1.617,1.632,2.768,2.323v1.123
		c-1.604-0.737-2.836-1.569-3.691-2.496v1.846c0.027,1.068-0.521,1.63-1.645,1.687l-1.043,0.077v-0.963l0.482-0.035
		c0.453-0.008,0.668-0.251,0.641-0.73v-5.135L213.4,173.441z M213.4,179.379v-1.484c0.963-0.393,2.086-1.144,3.37-2.255v1.284
		C215.754,177.961,214.631,178.78,213.4,179.379z M214.885,175.819c-0.348-0.562-0.602-1.225-0.762-1.99l1.483-0.109
		c0.081,0.743,0.281,1.41,0.603,2.001L214.885,175.819z"/>
	<path d="M223.631,173.208v-0.883c0.962-0.445,1.617-1.148,1.965-2.111l1.484-0.109c-0.24,0.634-0.535,1.164-0.883,1.589v2.447
		l-1.443,0.107v-1.484C224.432,172.895,224.058,173.042,223.631,173.208z M223.711,179.58v-0.883c2.647-0.436,3.891-1.154,3.73-2.16
		v-0.802l1.605-0.118v0.801c-0.135,0.973,1.068,1.514,3.609,1.619v0.883c-2.032,0.07-3.49-0.197-4.373-0.8
		C227.375,178.855,225.85,179.343,223.711,179.58z M224.553,177.793v-3.169l7.342-0.542v3.169l-1.484,0.11v-2.207l-4.413,0.326
		v2.206L224.553,177.793z M226.88,172.688v-0.803c0.374-0.081,0.722-0.147,1.043-0.197v-1.646l1.484-0.11v1.364
		c0.802-0.299,1.39-0.718,1.765-1.253l1.445-0.107c-0.563,1.112-1.633,1.873-3.21,2.283c0,0.428,0.214,0.613,0.642,0.554
		l1.003-0.074c0.374,0,0.548-0.201,0.522-0.6v-0.281l1.162-0.086v0.522c0.055,0.905-0.414,1.368-1.403,1.387l-1.886,0.139
		c-1.017,0.103-1.524-0.315-1.524-1.251C227.602,172.608,227.254,172.66,226.88,172.688z"/>
</g>
</svg>
