<?xml version="1.0" encoding="utf-8"?>
<!-- Generator: Adobe Illustrator 16.0.0, SVG Export Plug-In . SVG Version: 6.00 Build 0)  -->
<!DOCTYPE svg PUBLIC "-//W3C//DTD SVG 1.1//EN" "http://www.w3.org/Graphics/SVG/1.1/DTD/svg11.dtd">
<svg version="1.1" id="图层_1" xmlns="http://www.w3.org/2000/svg" xmlns:xlink="http://www.w3.org/1999/xlink" x="0px" y="0px"
	 width="476.623px" height="481.577px" viewBox="0 0 476.623 481.577" enable-background="new 0 0 476.623 481.577"
	 xml:space="preserve">
<polyline fill-rule="evenodd" clip-rule="evenodd" fill="#EABE06" points="179.38,408.467 176.586,404.205 176.021,403.473 
	173.51,400.82 170.772,398.676 167.809,397.01 164.621,395.908 163.774,395.711 160.359,395.26 155.787,395.486 139.277,398.449 
	122.739,399.605 112.128,400.82 111.479,399.719 111.168,398.787 110.548,395.711 110.35,390.746 111.536,385.469 112.128,380.162 
	112.439,379.965 113.426,379.625 116.729,378.92 130.416,377.197 130.585,376.719 131.149,375.928 132.053,375.193 133.237,374.545 
	134.479,374.037 134.706,373.895 134.959,373.811 135.044,373.697 135.326,373.5 135.411,373.389 135.693,373.191 135.75,373.08 
	135.947,372.768 135.976,372.625 136.031,372.541 136.145,372.344 136.173,372.061 136.23,371.836 136.314,371.301 135.411,370.17 
	134.79,369.664 133.407,368.871 131.686,368.252 127.198,367.547 119.776,367.744 115.656,368.93 110.971,368.336 110.971,361.283 
	109.871,354.254 108.601,348.41 108.121,347.256 108.008,347.086 107.133,346.293 104.932,344.658 103.521,343.926 101.602,343.189 
	99.542,342.768 96.24,342.654 94.49,342.824 91.47,343.559 91.244,343.729 91.047,343.953 90.877,344.264 90.623,345.59 
	90.566,346.154 90.68,349.061 91.47,354.197 92.091,365.965 91.922,367.32 91.47,368.93 91.301,369.211 91.244,369.551 
	91.188,370.227 91.244,371.018 91.47,371.893 90.566,372.711 90.313,372.879 90.087,373.08 89.917,373.135 89.522,373.445 
	89.015,373.643 88.873,373.727 88.224,374.037 86.729,374.545 83.032,375.193 81.649,375.279 80.858,375.365 79.956,375.365 
	69.345,376.604 66.748,376.719 65.929,376.689 65.506,376.604 70.839,365.402 75.553,358.316 75.638,358.287 75.92,358.287 
	76.089,358.205 76.287,358.176 76.428,358.09 76.597,358.008 76.851,357.838 77.021,357.584 77.105,357.416 77.189,357.275 
	77.218,357.078 77.303,356.906 77.303,356.623 77.331,356.539 77.782,355.355 78.517,354.506 79.08,354.197 82.608,348.891 
	85.572,342.965 85.741,342.57 86.419,341.809 87.491,341.074 88.959,340.342 93.021,338.873 100.332,337.066 123.19,334.299 
	137.894,333.51 148.704,333.539 149.748,332.721 149.748,332.635 150.256,332.129 150.764,331.479 151.554,329.785 152.26,327.641 
	149.578,325.186 149.578,325.186 147.603,323.859 145.401,322.758 141.789,321.516 137.782,320.754 133.379,320.557 
	110.971,323.521 98.666,324.225 97.735,324.113 96.945,323.943 95.618,323.521 105.045,305.234 102.702,299.307 102.363,299.25 
	102.109,299.109 101.771,298.883 101.178,298.148 100.332,296.371 99.993,295.949 99.626,295.58 99.23,295.271 98.328,294.818 
	97.312,294.621 96.775,294.621 89.72,291.658 82.608,294 82.383,294.535 82.044,295.637 81.846,296.652 81.818,297.105 
	81.874,298.346 82.101,299.053 82.242,299.418 82.665,299.984 83.229,300.492 78.318,317.426 76.653,322.25 75.553,324.678 
	74.367,325.893 49.59,328.799 48.799,328.516 47.896,328.348 45.751,328.207 41.688,328.516 40.163,328.799 39.542,329.219 
	38.47,330.152 37.764,331.113 37.369,332.1 37.284,333.145 37.396,333.682 37.793,334.781 38.498,335.881 44.594,342.795 
	45.158,343.785 45.215,343.896 45.356,344.234 45.469,344.771 46.259,345.422 47.98,346.605 49.928,347.453 53.117,348.27 
	56.56,348.355 57.801,348.27 63.164,347.086 63.7,347 64.293,346.803 65.506,345.928 65.76,345.957 66.099,346.07 66.381,346.238 
	66.691,346.52 65.817,349.654 63.813,354.227 59.608,361.846 55.741,367.602 52.637,373.359 51.48,376.492 51.339,377.197 
	50.831,377.338 49.899,377.791 49.025,378.494 48.658,378.92 47.614,380.527 47.021,381.826 46.795,382.588 46.062,386.061 
	46.964,388.516 48.827,393.002 49.109,393.539 49.109,393.596 49.391,394.076 49.448,394.188 49.59,394.328 50.012,394.668 
	50.548,394.977 51.113,395.174 51.79,395.316 53.229,395.289 54.02,395.119 60.2,393.115 60.962,391.959 62.966,389.953 
	65.478,388.346 68.498,387.076 70.22,386.625 86.757,383.689 87.293,383.436 88.055,383.18 88.817,383.238 89.212,383.322 
	89.607,383.549 89.975,383.857 90.313,384.281 92.091,393.707 92.147,394.951 92.119,396.189 91.978,397.32 91.752,398.252 
	91.752,398.42 91.555,398.873 91.47,398.984 91.385,399.379 90.934,400.313 90.369,401.129 89.72,401.977 73.182,402.568 
	53.117,405.504 46.654,406.096 18.404,411.232 9.627,413.209 6.946,414.057 6.805,414.168 6.522,414.365 6.127,415.1 5.93,415.861 
	5.902,416.625 6.071,417.469 6.354,418.262 6.833,419.08 7.454,419.955 13.578,426.754 17.896,427.488 22.581,427.488 
	27.604,426.613 33.08,424.977 34.688,424.328 46.767,420.375 49.646,419.813 51.959,419.699 70.839,416.115 89.72,413.209 
	90.2,413.35 90.708,413.658 90.905,413.83 91.104,414.057 91.47,414.619 91.922,416.031 92.091,417.893 92.316,418.316 
	92.486,418.824 92.655,419.955 92.486,421.225 92.091,422.635 91.78,423.313 91.499,424.555 91.47,425.117 91.499,425.598 
	91.61,426.021 91.78,426.389 92.091,426.754 91.922,432.568 91.865,432.682 91.809,434.543 91.78,434.744 91.78,435.447 
	91.385,438.328 90.877,440.33 91.244,440.639 91.413,440.811 91.583,441.033 92.035,442.078 92.147,442.701 92.147,444.166 
	92.091,445.045 91.922,445.439 91.724,446.229 91.64,447.33 91.752,447.947 91.922,448.486 92.035,448.74 92.232,448.994 
	92.684,449.389 93.248,449.756 93.586,450.293 93.784,450.885 93.784,451.506 93.671,452.098 93.333,452.689 92.881,453.283 
	92.232,453.904 91.47,454.498 93.248,459.209 94.18,463.414 94.236,463.611 95.646,468.947 96.437,471.541 96.634,471.996 
	96.72,472.248 96.72,472.277 97.086,473.012 97.368,473.377 97.678,473.348 98.695,473.066 100.613,471.996 101.629,471.738 
	103.267,471.598 103.69,469.088 103.859,467.479 105.045,463.924 105.638,460.988 106.427,460.34 106.597,460.143 107.161,459.66 
	107.754,458.93 108.262,458.166 108.318,457.91 108.629,457.318 108.826,456.615 108.939,456.414 109.108,455.457 109.108,454.977 
	109.137,454.947 109.165,454.498 108.601,446.229 110.35,413.773 111.536,411.43 112.298,410.867 113.736,410.246 114.301,410.104 
	116.785,409.793 119.015,409.877 121.583,410.246 143.99,409.063 165.947,412.051 166.115,412.051 169.306,412.561 169.841,412.701 
	171.704,412.982 172.297,413.209 179.38,408.467 "/>
<g>
	<g>
		<polygon fill-rule="evenodd" clip-rule="evenodd" fill="#EABE06" points="461.752,53.937 458.125,49.367 453.736,45.231 
			452.973,55.133 451.666,57.238 450.361,59.74 450.143,60.393 449.889,60.902 449.309,62.896 449.201,64.203 442.379,76.354 
			418.873,80.126 396.855,77.878 382.164,69.39 379.842,67.721 379.443,67.25 379.443,50.563 379.516,50.563 380.422,50.854 
			383.506,51.469 385.539,51.507 387.568,51.289 391.486,49.946 392.393,49.402 392.611,49.221 393.41,48.857 395.369,47.515 
			396.021,47.733 398.234,47.951 398.996,47.805 401.607,46.973 404.402,45.231 409.805,40.696 427.217,27.057 427.217,26.803 
			427.254,26.768 427.326,26.514 427.436,25.969 427.436,25.423 427.398,25.244 427.398,24.881 427.254,24.374 427.254,24.228 
			427.035,23.575 426.455,22.305 426.455,22.269 424.932,19.947 424.352,19.186 421.123,15.666 414.34,11.133 406.76,7.323 
			405.525,7.976 405.453,8.048 402.441,9.61 400.664,10.37 400.773,10.805 400.773,10.878 401.535,13.745 401.971,16.392 
			401.971,17.407 401.898,17.516 401.898,18.315 401.717,18.968 401.426,19.476 401.861,19.765 402.551,20.02 403.422,20.164 
			404.473,20.236 404.617,20.236 404.801,20.346 404.871,20.418 404.98,20.6 405.127,21.071 405.199,21.759 383.979,42.22 
			379.443,42.22 379.045,41.966 378.463,41.386 378.102,40.623 377.957,39.68 377.957,39.173 378.32,38.484 378.791,37.359 
			379.986,33.658 383.252,20.236 372.623,12.619 367.329,10.37 366.566,9.646 365.006,8.665 363.482,8.303 362.721,8.34 
			361.922,8.52 361.234,8.847 360.726,9.464 360.109,9.971 359.239,10.225 358.223,10.37 357.788,10.37 356.917,10.516 
			356.482,10.734 355.974,10.916 354.922,11.531 354.413,11.894 354.486,12.147 354.813,12.838 356.663,15.268 362.54,21.58 
			363.447,22.958 364.424,24.917 364.862,26.294 364.97,28.943 364.28,31.591 364.28,32.462 364.535,33.876 364.862,34.421 
			365.152,34.82 365.514,35.146 365.987,35.328 366.566,35.399 366.566,36.162 366.131,36.308 365.95,36.416 365.805,36.742 
			365.514,37.032 365.006,38.446 364.28,50.563 364.063,50.745 364.027,50.926 364.063,51.507 364.171,51.761 364.389,52.086 
			365.006,52.813 362.757,59.668 365.006,68.011 365.006,77.878 365.441,78.603 367,80.126 368.525,81.251 368.959,81.687 
			369.541,82.558 369.685,83.03 369.721,83.573 369.614,84.661 385.793,88.87 397.58,90.937 413.396,91.662 415.828,91.518 
			416.59,89.995 433.275,91.518 434.074,89.995 445.391,88.725 455.258,86.548 459.576,85.098 465.451,82.485 466.939,81.578 
			467.193,81.505 467.375,81.324 470.457,79.366 468.172,71.784 467.156,65.98 465.379,60.539 461.752,53.937 		"/>
		<path fill-rule="evenodd" clip-rule="evenodd" fill="#EABE06" d="M380.857,90.539l-2.9,0.216l-12.951,0.763l-6.022,1.487
			l-6.855,0.799l-0.254,0.29l-0.217,0.326l-0.182,0.146l-0.364,0.509l-0.688,0.507l-0.218,0.072l-0.544,0.399l-0.254,0.036
			l-0.689,0.254l-0.799,0.181l-0.181,0.073l-1.161,0.146h-0.617l-0.036,0.036l-1.886,0.036l-2.177,0.256l-1.706,0.615l-0.689,0.399
			l-0.544,0.471l-0.435,0.544l-13.676,3.048l-2.249-8.343l2.758-8.706l0.071-1.743l-0.434-1.668l-0.4-0.833l-0.471-0.727
			l1.523-0.761l-0.109-0.436l-0.109-0.327l-0.108-0.144l-0.036-0.072l-0.436-0.509l0.834-2.576l0.146-0.835l0.181-1.669v-0.797
			l-0.181-1.633l-0.4-1.597l-0.326-0.762l-1.741-3.046l-9.105-9.831v-2.321l4.571-3.774l3.772-3.808l0.799-1.198l5.259-6.204
			l0.58-1.269l0.219-1.162l10.592-3.808l-0.182-2.104l-0.398-1.706l-0.363-0.725l-0.363-0.617l-0.471-0.508l-0.472-0.363
			l-6.167-6.819l-6.456-5.262l-5.66-3.372l-7.073-2.794l-4.86-1.088l-6.24-0.399l-0.327,0.217l-0.144,0.11l-0.074,0.617l0.399,1.16
			l0.436,0.725l1.27,1.705l0.581,0.328l1.088,0.871l0.87,1.014l0.58,1.125l0.254,0.655l0.255,1.268l0.036,1.415l-2.938,13.821
			l-9.068,12.878l-6.095,6.819l-6.057,5.297l0.109,1.014l-0.109,0.436l-0.218,0.436l-0.399,0.327h-0.108v0.072l-0.109,0.072
			l-0.218,0.182l-1.232,0.509l-0.727,0.182l-1.196,0.544l-0.725,0.761l-0.218,0.473l-0.109,0.471l-0.072,0.616l0.145,0.4v0.144
			l0.036,0.071l0.182,0.655l0.037,0.434l-0.146,0.763l-0.253,0.617v0.109l-0.507,0.615l-0.618,0.545l-0.871,0.471l-1.015,0.471
			l-1.125,0.328l-1.597,0.942l-0.943,1.124l-0.218,0.689l-0.071,0.69l0.18,0.761l0.798,0.29l1.052,0.256l3.482,0.325l0.906,0.253
			l2.105,1.161l10.629-8.053l4.934-3.045l1.595-0.727l0.436-0.253l2.141-0.689l0.726-0.146l0.326-0.725l0.871-1.198l0.944-0.725
			l0.507-0.218l0.544-0.109l0.616-0.037v0.327l0.072,0.398l0.254,0.763l0.472,0.761l0.69,0.762l0.325,0.436l0.254,0.689l0.109,0.87
			l0.072,1.052l1.124,4.391l0.4,4.86l-0.4,5.367l-1.124,5.841l0.761,0.437l1.525,1.558l0.761,1.053l-0.942,0.217l-0.799,0.4
			l-0.725,0.471l-1.161,1.306l-0.616,1.27l-0.327,1.633l2.322,5.332l0.507,3.81l0.219,0.76l10.592,9.832l0.146-0.363l0.145-0.144
			l0.58-0.182l1.416-0.073l0.217,0.437l0.108,0.18l0.218,0.146l0.399,0.181h0.544l0.616-0.181l0.726-0.326l0.799-0.509l0.435-0.363
			l0.508-0.29l1.234,7.4l0.29,1.306l0.108,1.306v0.763l0.036,0.253l-0.036,0.182v0.508l-0.073,0.217l-0.036,0.182l0.073,0.761
			l0.109,0.29l0.327,0.473l0.398,0.543l1.161,0.871l1.741,0.87l-0.761,0.4l-0.617,0.509l-0.508,0.615l-0.399,0.761l-0.399,1.088
			l-1.125,1.923l1.524,2.286l-1.524,12.877v27.314l-9.867,4.536l-17.448,2.248l-0.399,0.181l-0.253,0.254l-0.218,0.327l-0.181,0.763
			l0.108,0.942l0.218,0.579l10.592,1.526l21.983,0.762l-1.523,3.3l-1.56,2.357l-0.254,0.254l-0.072,0.109l-0.254,0.437l-4.244,4.099
			l-0.145,0.217l-16.179,13.495l-0.653,1.014l-1.125,0.871l-0.761,0.327l-0.437,0.146l-0.362,0.145l-2.031,0.544l-0.907,0.327
			l-1.379,0.942l-0.943,1.125l-0.327,0.688l-0.145,0.653l-0.072,0.8l0.326,0.143l0.218,0.219l0.109,0.254l0.072,0.327l-0.181,0.579
			l-0.543,0.727h-0.218l-0.146,0.181v0.4l0.146,0.58l0.218,0.398l3.736-0.688l0.399-0.146h0.145l0.616-0.072l4.027-1.016l3.047-1.27
			h0.109l2.358-1.344l0.327,0.292l0.436,0.216l0.906,0.221l0.979-0.221l1.125-0.508l0.398-0.325l0.544-0.073h0.253l0.327,0.073
			l0.726,0.325l6.856-2.319l0.908-0.546l1.74-0.652l1.742-0.181l0.834,0.108l1.16,0.326l0.436,0.218l7.944-6.455l0.581-0.617
			l1.415-1.233l0.508-0.546l0.109-0.181l0.036-0.073l1.124-0.217l1.124-0.579l1.124-0.98l1.198-1.268l11.354-6.822l-0.507-0.798
			l-0.036-0.108l-3.193-3.663l-0.653-1.488l-1.088-1.344l-1.559-1.341l-8.888-4.897l9.141-3.046l9.83-1.488l0.763-0.579l1.995-0.873
			l2.466-0.615l14.51-0.252l0.217,0.47l0.146,0.217l0.217,0.254l0.473,0.292l0.615,0.287l0.689,0.147h1.85l1.127-0.147l1.559,3.701
			l1.016,2.902l0.072,0.255l0.254,0.87l0.145,0.943v0.327l0.074,0.363l-0.109,0.508l-1.74-0.219l-0.764-0.218l-0.107-0.038h-0.109
			l-1.088-0.287l-0.291-0.399l-0.291-0.22l-0.471-0.144l-0.471-0.037l-1.344,0.181l-0.797,0.22l-0.871,0.399l0.436,0.145
			l0.326,0.252l0.145,0.327v0.363l-0.18,0.399l-0.328,0.47l-1.16,1.054l18.973,18.97h0.506l0.945,0.254l0.76,0.619l0.291,0.363
			l1.596,3.444l0.762,1.09l0.436,0.47l0.762,0.617h-0.762l0.51,1.052l0.361,0.473l0.943,0.942l0.58,0.472l3.301,1.886l0.943,0.762
			l0.689,0.798l0.254,0.4l0.363-0.546l0.943-0.762l0.58-0.216l0.545-0.146l0.652-0.035l0.688,0.035l0.764,0.181l1.377,0.907h0.037
			l0.58,0.29h0.074l0.578,0.291l0.51,0.146l0.506,0.035l0.109-0.035h0.363l0.436-0.146l0.725-0.762h-0.725l-0.363-0.437
			l-0.217-0.363l-0.146-0.47l-0.035-0.437l0.035-0.507l0.363-1.016l0.363-0.544l-0.363-0.254l-0.617-0.545l-0.398-0.763
			l-0.146-0.942l-0.035-1.123l-0.146-0.473l-0.434-0.835l-0.326-0.398l-0.398-0.29l-0.473-0.254l-0.471-0.181l0.145-0.437
			l0.145-0.398l0.182-0.763v-0.835l-0.037-0.435l-0.035-0.107v-0.29l-0.689-1.742l-0.254-0.398l-0.037-0.073l-0.906-1.344
			l-3.047-6.056l-0.98-1.45l-0.652-0.69l-0.689-0.58l-2.684-1.488l-5.441-2.104l-1.486-0.979l-0.545-0.544l-0.398-0.508
			l-0.146-0.725l0.109-0.652l0.254-0.582l0.762-0.579l1.234-0.329l2.32-0.179l0.037-1.198l0.361-2.248l0.363-1.09l0.727-7.582
			l-0.328-1.486l-0.289-2.573l0.145-2.105l0.326-0.873l0.363-0.725l0.58-0.579l-0.797-5.334l0.217-0.869l-0.037-1.053l-0.145-0.582
			l-0.762-2.028l0.58-0.51l0.109-0.252l0.072-0.037l0.145-0.363l0.037-0.834l-0.217-1.016l-0.219-0.435l-0.145-0.908v-0.943
			l0.145-1.016l0.219-0.506l-0.109-0.906l-0.254-1.056l-1.125-2.609l0.037-0.835l0.361-1.886l0.363-1.088l0.727-6.783l-0.363-0.254
			l-0.363-0.327l-0.326-0.363l-0.834-1.558l-0.363-1.308l0.109-0.761l0.109-1.487l-0.182-1.306l-0.799-1.778l3.012-0.762
			l-0.727-1.486l0.727-0.98l0.797-1.306l-0.652-1.524l-0.291-1.487l-0.072-0.797l0.182-1.416l0.436-1.378l0.398-0.691l2.213-2.755
			l1.596-1.307l-0.326-1.27l-0.869-2.394l-1.488-2.25l-1.922-2.177l-2.467-2.103l-4.68-2.938l-7.98-3.591l-2.25-1.306l-1.307-0.473
			l-2.248-0.471L380.857,90.539L380.857,90.539z M376.904,104.323l1.559-0.217l1.307,0.072l1.088,0.437l0.436,0.288l0.326,0.363
			l0.291,0.472l0.219,0.473l0.326,1.232l0.797,10.629l0.254,4.499l0.617,2.466l0.834,1.994l0.582,0.873l0.436,1.195l0.07,1.416
			l-0.436,1.632l-0.869,1.849l-0.508,0.653l-0.473,1.017l-0.035,0.325l0.035,0.619l0.182,0.507l0.326,0.507l0.508,0.471l0.764,0.436
			l0.725,9.104l0.506,2.829v0.908l0.039,0.325v1.234l-0.182,1.088l-0.074,0.216l-0.18,0.765l-0.398,0.904l-0.436,0.837l0.725,4.532
			l0.182,1.09l-0.037,0.98l-0.109,0.435l-0.109,0.071h-0.035v0.146l-0.072,0.254l-0.543,0.796l0.543,0.363l0.217,0.145l0.109,0.292
			l0.037,0.145v0.183l-0.182,0.435l-1.088-0.145l-0.871-0.254l-0.363-0.254l-0.508-0.546l-0.182-0.363h-15.923l-0.69-0.107
			l-2.321-0.035l-0.471,0.071l-1.705,0.579l-0.69,0.473l-0.544,0.615l-0.436,0.726l-0.435-0.216l-1.269-0.327l-0.943-0.109
			l-2.647,0.254l-1.814,0.581l-1.233,0.544l-2.104,0.437l-1.705-0.256l-0.725-0.397l-0.326-0.254l-0.255-0.254l-0.58-0.69
			l-0.362-0.833l-0.762-3.048l0.108-0.796l0.254-0.764l0.471-0.762l0.291-0.399l0.398-0.325l-1.522-2.286l-1.524,0.798l0.327-0.398
			l0.799-0.326l0.398-0.073l-0.762-1.923l-0.435-0.69l-0.327-0.396l35.659-6.058l1.488-2.287l-0.328-0.615l-0.398-0.51l-0.979-0.906
			l-1.234-0.799l-0.689-0.362l-1.596-0.545l-1.887-0.436l-5.767-0.399l-21.982,4.571v-11.354l21.258-3.047l10.628-6.094
			l-0.836-1.087l-1.85-1.706l-1.523-0.907l-1.125-0.436l-1.777-0.328l-7.98-0.071l-1.306,0.182l-1.56,0.363l-10.918,3.99
			l-1.307-0.182l-0.58-0.253l-0.363-0.328l0.327-0.725l0.761-1.16l0.437-0.364l-1.161-2.176l-2.865-4.1l-7.364-8.125l0.436-0.11
			l1.306-0.109l1.488,0.182l0.58,0.219l0.29,0.108l0.508,0.399l0.727,0.834l12.115-3.047l0.69,0.11l0.762,0.034l1.523-0.144
			l1.56-0.617l1.523-0.907h13.675l0.98-0.363L376.904,104.323L376.904,104.323z"/>
	</g>
</g>
</svg>
