<?xml version="1.0" encoding="utf-8"?>
<!-- Generator: Adobe Illustrator 16.0.0, SVG Export Plug-In . SVG Version: 6.00 Build 0)  -->
<!DOCTYPE svg PUBLIC "-//W3C//DTD SVG 1.1//EN" "http://www.w3.org/Graphics/SVG/1.1/DTD/svg11.dtd">
<svg version="1.1" id="图层_1" xmlns="http://www.w3.org/2000/svg" xmlns:xlink="http://www.w3.org/1999/xlink" x="0px" y="0px"
	 width="381.999px" height="375.332px" viewBox="0 0 381.999 375.332" enable-background="new 0 0 381.999 375.332"
	 xml:space="preserve">
<g>
	<g>
		<path fill="#F2572E" stroke="#000000" stroke-width="2" stroke-miterlimit="10" d="M376.868,36.136l-15.041-15.053
			c-0.416-0.418-1.092-0.418-1.508,0l-20.387,20.396c-0.105,0.104-0.183,0.227-0.235,0.355l-2.189,2.189
			c-0.537,0.535-0.537,1.406,0,1.943s1.408,0.537,1.944,0l1.729-1.729l8.456,8.461l-2.735,2.734c-0.537,0.537-0.537,1.408,0,1.945
			s1.408,0.535,1.944,0l2.734-2.734l2.166,2.168l-6.504,6.504c-0.537,0.535-0.537,1.406,0,1.943s1.408,0.537,1.944,0l7.071-7.07
			c0.076-0.045,0.158-0.082,0.224-0.148l20.385-20.396C377.286,37.228,377.286,36.552,376.868,36.136z"/>
		<path fill="#F2572E" stroke="#000000" stroke-width="2" stroke-miterlimit="10" d="M342.609,67.952l-1.401,1.4
			c-0.537,0.537-0.537,1.408,0,1.945s1.408,0.535,1.944,0l1.401-1.402c0.537-0.537,0.537-1.406,0-1.943
			S343.146,67.415,342.609,67.952z"/>
		<path fill="#F2572E" stroke="#000000" stroke-width="2" stroke-miterlimit="10" d="M332.874,48.659l-0.554,0.553
			c-0.537,0.537-0.537,1.408,0,1.945s1.408,0.535,1.944,0l0.554-0.555c0.537-0.537,0.537-1.406,0-1.943
			S333.41,48.122,332.874,48.659z"/>
	</g>
	<g>
		<path fill="none" stroke="#000000" stroke-width="2" stroke-miterlimit="10" d="M360.005,21.396l-0.771,0.773l2.816,12.674
			c0.107,0.482,0.586,0.961,1.068,1.068l12.664,2.82l0.773-0.773"/>
	</g>
</g>
<g>
	<g>
		<path fill="#F2572E" stroke="#000000" stroke-width="2" stroke-miterlimit="10" d="M48.316,296.336l-15.041-15.053
			c-0.417-0.418-1.093-0.418-1.509,0L11.38,301.68c-0.105,0.104-0.183,0.227-0.235,0.355l-2.189,2.189
			c-0.537,0.535-0.537,1.406,0,1.943s1.408,0.537,1.944,0l1.729-1.729l8.456,8.461l-2.735,2.734c-0.537,0.537-0.537,1.408,0,1.945
			s1.408,0.535,1.944,0l2.734-2.734l2.166,2.168l-6.504,6.504c-0.537,0.535-0.537,1.406,0,1.943s1.408,0.537,1.944,0l7.071-7.07
			c0.077-0.045,0.158-0.082,0.224-0.148l20.386-20.396C48.733,297.428,48.733,296.752,48.316,296.336z"/>
		<path fill="#F2572E" stroke="#000000" stroke-width="2" stroke-miterlimit="10" d="M14.056,328.152l-1.401,1.4
			c-0.537,0.537-0.537,1.408,0,1.945s1.408,0.535,1.944,0L16,330.096c0.537-0.537,0.537-1.406,0-1.943
			S14.593,327.615,14.056,328.152z"/>
		<path fill="#F2572E" stroke="#000000" stroke-width="2" stroke-miterlimit="10" d="M4.321,308.859l-0.554,0.553
			c-0.537,0.537-0.537,1.408,0,1.945s1.408,0.535,1.944,0l0.554-0.555c0.537-0.537,0.537-1.406,0-1.943S4.857,308.322,4.321,308.859
			z"/>
	</g>
	<g>
		<path fill="none" stroke="#000000" stroke-width="2" stroke-miterlimit="10" d="M31.453,281.596l-0.772,0.773l2.817,12.674
			c0.107,0.482,0.585,0.961,1.067,1.068l12.666,2.82l0.773-0.773"/>
	</g>
</g>
<g>
	<g>
		<path fill="#F2572E" stroke="#000000" stroke-width="2" stroke-miterlimit="10" d="M365.2,132.278l-15.041-15.053
			c-0.418-0.418-1.094-0.418-1.51,0l-20.386,20.396c-0.105,0.104-0.183,0.227-0.235,0.355l-2.189,2.189
			c-0.537,0.535-0.537,1.406,0,1.943s1.408,0.537,1.944,0l1.729-1.729l8.456,8.461l-2.735,2.734c-0.537,0.537-0.537,1.408,0,1.945
			s1.408,0.535,1.944,0l2.734-2.734l2.166,2.168l-6.504,6.504c-0.537,0.535-0.537,1.406,0,1.943s1.408,0.537,1.944,0l7.071-7.07
			c0.077-0.045,0.158-0.082,0.224-0.148l20.386-20.396C365.616,133.37,365.616,132.694,365.2,132.278z"/>
		<path fill="#F2572E" stroke="#000000" stroke-width="2" stroke-miterlimit="10" d="M330.94,164.094l-1.401,1.4
			c-0.537,0.537-0.537,1.408,0,1.945s1.408,0.535,1.944,0l1.401-1.402c0.537-0.537,0.537-1.406,0-1.943
			S331.477,163.557,330.94,164.094z"/>
		<path fill="#F2572E" stroke="#000000" stroke-width="2" stroke-miterlimit="10" d="M321.205,144.801l-0.554,0.553
			c-0.537,0.537-0.537,1.408,0,1.945s1.408,0.535,1.944,0l0.554-0.555c0.537-0.537,0.537-1.406,0-1.943
			S321.741,144.264,321.205,144.801z"/>
	</g>
	<g>
		<path fill="none" stroke="#000000" stroke-width="2" stroke-miterlimit="10" d="M348.337,117.538l-0.772,0.773l2.818,12.674
			c0.106,0.482,0.584,0.961,1.066,1.068l12.666,2.82l0.773-0.773"/>
	</g>
</g>
<g>
	<path fill="#E5DA73" stroke="#000000" stroke-width="6" stroke-miterlimit="10" d="M295.818,215.597l34.871-81.261l0.184-0.727
		c-4.747-2.034-6.71-7.432-4.673-12.183c2.039-4.75,7.347-7.028,12.095-4.989l0.354-0.647l5.486-12.787
		c3.682-8.576-0.287-18.516-8.865-22.202l-38.025-16.316h-7.227V217.47L295.818,215.597"/>
	<g>
		<g>
			
				<line fill="none" stroke="#000000" stroke-width="3" stroke-linecap="round" stroke-miterlimit="10" x1="324.358" y1="120.821" x2="321.602" y2="119.638"/>
			
				<line fill="none" stroke="#000000" stroke-width="3" stroke-linecap="round" stroke-miterlimit="10" stroke-dasharray="7.0509,8.226" x1="314.042" y1="116.395" x2="303.782" y2="111.993"/>
			
				<line fill="none" stroke="#000000" stroke-width="3" stroke-linecap="round" stroke-miterlimit="10" x1="300.002" y1="110.372" x2="297.246" y2="109.188"/>
		</g>
	</g>
</g>
<g>
	<path fill="#E5DA73" stroke="#000000" stroke-width="6" stroke-miterlimit="10" d="M107.154,215.597l-34.871-81.261L72.1,133.61
		c4.747-2.034,6.71-7.432,4.673-12.183c-2.039-4.75-7.347-7.028-12.095-4.989l-0.354-0.647l-5.486-12.787
		c-3.682-8.576,0.287-18.516,8.865-22.202l38.025-16.316h7.227V217.47L107.154,215.597"/>
	<g>
		<g>
			
				<line fill="none" stroke="#000000" stroke-width="3" stroke-linecap="round" stroke-miterlimit="10" x1="78.614" y1="120.821" x2="81.371" y2="119.638"/>
			
				<line fill="none" stroke="#000000" stroke-width="3" stroke-linecap="round" stroke-miterlimit="10" stroke-dasharray="7.0509,8.226" x1="88.93" y1="116.395" x2="99.19" y2="111.993"/>
			
				<line fill="none" stroke="#000000" stroke-width="3" stroke-linecap="round" stroke-miterlimit="10" x1="102.97" y1="110.372" x2="105.727" y2="109.188"/>
		</g>
	</g>
</g>
<g>
	
		<line fill="none" stroke="#F91C32" stroke-width="3" stroke-linecap="round" stroke-miterlimit="10" x1="285.087" y1="9.936" x2="285.087" y2="18.242"/>
	
		<line fill="none" stroke="#F91C32" stroke-width="3" stroke-linecap="round" stroke-miterlimit="10" x1="289.24" y1="14.089" x2="280.934" y2="14.089"/>
</g>
<circle fill="none" stroke="#219AF4" stroke-width="3" stroke-linecap="round" stroke-miterlimit="10" cx="268.083" cy="31.702" r="4.318"/>
<circle fill="none" stroke="#22F222" stroke-width="3" stroke-linecap="round" stroke-miterlimit="10" cx="148.3" cy="31.702" r="4.318"/>
<circle fill="none" stroke="#22F222" stroke-width="3" stroke-linecap="round" stroke-miterlimit="10" cx="229.438" cy="31.702" r="4.318"/>
<path fill="#B7270F" stroke="#000000" stroke-width="6" stroke-miterlimit="10" d="M337.358,231.242
	c0,74.883-60.704,135.588-135.589,135.588s-135.59-60.705-135.59-135.588c0-74.886,60.705-135.591,135.59-135.591
	S337.358,156.356,337.358,231.242z"/>
<path fill="#F2572E" stroke="#000000" stroke-width="6" stroke-miterlimit="10" d="M295.045,289.045
	c0,4.697-3.807,8.504-8.504,8.504H116.995c-4.696,0-8.504-3.807-8.504-8.504V59.253c0-4.697,3.808-8.504,8.504-8.504h169.547
	c4.697,0,8.504,3.808,8.504,8.504V289.045z"/>
<path fill="#F93121" stroke="#000000" stroke-width="6" stroke-miterlimit="10" d="M337.358,231.242
	c0,74.883-60.704,135.588-135.589,135.588c-38.953,0-74.069-16.426-98.8-42.727c89.408-68.189,150.742-112.856,216.989-159.364
	C331.037,184.388,337.358,207.077,337.358,231.242z"/>
<path fill="#F93121" stroke="#000000" stroke-width="6" stroke-miterlimit="10" d="M66.179,230.559
	c0,74.884,60.704,135.589,135.589,135.589c38.953,0,74.069-16.426,98.8-42.729C211.16,255.23,149.827,210.565,83.58,164.057
	C72.5,183.706,66.179,206.394,66.179,230.559z"/>
<g>
	<path fill="none" stroke="#000000" stroke-width="6" stroke-miterlimit="10" d="M108.491,62.78v8.71l87.264,55.505
		c3.321,2.112,8.706,2.112,12.027,0l87.264-55.505v-8.71"/>
</g>
<g>
	<g>
		<path fill="#F2572E" stroke="#000000" stroke-width="2" stroke-miterlimit="10" d="M115.344,293.318l-15.041-15.053
			c-0.417-0.418-1.093-0.418-1.509,0l-20.386,20.396c-0.105,0.104-0.183,0.227-0.235,0.355l-2.189,2.189
			c-0.537,0.535-0.537,1.406,0,1.943s1.408,0.537,1.944,0l1.729-1.729l8.456,8.461l-2.735,2.734c-0.537,0.537-0.537,1.408,0,1.945
			s1.408,0.535,1.944,0l2.734-2.734l2.166,2.168l-6.504,6.504c-0.537,0.535-0.537,1.406,0,1.943s1.408,0.537,1.944,0l7.071-7.07
			c0.077-0.045,0.158-0.082,0.224-0.148l20.386-20.396C115.761,294.41,115.761,293.734,115.344,293.318z"/>
		<path fill="#F2572E" stroke="#000000" stroke-width="2" stroke-miterlimit="10" d="M81.084,325.135l-1.401,1.4
			c-0.537,0.537-0.537,1.408,0,1.945s1.408,0.535,1.944,0l1.401-1.402c0.537-0.537,0.537-1.406,0-1.943
			S81.621,324.598,81.084,325.135z"/>
		<path fill="#F2572E" stroke="#000000" stroke-width="2" stroke-miterlimit="10" d="M71.349,305.842l-0.554,0.553
			c-0.537,0.537-0.537,1.408,0,1.945s1.408,0.535,1.944,0l0.554-0.555c0.537-0.537,0.537-1.406,0-1.943
			S71.885,305.305,71.349,305.842z"/>
	</g>
	<g>
		<path fill="none" stroke="#000000" stroke-width="2" stroke-miterlimit="10" d="M98.481,278.578l-0.772,0.773l2.817,12.674
			c0.107,0.482,0.585,0.961,1.067,1.068l12.666,2.82l0.773-0.773"/>
	</g>
</g>
<g>
	
		<line fill="none" stroke="#FCF238" stroke-width="3" stroke-linecap="round" stroke-miterlimit="10" x1="135.503" y1="49.944" x2="135.503" y2="58.25"/>
	
		<line fill="none" stroke="#FCF238" stroke-width="3" stroke-linecap="round" stroke-miterlimit="10" x1="139.656" y1="54.097" x2="131.35" y2="54.097"/>
</g>
<g>
	
		<line fill="none" stroke="#3AF9CB" stroke-width="3" stroke-linecap="round" stroke-miterlimit="10" x1="199.822" y1="3.505" x2="199.822" y2="11.812"/>
	
		<line fill="none" stroke="#3AF9CB" stroke-width="3" stroke-linecap="round" stroke-miterlimit="10" x1="203.975" y1="7.659" x2="195.669" y2="7.659"/>
</g>
</svg>
