<?xml version="1.0" encoding="utf-8"?>
<!-- Generator: Adobe Illustrator 16.0.0, SVG Export Plug-In . SVG Version: 6.00 Build 0)  -->
<!DOCTYPE svg PUBLIC "-//W3C//DTD SVG 1.1//EN" "http://www.w3.org/Graphics/SVG/1.1/DTD/svg11.dtd">
<svg version="1.1" id="图层_1" xmlns="http://www.w3.org/2000/svg" xmlns:xlink="http://www.w3.org/1999/xlink" x="0px" y="0px"
	 width="323.333px" height="406.666px" viewBox="0 0 323.333 406.666" enable-background="new 0 0 323.333 406.666"
	 xml:space="preserve">
<ellipse opacity="0.91" fill="#D8B007" cx="172.08" cy="373.376" rx="55.822" ry="8.824"/>
<ellipse fill="#BF9B02" cx="172.08" cy="371.298" rx="22.927" ry="3.967"/>
<ellipse opacity="0.91" fill="#D8B007" cx="298.863" cy="341.661" rx="19.526" ry="3.087"/>
<ellipse fill="#BF9B02" cx="298.863" cy="340.935" rx="8.02" ry="1.388"/>
<g>
	<path fill="none" d="M308.009,143.422c0-74.886-60.704-135.591-135.589-135.591S36.83,68.536,36.83,143.422
		c0,28.166,8.59,54.325,23.292,76.004l221.889,3.835C298.355,200.863,308.009,173.272,308.009,143.422z"/>
	<path fill="none" d="M64.381,225.349l-3.509-4.84C62.008,222.148,63.177,223.763,64.381,225.349z"/>
	<path fill="#00284F" d="M86.703,256.135l79.26,109.317c3.615,3.612,9.472,3.609,13.083,0l79.474-109.608
		c-24.593,18.915-54.556,29.167-86.099,29.167C141.04,285.011,111.225,274.863,86.703,256.135z"/>
	<path fill="#FED10C" d="M60.086,219.425l0.786,1.084c-0.25-0.361-0.504-0.72-0.751-1.083L60.086,219.425z"/>
</g>
<g>
	<path fill="#032F54" stroke="#000000" stroke-width="6" stroke-miterlimit="10" d="M76.87,22.443h1.082
		c4.013,0,7.267-3.253,7.267-7.267c0-4.013-3.253-7.267-7.267-7.267H76.87c-4.013,0-7.267,3.253-7.267,7.267
		C69.604,19.19,72.857,22.443,76.87,22.443z"/>
	<path fill="#032F54" stroke="#000000" stroke-width="6" stroke-miterlimit="10" d="M38.097,51.51h1.082
		c4.013,0,7.267-3.252,7.267-7.267c0-4.013-3.253-7.267-7.267-7.267h-1.082c-4.013,0-7.267,3.253-7.267,7.267
		C30.83,48.258,34.083,51.51,38.097,51.51z"/>
	<g>
		<path fill="#00284F" d="M172.42,281.011c-75.867,0-137.59-61.722-137.59-137.589c0-27.335,8.024-53.741,23.213-76.403h20.446
			c4.559,0,8.267-3.709,8.267-8.268c0-4.313-3.371-7.932-7.674-8.239L68.929,50.51c-3.456,0-6.267-2.811-6.267-6.267
			s2.811-6.267,6.267-6.267h68.391l0.103-0.022c3.785-0.81,6.532-4.208,6.532-8.082c0-4.559-3.708-8.267-8.267-8.267h-29.48
			c-0.186-0.032-0.313-0.074-0.458-0.121c-0.117-0.038-0.242-0.077-0.393-0.119c-3.111-0.537-5.299-3.132-5.299-6.191
			c0-3.456,2.811-6.267,6.267-6.267h37.18l0.104-0.022c9.47-2.028,19.164-3.056,28.812-3.056
			c75.867,0,137.589,61.723,137.589,137.591C310.009,219.289,248.287,281.011,172.42,281.011z"/>
		<path fill="#FED10C" d="M172.42,6.831c75.315,0,136.589,61.274,136.589,136.591c0,75.315-61.273,136.589-136.589,136.589
			c-75.316,0-136.59-61.273-136.59-136.589c0-26.958,7.862-53.006,22.749-75.403h19.911c5.11,0,9.267-4.157,9.267-9.268
			c0-4.835-3.779-8.893-8.603-9.236l-0.071-0.005h-0.071H68.929c-2.904,0-5.267-2.363-5.267-5.267s2.363-5.267,5.267-5.267h68.285
			h0.211l0.207-0.044c4.243-0.907,7.322-4.717,7.322-9.059c0-5.11-4.157-9.267-9.267-9.267h-29.385
			c-0.067-0.015-0.132-0.036-0.248-0.073c-0.129-0.041-0.267-0.085-0.434-0.131l-0.095-0.026l-0.096-0.016
			c-2.534-0.434-4.373-2.614-4.373-5.184c0-2.904,2.363-5.267,5.267-5.267h37.074h0.212l0.207-0.044
			C153.218,7.852,162.842,6.831,172.42,6.831 M172.42,4.831c-9.954,0-19.659,1.073-29.021,3.078h-37.074
			c-4.013,0-7.267,3.253-7.267,7.267c0,3.593,2.61,6.569,6.035,7.155c0.408,0.112,0.599,0.211,1.037,0.275h29.559
			c4.014,0,7.267,3.253,7.267,7.267c0,3.49-2.46,6.402-5.741,7.104H68.929c-4.013,0-7.267,3.253-7.267,7.267
			c0,4.015,3.253,7.267,7.267,7.267h10.082c3.769,0.269,6.745,3.404,6.745,7.241c0,4.014-3.253,7.268-7.267,7.268H57.511
			C42.565,88.135,33.83,114.777,33.83,143.422c0,76.418,62.171,138.589,138.59,138.589c76.418,0,138.589-62.171,138.589-138.589
			C311.009,67.002,248.838,4.831,172.42,4.831L172.42,4.831z"/>
	</g>
	<path fill="none" stroke="#000000" stroke-width="6" stroke-miterlimit="10" d="M155.557,351.101
		c-35.635-45.122-80.619-108.768-107.759-147.069c-8.945-18.318-13.968-38.889-13.968-60.609c0-28.645,8.735-55.287,23.681-77.403
		h20.978c4.014,0,7.267-3.254,7.267-7.268c0-3.837-2.976-6.973-6.745-7.241H68.929c-4.013,0-7.267-3.252-7.267-7.267
		c0-4.013,3.253-7.267,7.267-7.267h68.285c3.28-0.702,5.741-3.614,5.741-7.104c0-4.014-3.253-7.267-7.267-7.267h-29.559
		c-0.438-0.064-0.628-0.163-1.037-0.275c-3.425-0.586-6.035-3.562-6.035-7.155c0-4.013,3.253-7.267,7.267-7.267h37.074
		c9.363-2.005,19.068-3.078,29.021-3.078c76.418,0,138.589,62.171,138.589,138.591c0,32.261-11.081,61.982-29.634,85.559
		c-3.696,4.697-91.924,122.12-91.924,122.12l-7.958,10.976c0,0-3.149,6.404-9.073,6.404s-7.982-5.133-9.028-6.574
		S155.557,351.101,155.557,351.101z"/>
</g>
<line fill="none" stroke="#000000" stroke-width="4" stroke-linecap="round" stroke-miterlimit="10" x1="76.817" y1="114.716" x2="75.7" y2="114.716"/>
<line fill="none" stroke="#000000" stroke-width="4" stroke-linecap="round" stroke-miterlimit="10" x1="168.194" y1="114.716" x2="167.078" y2="114.716"/>
<line fill="none" stroke="#000000" stroke-width="4" stroke-linecap="round" stroke-miterlimit="10" x1="218.335" y1="132.407" x2="217.265" y2="132.407"/>
<line fill="none" stroke="#000000" stroke-width="4" stroke-linecap="round" stroke-miterlimit="10" x1="247.98" y1="139.606" x2="246.91" y2="139.606"/>
<line fill="none" stroke="#000000" stroke-width="4" stroke-linecap="round" stroke-miterlimit="10" x1="70.427" y1="107.461" x2="66.739" y2="107.461"/>
<line fill="none" stroke="#000000" stroke-width="4" stroke-linecap="round" stroke-miterlimit="10" x1="89.115" y1="107.461" x2="76.72" y2="107.461"/>
<line fill="none" stroke="#000000" stroke-width="4" stroke-linecap="round" stroke-miterlimit="10" x1="208.344" y1="124.216" x2="206.375" y2="124.216"/>
<line fill="none" stroke="#000000" stroke-width="4" stroke-linecap="round" stroke-miterlimit="10" x1="228.304" y1="124.216" x2="215.065" y2="124.216"/>
<path fill="none" stroke="#000000" stroke-width="4" stroke-linecap="round" stroke-miterlimit="10" d="M126.193,99.171
	c-2.961-2.188-6.623-3.48-10.587-3.48c-8.499,0-15.609,5.942-17.403,13.898c-1.167,4.286-4.149,5.127-6.086,5.127
	c-1.362,0-8.729,0-8.729,0"/>
<path fill="none" stroke="#000000" stroke-width="4" stroke-linecap="round" stroke-miterlimit="10" d="M118.786,95.691
	c0-12.092,9.802-21.894,21.894-21.894c10.134,0,18.66,6.886,21.155,16.233"/>
<path fill="none" stroke="#000000" stroke-width="4" stroke-linecap="round" stroke-miterlimit="10" d="M152.384,97.054
	c3.065-4.066,7.936-6.695,13.42-6.695c9.275,0,16.793,7.519,16.793,16.794c0,0,0.629,7.563-7.503,7.563c-1.065,0-1.538,0-1.538,0"/>
<g>
	<path fill="#D2F7FF" d="M185.614,215.956c0,3.132-145.946,0-145.946,0v-73.89c0-3.132,2.538-5.67,5.669-5.67h134.607
		c3.131,0,5.669,2.538,5.669,5.67V215.956z"/>
	<circle fill="#91671F" cx="81.792" cy="218.804" r="17.876"/>
	<circle fill="#E2E0DE" cx="81.792" cy="218.804" r="6.981"/>
	<polygon fill="#D2F7FF" points="186.916,152.813 219.212,152.813 225.349,158.95 237.197,178.296 251.196,186.27 252.81,191.927 
		252.81,216.06 185.614,216.06 185.614,152.813 	"/>
	<circle fill="#91671F" cx="219.212" cy="218.804" r="17.876"/>
	<circle fill="#F9F6F2" cx="219.212" cy="218.804" r="6.981"/>
	<path fill="none" stroke="#231815" stroke-width="4" stroke-linecap="round" stroke-miterlimit="10" d="M99.669,216.06h85.945
		v-73.994c0-3.131-2.538-5.669-5.669-5.669H45.95c-3.131,0-5.669,2.538-5.669,5.669c0,0,0,4.925,0,10.512
		c0,6.17-5.76,5.76-5.76,5.76h-8.054"/>
	<path fill="none" stroke="#231815" stroke-width="4" stroke-linecap="round" stroke-miterlimit="10" d="M64.042,216.06H40.281
		v-38.817c0,0,0.654-5.792-5.792-5.792h-21.67"/>
	<path fill="none" stroke="#231815" stroke-width="4" stroke-miterlimit="10" d="M236.72,216.06h16.09c0,0,0-19.775,0-24.926
		s-3.644-6.334-3.644-6.334s-6.797-3.329-9.017-4.362c-3.444-1.624-4.759-4.732-4.759-4.732l-10.932-19.131
		c0,0-2.982-3.761-7.26-3.761s-31.585,0-31.585,0v63.246h15.955"/>
	<path fill="none" stroke="#231815" stroke-width="4" stroke-miterlimit="10" d="M238.335,178.813h-34.201
		c-1.317,0-2.385-1.068-2.385-2.385v-12.063c0-1.317,1.068-2.385,2.385-2.385h23.923"/>
	<line fill="none" stroke="#231815" stroke-width="4" stroke-miterlimit="10" x1="40.281" y1="200.794" x2="252.81" y2="200.794"/>
	<circle fill="none" stroke="#231815" stroke-width="4" stroke-miterlimit="10" cx="81.855" cy="218.79" r="17.814"/>
	<circle fill="none" stroke="#231815" stroke-width="3" stroke-miterlimit="10" cx="81.855" cy="218.79" r="6.987"/>
	<circle fill="none" stroke="#231815" stroke-width="3" stroke-miterlimit="10" cx="219.383" cy="218.79" r="6.987"/>
	<circle fill="none" stroke="#231815" stroke-width="4" stroke-miterlimit="10" cx="219.383" cy="218.79" r="17.814"/>
	
		<line fill="none" stroke="#231815" stroke-width="3" stroke-linecap="round" stroke-miterlimit="10" x1="21.625" y1="158.421" x2="19.864" y2="158.421"/>
	
		<line fill="none" stroke="#231815" stroke-width="3" stroke-linecap="round" stroke-miterlimit="10" x1="26.55" y1="164.93" x2="25.928" y2="164.93"/>
	
		<line fill="none" stroke="#231815" stroke-width="3" stroke-linecap="round" stroke-miterlimit="10" x1="7.638" y1="171.45" x2="3.188" y2="171.45"/>
	
		<line fill="none" stroke="#231815" stroke-width="3" stroke-linecap="round" stroke-miterlimit="10" x1="37.41" y1="164.93" x2="30.717" y2="164.93"/>
	
		<line fill="none" stroke="#231815" stroke-width="3" stroke-linecap="round" stroke-miterlimit="10" x1="47.05" y1="228.98" x2="46.428" y2="228.98"/>
	
		<line fill="none" stroke="#231815" stroke-width="3" stroke-linecap="round" stroke-miterlimit="10" x1="57.91" y1="228.98" x2="51.217" y2="228.98"/>
	
		<line fill="none" stroke="#231815" stroke-width="3" stroke-linecap="round" stroke-miterlimit="10" x1="185.209" y1="228.98" x2="184.587" y2="228.98"/>
	
		<line fill="none" stroke="#231815" stroke-width="3" stroke-linecap="round" stroke-miterlimit="10" x1="196.069" y1="228.98" x2="189.376" y2="228.98"/>
	
		<line fill="none" stroke="#231815" stroke-width="4" stroke-linecap="round" stroke-miterlimit="10" x1="82.628" y1="236.604" x2="45.632" y2="236.604"/>
	
		<line fill="none" stroke="#231815" stroke-width="4" stroke-linecap="round" stroke-miterlimit="10" x1="39.088" y1="236.604" x2="34.93" y2="236.604"/>
	
		<line fill="none" stroke="#231815" stroke-width="4" stroke-linecap="round" stroke-miterlimit="10" x1="219.383" y1="236.604" x2="196.164" y2="236.604"/>
	
		<line fill="none" stroke="#231815" stroke-width="4" stroke-linecap="round" stroke-miterlimit="10" x1="188.526" y1="236.604" x2="183.672" y2="236.604"/>
</g>
<path fill="none" stroke="#000000" stroke-width="4" stroke-linecap="round" stroke-miterlimit="10" d="M271.211,126.272
	c-1.654-8.118-9.575-13.357-17.692-11.704c-4.998,1.019-8.906,4.412-10.784,8.767c-0.202,0.468-2.671,8.893-10.146,9.072
	c-1.886,0-8.767,0-8.767,0"/>
<path fill="none" stroke="#000000" stroke-width="4" stroke-linecap="round" stroke-miterlimit="10" d="M284.06,137.111
	c-0.338-6.116-5.571-10.802-11.686-10.463c-4.259,0.234-7.824,2.843-9.482,6.47c-0.438,0.958-2.136,6.488-8.276,6.488
	c-1.143,0-1.806,0-1.806,0"/>
<circle fill="#FED10C" stroke="#000000" stroke-width="3" stroke-miterlimit="10" cx="221.707" cy="62.092" r="19.666"/>
<path fill="none" stroke="#000000" stroke-width="4" stroke-linecap="round" stroke-miterlimit="10" d="M247.008,99.063
	c-2.985-5.917-0.609-13.133,5.308-16.119c5.917-2.985,13.133-0.609,16.119,5.308"/>
<path fill="none" stroke="#000000" stroke-width="4" stroke-linecap="round" stroke-miterlimit="10" d="M260.737,81.681
	c2.2-6.251,9.051-9.536,15.303-7.337c6.252,2.2,9.536,9.051,7.336,15.303"/>
<path opacity="0.59" fill="#A58602" d="M311.312,319.464c2.302-2.74,3.693-6.273,3.693-10.133c0-8.71-7.061-15.771-15.771-15.771
	c-8.709,0-15.771,7.061-15.771,15.771c0,3.861,1.393,7.396,3.697,10.137l12.073,16.56L311.312,319.464z"/>
<ellipse opacity="0.91" fill="#D8B007" cx="60.873" cy="335.399" rx="26.238" ry="4.147"/>
<ellipse fill="#BF9B02" cx="60.873" cy="334.423" rx="10.776" ry="1.865"/>
<path fill="#A58602" d="M77.601,305.571c3.094-3.682,4.962-8.43,4.962-13.616c0-11.704-9.487-21.191-21.191-21.191
	c-11.703,0-21.192,9.487-21.192,21.191c0,5.189,1.872,9.938,4.969,13.622l16.224,22.252L77.601,305.571z"/>
<polygon opacity="0.91" fill="#D8B007" points="122.16,370.042 66.195,339.137 70.89,338.458 137.775,366.415 "/>
<polygon opacity="0.91" fill="#D8B007" points="224.31,371.131 293.191,343.94 288.496,343.262 208.695,367.504 "/>
<circle fill="#FED10C" cx="299.234" cy="307.604" r="5.236"/>
<circle fill="#FED10C" cx="60.873" cy="291.512" r="7.269"/>
<text transform="matrix(1 0 0 1 50.0962 355.6045)" fill="#19273F" font-family="'FZZCHJW--GB1-0'" font-size="12.3779">太原</text>
<text transform="matrix(1 0 0 1 288.293 362.2705)" fill="#19273F" font-family="'FZZCHJW--GB1-0'" font-size="12.3779">济南</text>
<text transform="matrix(1 0 0 1 161.6265 400.9375)" fill="#19273F" font-family="'FZZCHJW--GB1-0'" font-size="12.3779">郑州</text>
<text transform="matrix(1 0 0 1 86.7026 357.1963)" fill="#19273F" font-family="'FZZCHJW--GB1-0'" font-size="9">60km/h</text>
<text transform="matrix(1 0 0 1 234.6113 358.96)" fill="#19273F" font-family="'FZZCHJW--GB1-0'" font-size="9">75km/h</text>
</svg>
