<?xml version="1.0" encoding="utf-8"?>
<!-- Generator: Adobe Illustrator 16.0.0, SVG Export Plug-In . SVG Version: 6.00 Build 0)  -->
<!DOCTYPE svg PUBLIC "-//W3C//DTD SVG 1.1//EN" "http://www.w3.org/Graphics/SVG/1.1/DTD/svg11.dtd">
<svg version="1.1" id="图层_1" xmlns="http://www.w3.org/2000/svg" xmlns:xlink="http://www.w3.org/1999/xlink" x="0px" y="0px"
	 width="355px" height="412px" viewBox="0 0 355 412" enable-background="new 0 0 355 412" xml:space="preserve">
<circle fill="#4CCE3E" stroke="#000000" stroke-width="6" stroke-miterlimit="10" cx="180.339" cy="264.852" r="135.589"/>
<g>
	<g>
		<path fill="#4F85A5" d="M118.593,384.076l-0.321-0.164c-0.186-0.094-18.779-9.684-35.912-27.535
			c-13.918-14.758-23.008-32.953-23.098-33.135l-1.073-2.166h213.875c6.817,0,12.364-5.545,12.364-12.363
			c0-6.816-5.546-12.361-12.364-12.361H77.967c-41.556,0-75.364-33.809-75.364-75.363c0-41.556,33.808-75.363,75.364-75.363H240.96
			l0.288,0.126c0.713,0.313,17.644,7.83,32.869,23.218c16.553,15.659,27.07,37.289,27.174,37.506l1.035,2.15H77.967
			c-6.817,0-12.364,5.546-12.364,12.363c0,6.816,5.546,12.362,12.364,12.362h194.098c41.556,0,75.364,33.808,75.364,75.362
			c0,41.557-33.808,75.363-75.364,75.363H118.593z"/>
		<path d="M240.646,147.125c0,0,17.207,7.538,32.405,22.898c16.58,15.686,26.889,37.102,26.889,37.102H77.967
			c-7.645,0-13.864,6.219-13.864,13.863c0,7.644,6.219,13.862,13.864,13.862h194.098c40.729,0,73.864,33.136,73.864,73.862
			c0,40.729-33.135,73.863-73.864,73.863H118.954c0,0-18.355-9.363-35.511-27.238c-13.917-14.756-22.836-32.762-22.836-32.762
			h211.458c7.645,0,13.864-6.219,13.864-13.863c0-7.643-6.219-13.861-13.864-13.861H77.967c-40.729,0-73.864-33.135-73.864-73.863
			c0-40.729,33.135-73.863,73.864-73.863H240.646 M241.274,144.125h-0.628H77.967c-42.383,0-76.864,34.48-76.864,76.863
			s34.481,76.863,76.864,76.863h194.098c5.99,0,10.864,4.873,10.864,10.861c0,5.99-4.874,10.863-10.864,10.863H60.606h-4.834
			l2.146,4.332c0.372,0.752,9.28,18.578,23.341,33.488c17.325,18.053,35.563,27.461,36.331,27.854l0.642,0.326h0.721h153.111
			c42.383,0,76.864-34.48,76.864-76.863c0-42.381-34.481-76.862-76.864-76.862H77.967c-5.99,0-10.864-4.873-10.864-10.862
			c0-5.99,4.874-10.863,10.864-10.863H299.94h4.774l-2.071-4.301c-0.431-0.895-10.728-22.066-27.494-37.945
			c-15.416-15.565-32.576-23.185-33.299-23.502L241.274,144.125L241.274,144.125z"/>
	</g>
</g>
<path fill="none" stroke="#FFFFFF" stroke-width="3" stroke-linecap="round" stroke-miterlimit="10" stroke-dasharray="12,14" d="
	M87.289,352.576h184.776c24.225,0,43.864-19.637,43.864-43.863l0,0c0-24.223-19.639-43.861-43.864-43.861H158.203h-0.089H77.967
	c-24.225,0-43.864-19.64-43.864-43.863l0,0c0-24.227,19.639-43.863,43.864-43.863h201.882"/>
<g>
	<path fill-rule="evenodd" clip-rule="evenodd" fill="#4CCE3E" d="M259.433,290.758c0.485-0.309,1.23-1.371,1.479-1.471
		c0.249-0.102,0.481-0.766,0.986,0c0.505,0.764-0.998,0.035,0.986,0c1.984-0.037,3.351,0.701,4.438,0.49s2.374-1.711,3.451-1.471
		s0.904-0.109,1.479,0.49s0.106-0.057,0.986,0.49c0.88,0.545,1.078-0.004,1.479,0.49c0.402,0.492-1.1,0.053,0.493,0.49
		c1.593,0.436,2.263,0.082,2.465,0.49c0.203,0.408-2.033-0.346,0,0.49c2.034,0.836,2.272,0.617,2.958,0.98
		c0.687,0.363-0.091,0.238,0.493,0.98s0.47-0.018,1.479,0.98c1.009,1,2.828-0.494,1.479,0.98c-1.349,1.477-2.747,1.209-0.986,1.963
		c1.761,0.752,2.842-0.031,1.972,0.98c-0.87,1.01-2.151,0.967-0.986,1.471s3.262,0.268,2.958,0.98s-0.063-0.621,0,0.98
		s0.557,1.045,0.493,2.451c-0.064,1.408-0.263,0.137-0.493,1.963s-0.502,1.863,0,2.451c0.502,0.59,2.206,0.475,0.986,0.98
		c-1.22,0.506-0.396-0.764-1.479,0.49s-0.04,1.504,0,1.963c0.04,0.457,0.814,0.143,0,0.98c-0.814,0.836-1.5,0.672-0.986,1.471
		c0.514,0.797,1.693-0.768,0.493,0.49s-1.04,1.305-0.986,1.961c0.055,0.656,1.118,1.049,0,1.471
		c-1.117,0.424-1.352,0.18-1.479,0.982c-0.126,0.801,0.435,0.215-0.493,0.98c-0.928,0.766-0.093-0.193-0.986,1.961
		c-0.894,2.154,1.04,1.734-0.986,1.471c-2.025-0.264-1.577-2.779-1.972-0.49c-0.395,2.287,1.265,1.17-0.493,1.961
		c-1.757,0.791-0.09-1.088-1.972,0.98s-1.257,0.656-1.972,1.471c-0.715,0.816-0.128-0.766-1.972,0
		c-1.844,0.768-0.392-0.586-1.973,0.49c-1.581,1.078-1.021-0.85-1.972,0.492c-0.951,1.34-0.03-1.473-1.479-0.49
		c-1.449,0.98-2.036-1.924-3.451-0.982c-1.416,0.941-1.446-1.336-2.466,0c-1.02,1.338-2.587,1.428-3.451,0.982
		c-0.864-0.447-4.069-0.895-1.479-1.473c2.59-0.576,1.976-0.354,0-0.49c-1.976-0.135,0.446,1.809-1.972,0
		c-2.417-1.807-2.903-1.314-2.465-1.961c0.438-0.646,2.303-0.512,0.493-0.98s-2.779-1.027-2.465-1.961
		c0.314-0.936,1.029-1.557,0-1.961c-1.029-0.406-3.003-0.391-1.479-0.982c1.524-0.59-0.396-2.078-0.986-2.451s0.37,0.086,0-0.98
		s-0.894-2.342-0.986-2.941c-0.092-0.602-0.484-1.613,0-1.473c0.485,0.143-1.041-0.363-0.986-1.471
		c0.055-1.105,0.003-1.902,0.493-2.451c0.489-0.549,0.277,0.689,0.493-1.471c0.216-2.162-0.606-2.463,0-2.943
		c0.607-0.479,0.838-0.627,1.479-1.961c0.641-1.334,0.493-2.451,0.493-2.451s-1.64-1.699,0.986-0.98
		c2.626,0.717,3.032,0.025,3.452-0.49c0.419-0.518,0.493-0.982,0.493-0.982s-1.095-1.326,0-0.98c1.096,0.348,2.251,0.105,2.465-0.49
		C256.195,293.105,258.947,291.066,259.433,290.758z"/>
	<g>
		<path fill="none" d="M286.953,300.748C286.896,300.619,286.856,300.896,286.953,300.748L286.953,300.748z"/>
		<path fill="none" d="M261.968,289.408C261.559,289.578,262.164,289.818,261.968,289.408L261.968,289.408z"/>
		<path fill="#41A833" d="M254.606,312.57c-0.833,0.516-2.024,1.408-2.024,1.408S252.798,314.018,254.606,312.57z"/>
		<path fill="#389129" d="M256.474,326.063c-1.216-0.082-0.768,0.619-0.806,0.752c0.153-0.084,0.402-0.172,0.806-0.262
			C259.064,325.977,258.45,326.199,256.474,326.063z"/>
		<path fill="#389129" d="M275.477,323.117c-0.584-0.6-2.074-1.719-2.874-1.09c-0.8,0.631-1.291,1.201-2.918-2.873
			c-1.626-4.074-0.437,0.143-1.323,1.918c-0.887,1.777-2.206,1.223-2.31,0.367c-0.106-0.855-0.157-0.695-0.748-4.6
			c-0.591-3.904-0.964,1.656-1.747,1.824c-0.783,0.164-0.965,2.398-2.88,2.896c-1.914,0.496-0.37-0.404,0.24-3.049
			c0.611-2.645-0.121-0.66-0.658-1.033c-0.537-0.375-3.179,1.51-4.102,0.404c-0.924-1.104,0.926-1.172,1.417-2.34
			c0.491-1.166,0.164-1.064,0.051-2.203c-0.113-1.141-1.792,0.041-1.792,0.041s-0.337,2.469-1.279,3.699
			c-0.941,1.232-1.779,0.004-2.259-1.838c-0.482-1.84,1.337-0.725,2.784-2.475c0.651-0.789,0.208-0.619-0.476-0.197
			c-1.808,1.447-2.024,1.408-2.024,1.408s1.191-0.893,2.024-1.408c0.338-0.271,0.726-0.588,1.184-0.973
			c2.915-2.447,0.759-0.193-1.93-1.32s-2.19-0.705,0.994-2.436c3.184-1.732-0.168-1.158-0.893-1.973
			c-0.725-0.816-0.079-1.037,1.842-2.244c1.922-1.211,0.084-1.148,0.051-2.205c-0.035-1.055-0.73-1.992,0.57-2.531
			c1.298-0.539-2.553-3.395-3.058-4.232c-0.062-0.102-0.177-0.209-0.33-0.316c0.047,0.305,0.48,0.83,0.48,0.83
			s-0.073,0.465-0.493,0.982c-0.42,0.516-0.826,1.207-3.452,0.49c-2.626-0.719-0.986,0.98-0.986,0.98s0.148,1.117-0.493,2.451
			c-0.642,1.334-0.873,1.482-1.479,1.961c-0.606,0.48,0.216,0.781,0,2.943c-0.216,2.16-0.003,0.922-0.493,1.471
			c-0.49,0.549-0.438,1.346-0.493,2.451c-0.055,1.107,1.471,1.613,0.986,1.471c-0.484-0.141-0.092,0.871,0,1.473
			c0.092,0.6,0.616,1.875,0.986,2.941s-0.59,0.607,0,0.98s2.51,1.861,0.986,2.451c-1.524,0.592,0.45,0.576,1.479,0.982
			c1.029,0.404,0.314,1.025,0,1.961c-0.314,0.934,0.656,1.492,2.465,1.961s-0.055,0.334-0.493,0.98
			c-0.438,0.646,0.048,0.154,2.465,1.961c0.749,0.561,1.032,0.76,1.127,0.773c0.012-0.008,0.026-0.016,0.039-0.021
			c0.038-0.133-0.41-0.834,0.806-0.752c1.976,0.137,2.59-0.086,0,0.49c-0.404,0.09-0.653,0.178-0.806,0.262
			c-0.013,0.006-0.027,0.014-0.039,0.021c-0.716,0.445,1.606,0.818,2.325,1.189c0.864,0.445,2.432,0.355,3.451-0.982
			c1.02-1.336,1.05,0.941,2.466,0c1.416-0.941,2.002,1.963,3.451,0.982c1.449-0.982,0.528,1.83,1.479,0.49
			c0.951-1.342,0.392,0.586,1.972-0.492c1.581-1.076,0.129,0.277,1.973-0.49c1.844-0.766,1.257,0.816,1.972,0
			c0.715-0.814,0.09,0.598,1.972-1.471s0.215-0.189,1.972-0.98c1.719-0.773,0.176,0.27,0.475-1.822
			c-0.507-0.109-1.107-0.281-1.775-0.604C274.766,321.4,276.06,323.717,275.477,323.117z"/>
	</g>
	<g>
		<path fill="none" d="M257.909,291.881c0.028-0.021,0.056-0.043,0.083-0.064C257.916,291.777,257.9,291.811,257.909,291.881z"/>
		<path fill="none" d="M282.323,296.717c0.063-0.084,0.103-0.182,0.112-0.301C282.28,296.525,282.224,296.611,282.323,296.717z"/>
		<path fill="#41A833" d="M282.196,297.002c0,0-0.22-0.002-1.759,1.732C281.171,298.086,282.196,297.002,282.196,297.002z"/>
		<path fill="#5CBF4B" d="M261.968,289.408C261.559,289.578,262.164,289.818,261.968,289.408L261.968,289.408z"/>
		<path fill="#5CBF4B" d="M286.953,300.748C286.896,300.619,286.856,300.896,286.953,300.748L286.953,300.748z"/>
		<path fill="#75EA65" d="M286.058,314.785c0.281-0.295,0.428-0.432,0.487-0.482c-0.134,0.105-0.674,0.467-0.98-0.008
			c-0.513-0.799,0.172-0.635,0.986-1.471c0.814-0.838,0.04-0.523,0-0.98c-0.04-0.459-1.083-0.709,0-1.963s0.26,0.016,1.479-0.49
			c1.219-0.506-0.484-0.391-0.986-0.98c-0.502-0.588-0.23-0.625,0-2.451s0.429-0.555,0.493-1.963
			c0.064-1.406-0.431-0.85-0.493-2.451c-0.02-0.512-0.058-0.723-0.091-0.797c-0.097,0.148-0.057-0.129,0,0
			c0.022-0.035,0.052-0.092,0.091-0.184c0.304-0.713-1.793-0.477-2.958-0.98s0.116-0.461,0.986-1.471
			c0.871-1.012-0.211-0.229-1.972-0.98c-0.438-0.188-0.681-0.313-0.777-0.416c-0.376,0.494-1.59,0.514-2.386,1.902
			c-0.508,0.887-0.101,0.646,0.5,0.115c1.539-1.734,1.759-1.732,1.759-1.732s-1.024,1.084-1.759,1.732
			c-0.287,0.324-0.614,0.701-1,1.158c-2.458,2.904-0.715,0.318,2.126,0.975c2.841,0.654,2.278,0.322-0.567,2.566
			c-2.844,2.248,0.362,1.115,1.214,1.795s0.253,1.008-1.435,2.523c-1.689,1.518,0.112,1.146,0.323,2.182
			c0.213,1.033,1.057,1.838-0.133,2.59c-1.188,0.752,3.091,2.914,3.731,3.654c0.072,0.084,0.194,0.162,0.344,0.236
			C285.01,316.025,285.098,315.791,286.058,314.785z"/>
		<path fill="#5CBF4B" d="M257.909,291.881c-0.373,0.293-0.755,0.604-1.082,0.893C258.337,293.063,257.942,292.162,257.909,291.881z
			"/>
		<path fill="#75EA65" d="M261.101,292.461c0.682-0.756,1.069-1.402,3.363,2.338c2.293,3.738,0.407-0.215,0.979-2.115
			c0.573-1.902,1.966-1.578,2.214-0.752c0.25,0.824,0.272,0.658,1.516,4.404c1.244,3.748,0.669-1.793,1.413-2.092
			c0.743-0.295,0.545-2.527,2.347-3.342c1.803-0.814,0.433,0.334,0.28,3.043c-0.154,2.711,0.231,0.631,0.823,0.908
			c0.593,0.277,2.877-2.027,3.974-1.094c1.098,0.932-0.714,1.313-1,2.545c-0.287,1.232,0.019,1.078,0.323,2.182
			c0.305,1.105,1.759-0.344,1.759-0.344s-0.086-2.49,0.633-3.863c0.719-1.373,1.752-0.305,2.538,1.43
			c0.139,0.305,0.188,0.529,0.174,0.707c0.302-0.211,0.982-0.514,1.65-1.246c1.349-1.475-0.47,0.02-1.479-0.98
			c-1.009-0.998-0.896-0.238-1.479-0.98s0.193-0.617-0.493-0.98c-0.686-0.363-0.925-0.145-2.958-0.98
			c-2.033-0.836,0.203-0.082,0-0.49c-0.202-0.408-0.872-0.055-2.465-0.49c-1.593-0.438-0.091,0.002-0.493-0.49
			c-0.402-0.494-0.6,0.055-1.479-0.49c-0.88-0.547-0.411,0.109-0.986-0.49s-0.402-0.25-1.479-0.49s-2.364,1.26-3.451,1.471
			s-2.453-0.527-4.438-0.49c-0.493,0.008-0.77,0.061-0.917,0.121c0.196,0.41-0.409,0.17,0,0c-0.017-0.035-0.04-0.076-0.07-0.121
			c-0.504-0.766-0.737-0.102-0.986,0c-0.249,0.1-0.994,1.162-1.479,1.471c-0.202,0.129-0.799,0.559-1.441,1.059
			c0.025,0.012,0.054,0.029,0.092,0.059C258.761,292.365,260.419,293.217,261.101,292.461z"/>
	</g>
</g>
<g>
	<path fill-rule="evenodd" clip-rule="evenodd" fill="#4CCE3E" d="M76.552,197.613c0.588-0.374,1.49-1.658,1.791-1.78
		c0.301-0.122,0.583-0.926,1.193,0c0.611,0.926-1.208,0.044,1.194,0s4.056,0.849,5.372,0.594c1.315-0.256,2.873-2.071,4.178-1.78
		c1.304,0.29,1.094-0.133,1.791,0.593s0.128-0.067,1.193,0.594s1.305-0.004,1.791,0.594c0.486,0.597-1.332,0.064,0.597,0.593
		c1.929,0.528,2.74,0.101,2.984,0.594c0.245,0.494-2.461-0.419,0,0.594c2.462,1.013,2.75,0.748,3.581,1.188
		c0.831,0.439-0.11,0.288,0.597,1.187c0.707,0.898,0.569-0.022,1.791,1.188c1.221,1.21,3.423-0.6,1.791,1.187
		c-1.633,1.786-3.325,1.464-1.193,2.375c2.131,0.911,3.44-0.037,2.387,1.187c-1.053,1.224-2.604,1.17-1.193,1.781
		c1.411,0.61,3.949,0.323,3.581,1.188c-0.368,0.862-0.076-0.752,0,1.187s0.674,1.264,0.597,2.967
		c-0.078,1.705-0.318,0.164-0.597,2.375c-0.279,2.212-0.607,2.256,0,2.967c0.608,0.714,2.67,0.576,1.194,1.188
		c-1.477,0.612-0.48-0.925-1.791,0.593c-1.311,1.519-0.048,1.819,0,2.375c0.049,0.555,0.986,0.174,0,1.188
		c-0.985,1.013-1.815,0.813-1.194,1.78c0.622,0.966,2.05-0.93,0.597,0.593s-1.259,1.581-1.194,2.375c0.066,0.794,1.353,1.269,0,1.78
		c-1.353,0.513-1.637,0.216-1.791,1.188c-0.153,0.97,0.526,0.26-0.596,1.187c-1.123,0.927-0.112-0.234-1.194,2.373
		c-1.083,2.608,1.258,2.1-1.194,1.78c-2.452-0.317-1.909-3.362-2.387-0.593c-0.479,2.77,1.531,1.417-0.597,2.373
		c-2.127,0.958-0.109-1.315-2.387,1.188s-1.521,0.793-2.387,1.78c-0.866,0.988-0.156-0.928-2.387,0
		c-2.232,0.929-0.474-0.711-2.388,0.594s-1.236-1.029-2.388,0.594c-1.151,1.622-0.036-1.781-1.79-0.593
		c-1.754,1.187-2.464-2.328-4.178-1.188c-1.714,1.14-1.75-1.617-2.985,0c-1.234,1.618-3.131,1.728-4.177,1.188
		c-1.046-0.54-4.925-1.083-1.791-1.781c3.135-0.699,2.392-0.43,0-0.594c-2.391-0.163,0.54,2.188-2.387,0
		c-2.926-2.188-3.514-1.591-2.984-2.375c0.531-0.782,2.788-0.619,0.597-1.187c-2.19-0.566-3.364-1.242-2.984-2.374
		c0.38-1.131,1.246-1.883,0-2.373c-1.245-0.492-3.635-0.474-1.79-1.188c1.845-0.714-0.48-2.517-1.194-2.967
		c-0.714-0.452,0.448,0.104,0-1.188c-0.448-1.291-1.083-2.833-1.194-3.561s-0.586-1.952,0-1.781c0.587,0.172-1.26-0.44-1.193-1.78
		c0.066-1.339,0.004-2.304,0.597-2.968c0.592-0.665,0.335,0.835,0.597-1.78c0.262-2.617-0.734-2.981,0-3.562s1.014-0.76,1.791-2.374
		c0.776-1.615,0.597-2.969,0.597-2.969s-1.985-2.056,1.193-1.187c3.179,0.868,3.67,0.031,4.178-0.594s0.597-1.188,0.597-1.188
		s-1.326-1.606,0-1.187c1.326,0.421,2.725,0.126,2.984-0.594S75.965,197.988,76.552,197.613z"/>
	<g>
		<path fill="none" d="M109.865,209.706C109.796,209.551,109.748,209.887,109.865,209.706L109.865,209.706z"/>
		<path fill="none" d="M79.621,195.979C79.126,196.186,79.858,196.476,79.621,195.979L79.621,195.979z"/>
		<path fill="#41A833" d="M70.71,224.017c-1.009,0.624-2.451,1.704-2.451,1.704S68.521,225.77,70.71,224.017z"/>
		<path fill="#389129" d="M72.971,240.35c-1.472-0.101-0.93,0.748-0.976,0.909c0.185-0.102,0.487-0.207,0.976-0.315
			C76.106,240.244,75.363,240.514,72.971,240.35z"/>
		<path fill="#389129" d="M95.973,236.783c-0.708-0.726-2.511-2.08-3.479-1.318c-0.968,0.763-1.563,1.454-3.532-3.479
			c-1.969-4.931-0.529,0.173-1.601,2.322c-1.073,2.151-2.67,1.48-2.796,0.443c-0.128-1.035-0.19-0.842-0.905-5.566
			c-0.716-4.726-1.167,2.004-2.115,2.207c-0.947,0.2-1.168,2.903-3.486,3.506c-2.317,0.601-0.447-0.488,0.291-3.688
			c0.74-3.201-0.146-0.801-0.796-1.252c-0.65-0.453-3.848,1.828-4.965,0.49c-1.118-1.336,1.121-1.419,1.716-2.832
			c0.595-1.412,0.198-1.289,0.062-2.668c-0.137-1.381-2.168,0.05-2.168,0.05s-0.408,2.988-1.548,4.479
			c-1.139,1.49-2.153,0.004-2.734-2.226c-0.583-2.228,1.619-0.876,3.37-2.996c0.789-0.953,0.251-0.749-0.576-0.238
			c-2.189,1.753-2.451,1.704-2.451,1.704s1.442-1.08,2.451-1.704c0.409-0.327,0.878-0.712,1.433-1.178
			c3.529-2.961,0.918-0.233-2.336-1.598s-2.651-0.853,1.203-2.947c3.854-2.097-0.204-1.403-1.081-2.389
			c-0.878-0.987-0.096-1.255,2.229-2.717c2.326-1.465,0.102-1.391,0.062-2.669c-0.042-1.277-0.884-2.41,0.689-3.063
			c1.572-0.653-3.09-4.108-3.702-5.123c-0.075-0.124-0.214-0.253-0.399-0.383c0.057,0.368,0.582,1.005,0.582,1.005
			s-0.089,0.563-0.597,1.188s-0.999,1.462-4.178,0.594c-3.179-0.869-1.193,1.187-1.193,1.187s0.179,1.354-0.597,2.969
			c-0.776,1.614-1.056,1.794-1.791,2.374s0.262,0.944,0,3.562c-0.262,2.615-0.004,1.115-0.597,1.78
			c-0.593,0.664-0.531,1.629-0.597,2.968c-0.067,1.34,1.78,1.952,1.193,1.78c-0.586-0.171-0.111,1.054,0,1.781
			s0.746,2.27,1.194,3.561c0.448,1.292-0.714,0.736,0,1.188c0.714,0.45,3.039,2.253,1.194,2.967
			c-1.845,0.715,0.545,0.696,1.79,1.188c1.246,0.49,0.38,1.242,0,2.373c-0.38,1.132,0.794,1.808,2.984,2.374
			c2.19,0.567-0.066,0.404-0.597,1.187c-0.53,0.784,0.058,0.187,2.984,2.375c0.906,0.678,1.249,0.918,1.364,0.935
			c0.014-0.008,0.031-0.018,0.047-0.025c0.046-0.161-0.496-1.01,0.976-0.909c2.392,0.164,3.135-0.105,0,0.594
			c-0.489,0.108-0.791,0.214-0.976,0.315c-0.016,0.008-0.033,0.018-0.047,0.025c-0.867,0.541,1.944,0.991,2.814,1.44
			c1.046,0.539,2.943,0.43,4.177-1.188c1.235-1.617,1.271,1.14,2.985,0c1.713-1.14,2.423,2.375,4.178,1.188
			c1.754-1.188,0.639,2.215,1.79,0.593c1.151-1.623,0.474,0.711,2.388-0.594s0.156,0.335,2.388-0.594
			c2.231-0.928,1.521,0.988,2.387,0c0.866-0.987,0.109,0.724,2.387-1.78s0.26-0.23,2.387-1.188c2.081-0.935,0.213,0.326,0.575-2.204
			c-0.614-0.133-1.34-0.342-2.148-0.731C95.113,234.705,96.679,237.51,95.973,236.783z"/>
	</g>
	<g>
		<path fill="none" d="M74.708,198.973c0.035-0.026,0.067-0.051,0.101-0.078C74.717,198.849,74.698,198.888,74.708,198.973z"/>
		<path fill="none" d="M104.261,204.827c0.077-0.102,0.125-0.22,0.136-0.364C104.208,204.596,104.141,204.698,104.261,204.827z"/>
		<path fill="#41A833" d="M104.106,205.173c0,0-0.267-0.004-2.129,2.097C102.867,206.484,104.106,205.173,104.106,205.173z"/>
		<path fill="#5CBF4B" d="M79.621,195.979C79.126,196.186,79.858,196.476,79.621,195.979L79.621,195.979z"/>
		<path fill="#5CBF4B" d="M109.865,209.706C109.796,209.551,109.748,209.887,109.865,209.706L109.865,209.706z"/>
		<path fill="#75EA65" d="M108.782,226.697c0.34-0.356,0.518-0.521,0.589-0.584c-0.163,0.128-0.816,0.566-1.187-0.009
			c-0.621-0.968,0.208-0.768,1.194-1.78c0.986-1.014,0.049-0.633,0-1.188c-0.048-0.556-1.311-0.856,0-2.375
			c1.311-1.518,0.314,0.02,1.791-0.593c1.476-0.612-0.586-0.475-1.194-1.188c-0.607-0.711-0.279-0.755,0-2.967
			c0.279-2.211,0.519-0.67,0.597-2.375c0.077-1.703-0.521-1.028-0.597-2.967c-0.024-0.621-0.07-0.876-0.11-0.966
			c-0.118,0.181-0.069-0.155,0,0c0.027-0.041,0.063-0.111,0.11-0.221c0.368-0.864-2.17-0.577-3.581-1.188
			c-1.411-0.611,0.14-0.558,1.193-1.781c1.054-1.224-0.255-0.275-2.387-1.187c-0.531-0.228-0.824-0.377-0.94-0.503
			c-0.455,0.599-1.925,0.622-2.888,2.303c-0.615,1.073-0.122,0.781,0.605,0.14c1.862-2.101,2.129-2.097,2.129-2.097
			s-1.24,1.312-2.129,2.097c-0.347,0.393-0.744,0.849-1.21,1.401c-2.976,3.517-0.865,0.386,2.573,1.18
			c3.439,0.793,2.758,0.391-0.686,3.107c-3.443,2.72,0.438,1.349,1.47,2.172c1.032,0.823,0.307,1.22-1.737,3.054
			c-2.045,1.839,0.135,1.389,0.391,2.643c0.258,1.25,1.28,2.225-0.161,3.135c-1.438,0.91,3.741,3.526,4.516,4.422
			c0.087,0.102,0.235,0.196,0.416,0.286C107.513,228.2,107.62,227.915,108.782,226.697z"/>
		<path fill="#5CBF4B" d="M74.708,198.973c-0.451,0.354-0.914,0.731-1.309,1.081C75.226,200.404,74.748,199.313,74.708,198.973z"/>
		<path fill="#75EA65" d="M78.571,199.675c0.825-0.915,1.294-1.697,4.071,2.83c2.775,4.526,0.492-0.259,1.185-2.561
			c0.693-2.302,2.38-1.91,2.68-0.91c0.302,0.999,0.33,0.798,1.835,5.332c1.506,4.537,0.81-2.171,1.71-2.533
			c0.899-0.356,0.66-3.059,2.841-4.045c2.182-0.984,0.524,0.404,0.339,3.685c-0.186,3.28,0.28,0.764,0.997,1.1
			c0.717,0.336,3.482-2.454,4.81-1.325c1.329,1.128-0.865,1.589-1.211,3.082c-0.347,1.491,0.023,1.304,0.392,2.641
			c0.369,1.337,2.129-0.418,2.129-0.418s-0.104-3.013,0.767-4.676c0.87-1.662,2.121-0.368,3.071,1.73
			c0.169,0.37,0.228,0.642,0.211,0.856c0.366-0.256,1.188-0.622,1.998-1.508c1.633-1.786-0.569,0.023-1.791-1.187
			c-1.222-1.21-1.084-0.289-1.791-1.188c-0.707-0.898,0.234-0.747-0.597-1.187c-0.831-0.439-1.119-0.175-3.581-1.188
			c-2.461-1.013,0.245-0.1,0-0.594c-0.244-0.493-1.055-0.065-2.984-0.594c-1.928-0.528-0.11,0.004-0.597-0.593
			c-0.486-0.598-0.726,0.067-1.791-0.594s-0.497,0.132-1.193-0.594s-0.486-0.303-1.791-0.593c-1.305-0.291-2.862,1.524-4.178,1.78
			c-1.316,0.255-2.97-0.638-5.372-0.594c-0.596,0.011-0.931,0.073-1.109,0.146c0.237,0.496-0.495,0.206,0,0
			c-0.021-0.043-0.048-0.091-0.084-0.146c-0.61-0.926-0.893-0.122-1.193,0c-0.301,0.122-1.203,1.406-1.791,1.78
			c-0.245,0.156-0.967,0.677-1.744,1.281c0.03,0.016,0.065,0.037,0.112,0.071C75.74,199.561,77.747,200.59,78.571,199.675z"/>
	</g>
</g>
<g>
	<path fill="#262626" d="M237.025,364.264c0.555,0.002,1.008,0.449,1.008,1.008l-0.001,2.23c0.002,0.551-0.45,1.006-1.006,1
		l-8.724,0.002c-0.555,0-1.005-0.445-1.004-1l0-2.232c0.001-0.555,0.447-1.006,1.001-1.006L237.025,364.264z"/>
	<path fill="#262626" d="M237.018,331.088c0.555,0,1.007,0.449,1.008,1.004l0,2.229c0,0.557-0.452,1.006-1.008,1.01l-8.721-0.002
		c-0.557-0.002-1.004-0.449-1.005-1.004l-0.001-2.227c0-0.559,0.449-1.01,1.003-1.008L237.018,331.088z"/>
	<path fill="#262626" d="M161.554,331.1c0.557,0,1.007,0.449,1.008,1.004l-0.005,2.234c0.002,0.551-0.446,1.002-1.001,1.008
		l-8.725-0.002c-0.557,0.002-1.006-0.453-1.005-1.008l-0.002-2.227c0.001-0.559,0.452-1.008,1.008-1.008L161.554,331.1z"/>
	<path fill="#262626" d="M174.319,331.098c0.556,0,1.007,0.449,1.008,1.006l-0.005,2.232c0.002,0.551-0.447,1.002-1.001,1.004
		l-8.725,0.002c-0.556,0.002-1.004-0.449-1.004-1.008l0.001-2.229c0-0.555,0.449-1.006,1.005-1.006L174.319,331.098z"/>
	<path fill="#262626" d="M161.562,363.988c0.557-0.004,1.004,0.445,1.003,1l0.002,2.229c0,0.561-0.45,1.008-1.008,1.008
		l-8.722,0.004c-0.553-0.002-1.007-0.451-1.008-1.006l0.004-2.232c-0.001-0.555,0.447-1.002,1.003-1.004L161.562,363.988z"/>
	<path fill="#262626" d="M174.326,363.982c0.556,0.002,1.005,0.449,1.004,1.004l0.002,2.23c0,0.559-0.445,1.006-1.001,1.008
		l-8.725-0.002c-0.557,0.004-1.006-0.449-1.005-1.004l-0.002-2.23c0-0.555,0.447-1.002,1.003-1.004L174.326,363.982z"/>
	<path fill="#363636" d="M246.313,331.133c2.548,0,4.616,2.066,4.617,4.613c0,0,0.233,5.016,0.237,13.793
		c0,8.779-0.232,14.182-0.232,14.182c0.002,2.551-2.066,4.621-4.617,4.623h-2.375c-2.549,0.002-2.559-37.211-0.008-37.211H246.313z"
		/>
	<path fill="#919191" d="M243.299,367.514c0,0,2.813-0.096,3.686-0.188c1.646-0.172,2.736-1.17,2.735-2.611
		c0,0,0.364-8.793,0.362-15.27c0.001-6.479-0.365-15.012-0.365-15.012c-0.005-1.441-1.234-2.457-2.74-2.609
		c-1.016-0.098-3.529-0.184-3.529-0.184L243.299,367.514z"/>
	
		<linearGradient id="SVGID_1_" gradientUnits="userSpaceOnUse" x1="-4804.4268" y1="1769.9785" x2="-4804.4268" y2="1743.625" gradientTransform="matrix(-2.000000e-004 -1 1 -2.000000e-004 -1521.5254 -4454.377)">
		<stop  offset="0" style="stop-color:#C6C6C6"/>
		<stop  offset="1" style="stop-color:#C6C6C6"/>
	</linearGradient>
	<path fill="url(#SVGID_1_)" d="M245.457,331.689c1.471,0.004,2.664,1.199,2.666,2.67c0,0,1.291,6.08,1.291,15.342
		c0.003,9.258-1.283,15.334-1.283,15.334c-0.003,1.477-1.194,2.668-2.669,2.668l-20.763,0.006c-1.471,0-1.633-1.195-1.635-2.67
		l-0.002-30.674c-0.002-1.475,0.347-2.666,1.817-2.666L245.457,331.689z"/>
	<path fill="#EDEDED" d="M241.284,363.885c0,0,0.75-6.525,0.75-14.145c-0.003-7.619-0.757-14.266-0.757-14.266l4.443-1.83
		c0,0,0.76,8.955,0.757,16.023c0.003,7.07-0.747,16.094-0.747,16.094L241.284,363.885z"/>
	
		<linearGradient id="SVGID_2_" gradientUnits="userSpaceOnUse" x1="-4816.9629" y1="1771.6445" x2="-4793.5571" y2="1757.8141" gradientTransform="matrix(-2.000000e-004 -1 1 -2.000000e-004 -1521.5254 -4454.377)">
		<stop  offset="0" style="stop-color:#434185"/>
		<stop  offset="1" style="stop-color:#38356E"/>
	</linearGradient>
	<path fill="url(#SVGID_2_)" d="M240.903,363.885c0,0,0.752-6.525,0.752-14.146c-0.002-7.617-0.756-14.264-0.756-14.264l4.442-1.828
		c0,0,0.76,8.955,0.76,16.021c0.002,7.068-0.75,16.096-0.75,16.096L240.903,363.885z"/>
	
		<linearGradient id="SVGID_3_" gradientUnits="userSpaceOnUse" x1="-4821.6299" y1="1758.5264" x2="-4819.8398" y2="1758.5264" gradientTransform="matrix(-2.000000e-004 -1 1 -2.000000e-004 -1521.5254 -4454.377)">
		<stop  offset="0" style="stop-color:#434185"/>
		<stop  offset="1" style="stop-color:#38356E"/>
	</linearGradient>
	<polygon fill="url(#SVGID_3_)" points="232.05,366.9 243.883,366.9 238.778,365.111 232.047,365.119 	"/>
	
		<linearGradient id="SVGID_4_" gradientUnits="userSpaceOnUse" x1="5173.2852" y1="1758.2275" x2="5175.0723" y2="1758.2275" gradientTransform="matrix(2.000000e-004 1 1 -2.000000e-004 -1521.3027 -4840.3262)">
		<stop  offset="0" style="stop-color:#434185"/>
		<stop  offset="1" style="stop-color:#38356E"/>
	</linearGradient>
	<polygon fill="url(#SVGID_4_)" points="232.045,332.607 243.873,332.605 238.772,334.393 232.045,334.391 	"/>
	
		<linearGradient id="SVGID_5_" gradientUnits="userSpaceOnUse" x1="-4804.4351" y1="1761.4639" x2="-4804.4351" y2="1744.4775" gradientTransform="matrix(-2.000000e-004 -1 1 -2.000000e-004 -1521.5254 -4454.377)">
		<stop  offset="0" style="stop-color:#EAEAEA"/>
		<stop  offset="1" style="stop-color:#E0E0E0"/>
	</linearGradient>
	<path fill="url(#SVGID_5_)" d="M240.041,335.336c0,0,0.86,4.961,0.859,14.469c0.003,9.506-0.855,14.273-0.855,14.273h-16.128
		l-0.006-28.738L240.041,335.336z"/>
	
		<linearGradient id="SVGID_6_" gradientUnits="userSpaceOnUse" x1="-4818.9141" y1="1760.2227" x2="-4789.8823" y2="1743.7606" gradientTransform="matrix(-2.000000e-004 -1 1 -2.000000e-004 -1521.5254 -4454.377)">
		<stop  offset="0" style="stop-color:#E0E0E0"/>
		<stop  offset="1" style="stop-color:#FFFFFF"/>
	</linearGradient>
	<path fill="url(#SVGID_6_)" d="M239.507,335.338c0,0,0.863,4.959,0.866,14.467c-0.001,9.504-0.86,14.27-0.86,14.27l-16.126,0.004
		l-0.005-28.738L239.507,335.338z"/>
	<path fill="#EBEBEB" d="M248.132,334.561l-1.113,0.158l0.451,4.279l1.436,0.801c0,0-0.153-1.498-0.342-2.801
		C248.371,335.697,248.132,334.561,248.132,334.561z"/>
	
		<linearGradient id="SVGID_7_" gradientUnits="userSpaceOnUse" x1="-4789.4492" y1="1767.168" x2="-4786.4229" y2="1767.168" gradientTransform="matrix(-2.000000e-004 -1 1 -2.000000e-004 -1521.5254 -4454.377)">
		<stop  offset="0" style="stop-color:#E86500"/>
		<stop  offset="1" style="stop-color:#FFA81C"/>
	</linearGradient>
	<path fill="url(#SVGID_7_)" d="M245.066,332.539l0.274-0.846c1.739,0,2.796,1.418,2.792,2.867l-1.113,0.158
		c0,0-0.163-0.893-0.661-1.383C245.865,332.844,245.066,332.539,245.066,332.539z"/>
	<path fill="#EBEBEB" d="M248.144,364.838l-1.118-0.16l0.448-4.275l1.436-0.803c0,0-0.153,1.5-0.339,2.801
		C248.38,363.699,248.144,364.838,248.144,364.838z"/>
	
		<linearGradient id="SVGID_8_" gradientUnits="userSpaceOnUse" x1="5150.1318" y1="1766.873" x2="5153.1563" y2="1766.873" gradientTransform="matrix(2.000000e-004 1 1 -2.000000e-004 -1521.2939 -4785.0996)">
		<stop  offset="0" style="stop-color:#E86500"/>
		<stop  offset="1" style="stop-color:#FFA81C"/>
	</linearGradient>
	<path fill="url(#SVGID_8_)" d="M245.074,366.859l0.274,0.844c1.738-0.002,2.795-1.418,2.796-2.865l-1.118-0.16
		c0,0-0.166,0.893-0.663,1.385C245.87,366.557,245.074,366.859,245.074,366.859z"/>
	<g>
		
			<linearGradient id="SVGID_9_" gradientUnits="userSpaceOnUse" x1="-4804.1753" y1="1769.9756" x2="-4804.1753" y2="1767.1533" gradientTransform="matrix(-2.000000e-004 -1 1 -2.000000e-004 -1521.5254 -4454.377)">
			<stop  offset="0" style="stop-color:#C9C9C9"/>
			<stop  offset="1" style="stop-color:#A1A1A1"/>
		</linearGradient>
		<path fill="url(#SVGID_9_)" d="M246.589,342.582c0,0,0.352,3.225,0.353,6.84c0,3.617-0.352,6.889-0.352,6.889l2.516,1.186
			c0,0,0.308-4.297,0.305-8.002c0.003-3.707-0.312-8.1-0.312-8.1L246.589,342.582z"/>
		<polygon fill="#9E9E9E" points="248.698,342.342 248.703,356.553 248.368,356.551 248.37,342.338 		"/>
		<rect x="247.706" y="342.65" fill="#9E9E9E" width="0.332" height="13.592"/>
	</g>
	
		<linearGradient id="SVGID_10_" gradientUnits="userSpaceOnUse" x1="-4804.3452" y1="1739.6338" x2="-4804.3452" y2="1658.417" gradientTransform="matrix(-2.000000e-004 -1 1 -2.000000e-004 -1521.5254 -4454.377)">
		<stop  offset="0" style="stop-color:#E0E0E0"/>
		<stop  offset="1" style="stop-color:#EAEAEA"/>
	</linearGradient>
	<polygon fill="url(#SVGID_10_)" points="137.851,331.713 137.856,367.557 219.072,367.545 219.065,331.699 	"/>
	
		<linearGradient id="SVGID_11_" gradientUnits="userSpaceOnUse" x1="-4804.3442" y1="1738.8359" x2="-4804.3442" y2="1659.2217" gradientTransform="matrix(-2.000000e-004 -1 1 -2.000000e-004 -1521.5254 -4454.377)">
		<stop  offset="0" style="stop-color:#C6C6C6"/>
		<stop  offset="1" style="stop-color:#C6C6C6"/>
	</linearGradient>
	<path fill="url(#SVGID_11_)" d="M138.66,366.652l79.614-0.016l-0.006-34.033l-79.615,0.016L138.66,366.652z M217.268,333.605
		l0.001,32.033l-77.613,0.012l-0.003-32.031L217.268,333.605z"/>
	
		<rect x="202.49" y="348.28" transform="matrix(-1.498898e-004 -1 1 -1.498898e-004 -129.1776 570.0858)" fill="#A1A1A1" width="35.844" height="2.684"/>
	
		<linearGradient id="SVGID_12_" gradientUnits="userSpaceOnUse" x1="-4804.3394" y1="1743.627" x2="-4804.3394" y2="1740.9746" gradientTransform="matrix(-2.000000e-004 -1 1 -2.000000e-004 -1521.5254 -4454.377)">
		<stop  offset="0" style="stop-color:#6E6E6E"/>
		<stop  offset="1" style="stop-color:#6E6E6E"/>
	</linearGradient>
	<polygon fill="url(#SVGID_12_)" points="220.41,339.182 220.412,360.049 223.064,360.047 223.058,339.182 	"/>
	
		<linearGradient id="SVGID_13_" gradientUnits="userSpaceOnUse" x1="-4820.7358" y1="1751.0186" x2="-4820.7358" y2="1745.5117" gradientTransform="matrix(-2.000000e-004 -1 1 -2.000000e-004 -1521.5254 -4454.377)">
		<stop  offset="0" style="stop-color:#434185"/>
		<stop  offset="1" style="stop-color:#38356E"/>
	</linearGradient>
	<rect x="224.95" y="365.117" fill="url(#SVGID_13_)" width="5.506" height="1.785"/>
	
		<linearGradient id="SVGID_14_" gradientUnits="userSpaceOnUse" x1="-4788.2251" y1="1751.0195" x2="-4788.2251" y2="1745.5078" gradientTransform="matrix(-2.000000e-004 -1 1 -2.000000e-004 -1521.5254 -4454.377)">
		<stop  offset="0" style="stop-color:#434185"/>
		<stop  offset="1" style="stop-color:#38356E"/>
	</linearGradient>
	<rect x="224.942" y="332.605" fill="url(#SVGID_14_)" width="5.511" height="1.787"/>
	<polygon fill="#EDEDED" points="232.043,332.037 232.045,332.607 243.873,332.605 240.899,332.037 	"/>
	<polygon fill="#EDEDED" points="232.05,366.9 232.049,367.473 240.905,367.469 243.883,366.9 	"/>
	<polygon fill="#EDEDED" points="225.943,332.037 224.944,332.605 230.451,332.605 230.449,332.039 	"/>
	<polygon fill="#EDEDED" points="224.95,366.902 226.014,367.473 230.455,367.473 230.456,366.902 	"/>
	
		<linearGradient id="SVGID_15_" gradientUnits="userSpaceOnUse" x1="-4788.8975" y1="1765.3936" x2="-4788.8975" y2="1759.1045" gradientTransform="matrix(-2.000000e-004 -1 1 -2.000000e-004 -1521.5254 -4454.377)">
		<stop  offset="0" style="stop-color:#E0E0E0"/>
		<stop  offset="1" style="stop-color:#EAEAEA"/>
	</linearGradient>
	<polygon fill="url(#SVGID_15_)" points="239.525,335.438 244.825,333.031 244.532,332.9 238.537,335.322 	"/>
	
		<linearGradient id="SVGID_16_" gradientUnits="userSpaceOnUse" x1="5131.0098" y1="1765.0928" x2="5131.0098" y2="1758.5586" gradientTransform="matrix(2.000000e-004 1 1 -2.000000e-004 -1521.2891 -4765.5811)">
		<stop  offset="0" style="stop-color:#E0E0E0"/>
		<stop  offset="1" style="stop-color:#EAEAEA"/>
	</linearGradient>
	<polygon fill="url(#SVGID_16_)" points="239.53,363.766 244.83,366.254 244.535,366.385 238.296,364.074 	"/>
	<g>
		
			<linearGradient id="SVGID_17_" gradientUnits="userSpaceOnUse" x1="-4804.1758" y1="1755.1855" x2="-4804.1758" y2="1748.1592" gradientTransform="matrix(-2.000000e-004 -1 1 -2.000000e-004 -1521.5254 -4454.377)">
			<stop  offset="0" style="stop-color:#C6C6C6"/>
			<stop  offset="1" style="stop-color:#B8B8B8"/>
		</linearGradient>
		<path fill="url(#SVGID_17_)" d="M233.855,343.074c0.421,0.002,0.764,0.344,0.764,0.77l0.001,11.213
			c0.001,0.424-0.338,0.768-0.767,0.766l-5.49,0.002c-0.425,0-0.768-0.342-0.766-0.766l-0.004-11.215
			c0.002-0.424,0.342-0.768,0.765-0.766L233.855,343.074z"/>
		
			<linearGradient id="SVGID_18_" gradientUnits="userSpaceOnUse" x1="-4810.2705" y1="1752.2334" x2="-4798.1279" y2="1752.2334" gradientTransform="matrix(-2.000000e-004 -1 1 -2.000000e-004 -1521.5254 -4454.377)">
			<stop  offset="0" style="stop-color:#434185"/>
			<stop  offset="1" style="stop-color:#38356E"/>
		</linearGradient>
		<path fill="url(#SVGID_18_)" d="M233.764,343.4c0.32,0,0.582,0.266,0.581,0.59l0.006,10.969c-0.003,0.322-0.261,0.582-0.584,0.584
			l-4.191-0.002c-0.321,0.004-0.586-0.258-0.584-0.582l0.003-10.973c-0.004-0.318,0.259-0.582,0.583-0.582L233.764,343.4z"/>
		
			<linearGradient id="SVGID_19_" gradientUnits="userSpaceOnUse" x1="-4804.1982" y1="1753.7139" x2="-4804.1982" y2="1748.3555" gradientTransform="matrix(-2.000000e-004 -1 1 -2.000000e-004 -1521.5254 -4454.377)">
			<stop  offset="0" style="stop-color:#E0E0E0"/>
			<stop  offset="1" style="stop-color:#EAEAEA"/>
		</linearGradient>
		<path fill="url(#SVGID_19_)" d="M232.563,343.404c0.32-0.002,0.583,0.26,0.584,0.582l0.002,10.973
			c-0.003,0.322-0.268,0.582-0.588,0.582h-4.186c-0.324,0.004-0.586-0.258-0.584-0.582l-0.002-10.973
			c-0.002-0.318,0.262-0.584,0.582-0.584L232.563,343.404z"/>
		<path opacity="0.2" fill="#040205" d="M227.594,343.844l0.004,11.215c-0.002,0.424,0.341,0.766,0.766,0.766l0.787,0.002
			c-0.43,0-0.77-0.344-0.768-0.768l-0.002-11.215c0-0.42,0.338-0.766,0.77-0.77l-0.792,0.004
			C227.936,343.076,227.596,343.42,227.594,343.844z"/>
	</g>
	
		<rect x="201.473" y="349.295" transform="matrix(-2.588471e-004 -1 1 -2.588471e-004 -130.171 569.1068)" fill="#FFFFFF" width="35.842" height="0.653"/>
	<polygon fill="#FFFFFF" points="178.466,367.195 137.856,367.557 219.726,367.541 219.726,367.188 	"/>
	<polygon fill="#FFFFFF" points="178.461,332.047 137.849,331.699 219.719,331.686 219.718,332.041 	"/>
	<g>
		
			<linearGradient id="SVGID_20_" gradientUnits="userSpaceOnUse" x1="6007.8438" y1="1765.1172" x2="6007.8438" y2="1762.8145" gradientTransform="matrix(2.000000e-004 1 1 -2.000000e-004 -1521.4482 -5639.9258)">
			<stop  offset="0" style="stop-color:#B8B8B8"/>
			<stop  offset="1" style="stop-color:#C6C6C6"/>
		</linearGradient>
		<path fill="url(#SVGID_20_)" d="M244.87,366.379c0,0-0.483,2.205-0.624,2.689c-0.139,0.48-0.491,0.434-0.882,0.432
			c-0.4,0.002-0.793,0.107-0.796-0.428c0.002-0.543,0-2.697,0-2.697l0.591-0.756L244.87,366.379z"/>
		<polygon fill="#EBEBEB" points="243.159,365.619 242.892,368.52 243.64,365.832 		"/>
	</g>
	<g>
		
			<linearGradient id="SVGID_21_" gradientUnits="userSpaceOnUse" x1="-3982.7402" y1="1765.4443" x2="-3982.7402" y2="1763.1406" gradientTransform="matrix(-2.000000e-004 -1 1 -2.000000e-004 -1521.377 -3650.6113)">
			<stop  offset="0" style="stop-color:#B8B8B8"/>
			<stop  offset="1" style="stop-color:#C6C6C6"/>
		</linearGradient>
		<path fill="url(#SVGID_21_)" d="M244.864,332.965c0,0-0.485-2.213-0.628-2.691c-0.137-0.48-0.491-0.432-0.884-0.434
			c-0.394-0.002-0.793-0.104-0.79,0.432c0,0.537-0.001,2.697-0.001,2.697l0.591,0.754L244.864,332.965z"/>
		
			<linearGradient id="SVGID_22_" gradientUnits="userSpaceOnUse" x1="-3983.2358" y1="1764.2129" x2="-3983.2358" y2="1763.4678" gradientTransform="matrix(-2.000000e-004 -1 1 -2.000000e-004 -1521.377 -3650.6113)">
			<stop  offset="0" style="stop-color:#E0E0E0"/>
			<stop  offset="1" style="stop-color:#EAEAEA"/>
		</linearGradient>
		<polygon fill="url(#SVGID_22_)" points="243.151,333.723 242.887,330.822 243.632,333.512 		"/>
	</g>
</g>
<ellipse opacity="0.8" fill="#3D7591" cx="178.931" cy="264.852" rx="55.822" ry="8.824"/>
<ellipse opacity="0.8" fill="#276482" cx="178.931" cy="262.773" rx="22.927" ry="3.967"/>
<g>
	<path fill="#ED4624" stroke="#000000" stroke-width="6" stroke-miterlimit="10" d="M168.633,253.231
		c-8.754-8.754-93.056-93.055-93.056-93.055c-32.414-32.414-32.414-84.966,0-117.38c28.48-28.481,72.509-31.936,104.763-10.368
		c32.255-21.568,76.283-18.111,104.763,10.368c32.413,32.414,32.413,84.967-0.001,117.38l-92.985,92.984
		C192.116,253.161,181.441,268.15,168.633,253.231z"/>
</g>
<g>
	<path fill="#ED4624" stroke="#000000" stroke-width="4" stroke-miterlimit="10" d="M269.277,47.556
		c-1.008-1.93-10.716-20.519-10.716-20.519c-3.733-7.147-0.964-15.968,6.183-19.7c6.28-3.28,13.851-1.541,18.128,3.778
		c6.549-1.92,13.756,0.979,17.036,7.259c3.732,7.147,0.964,15.967-6.183,19.7l-20.504,10.707
		C273.221,48.781,270.64,50.735,269.277,47.556z"/>
</g>
<g>
	<path fill="#ED4624" stroke="#000000" stroke-width="3" stroke-miterlimit="10" d="M309.52,21.309
		c0.26-1.168,2.764-12.426,2.764-12.426c0.963-4.328,5.253-7.057,9.581-6.093c3.803,0.846,6.371,4.26,6.285,8.012
		c3.435,1.513,5.438,5.287,4.592,9.09c-0.963,4.328-5.252,7.057-9.582,6.094l-12.417-2.763
		C310.744,23.222,308.966,23.129,309.52,21.309z"/>
</g>
<g>
	<g>
		<g>
			<g>
				<path fill="#10489B" d="M184.366,146.241c0,0,3.72-15.917,20.229-21.076c0,0,15.086,14.919,27.212,14.919
					c12.125,0,25.53-10.401,27.084-14.919c1.554-4.518,17.078,8.01,19.689,18.966l1.943,16.172c0,0-40.232,40.215-68.059,68.263
					c-28.542,0-24.641-48.685-28.099-51.595C180.91,174.062,184.366,146.241,184.366,146.241z"/>
				<path fill="none" stroke="#000000" stroke-width="3" stroke-linejoin="round" stroke-miterlimit="10" d="M280.524,164.754
					v-9.204c0-18.486-14.547-33.475-32.494-33.475h-32.446c-17.947,0-32.494,14.989-32.494,33.475v26.709"/>
				<path fill="#FED10C" stroke="#000000" stroke-width="2" stroke-linejoin="round" stroke-miterlimit="10" d="M201.409,113.869
					h-2.597c-3.091,0-5.598-2.508-5.598-5.6v-7.612c0-3.091,2.228-5.6,5.319-5.6h2.215"/>
				<path fill="#FED10C" stroke="#000000" stroke-width="2" stroke-linejoin="round" stroke-miterlimit="10" d="M263.329,113.869
					h2.598c3.09,0,5.598-2.508,5.598-5.6v-7.612c0-3.091-2.229-5.6-5.32-5.6h-2.214"/>
				
					<line fill="none" stroke="#000000" stroke-width="2" stroke-linecap="round" stroke-miterlimit="10" x1="202.224" y1="163.219" x2="202.224" y2="193.796"/>
				
					<line fill="none" stroke="#000000" stroke-width="2" stroke-linecap="round" stroke-miterlimit="10" x1="261.392" y1="163.219" x2="261.392" y2="182.002"/>
				<path fill="#FED10C" stroke="#000000" stroke-width="3" stroke-linejoin="round" stroke-miterlimit="10" d="M262.379,110.016
					c0,16.611-13.465,30.077-30.079,30.077l0,0c-16.611,0-30.076-13.465-30.076-30.077V93.005c0-16.614,13.465-30.079,30.076-30.079
					l0,0c16.613,0,30.079,13.465,30.079,30.079V110.016z"/>
				<circle cx="219.608" cy="102.577" r="3.908"/>
				<circle cx="245.52" cy="102.577" r="3.908"/>
				<g>
					<path d="M220.519,93.25c-14.096,0-18.314-8.16-18.536-8.613l3.05-3.19l3.151-4.929l1.677,4.077
						c0.044,0.077,5.223,10.045,24.884,3.987c17.776-5.475,25.571,3.547,26.243,4.793l0.36,5.683
						c0.002,0.002-4.156-4.544-4.156-4.544c-0.027,0-4.16-5.336-20.296-0.167C230.344,92.445,224.945,93.25,220.519,93.25z"/>
				</g>
			</g>
			<path fill="none" stroke="#000000" stroke-width="3" stroke-linecap="round" stroke-miterlimit="10" d="M244.438,118.15
				c0,6.703-5.434,12.137-12.137,12.137c-6.704,0-12.137-5.434-12.137-12.137"/>
		</g>
		<path d="M209.858,72.987c0,0-2.306,13.645,23.507,11.999l14.488,0.138l7.458,1.807l5.679,2.444l2.881,4.986l1.384-6.325
			c0,0,0.277-22.599-14.087-25.11c0,0-1.587-6.931-13.638-6.931s-34.949,1.933-38.001,28.174c-0.593,5.751,2.695,8.836,2.695,8.836
			l1.158-11.598l4.972,2.762l-1.933-6.077L209.858,72.987z"/>
		<path fill="#FED10C" d="M212.196,72.134c0,0,1.898,9.219,11.32,9.731c0,0-8.759-4.866-9.399-11.011L212.196,72.134z"/>
	</g>
	<g>
		<polygon fill="#FED10C" points="249.429,158.19 246.152,159.913 246.778,156.265 244.127,153.682 247.791,153.148 
			249.429,149.829 251.067,153.148 254.73,153.682 252.079,156.265 252.705,159.913 		"/>
		<path fill="#020202" d="M249.429,150.959l1.306,2.646l2.921,0.425l-2.114,2.06l0.499,2.909l-2.612-1.373l-2.612,1.373l0.499-2.909
			l-2.114-2.06l2.921-0.425L249.429,150.959 M249.429,148.699l-0.896,1.817l-1.074,2.175l-2.401,0.35l-2.005,0.291l1.452,1.414
			l1.737,1.693l-0.41,2.391l-0.343,1.997l1.793-0.943l2.147-1.128l2.147,1.128l1.793,0.943l-0.343-1.997l-0.41-2.391l1.737-1.693
			l1.452-1.414l-2.005-0.291l-2.401-0.35l-1.074-2.175L249.429,148.699L249.429,148.699z"/>
	</g>
</g>
<g>
	<polygon fill="#FED10C" points="191.521,224.38 189.246,225.576 189.681,223.042 187.839,221.247 190.384,220.878 191.521,218.572 
		192.659,220.878 195.204,221.247 193.362,223.042 193.797,225.576 	"/>
	<path fill="#020202" d="M191.521,219.702l0.806,1.633l1.802,0.262l-1.304,1.271l0.308,1.795l-1.612-0.847l-1.611,0.847l0.308-1.795
		l-1.304-1.271l1.802-0.262L191.521,219.702 M191.521,217.442l-0.897,1.817l-0.573,1.161l-1.282,0.187l-2.006,0.291l1.452,1.414
		l0.928,0.904l-0.219,1.276l-0.342,1.996l1.793-0.942l1.146-0.602l1.147,0.603l1.793,0.941l-0.342-1.996l-0.219-1.276l0.927-0.904
		l1.452-1.414l-2.006-0.291l-1.282-0.187l-0.573-1.161L191.521,217.442L191.521,217.442z"/>
</g>
<g>
	<polygon fill="#FED10C" points="189.412,226.999 187.232,224.875 190.244,224.437 191.59,221.708 192.938,224.437 195.949,224.875 
		193.77,226.999 194.284,229.998 191.59,228.582 188.897,229.998 	"/>
	<path fill="#020202" d="M191.59,222.838l1.015,2.056l2.269,0.33l-1.642,1.601l0.388,2.26l-2.03-1.066l-2.029,1.066l0.388-2.26
		l-1.642-1.601l2.269-0.33L191.59,222.838 M191.59,220.579l-0.897,1.816l-0.782,1.584l-1.749,0.255l-2.005,0.291l1.451,1.414
		l1.266,1.234l-0.299,1.741l-0.342,1.997l1.793-0.943l1.564-0.821l1.565,0.821l1.793,0.942l-0.343-1.996l-0.298-1.741l1.265-1.234
		l1.451-1.414l-2.005-0.291l-1.749-0.255l-0.783-1.584L191.59,220.579L191.59,220.579z"/>
</g>
<path fill-rule="evenodd" clip-rule="evenodd" d="M161.166,184.334c0,0-14.651,9.145-32.725,9.145l0,0
	c-18.073,0-32.724-9.145-32.724-9.145v-79.658c1.879-18.794,8.917-34.299,32.724-34.299l0,0c24.412,0,31.154,15.504,32.725,34.299
	V184.334z"/>
<g>
	<g>
		<g>
			<g>
				<path fill="#10489B" d="M172.629,153.32c0,0-3.36-14.379-18.274-19.039c0,0-13.628,13.477-24.582,13.477
					c-10.953,0-23.063-9.395-24.466-13.477s-15.427,7.236-17.786,17.133l-1.755,14.609c0,0,36.343,36.326,61.48,61.664
					c25.783,0,22.259-43.979,25.383-46.607C175.751,178.451,172.629,153.32,172.629,153.32z"/>
				<path fill="none" stroke="#000000" stroke-width="3" stroke-linejoin="round" stroke-miterlimit="10" d="M85.766,170.043v-8.314
					c0-16.699,13.141-30.24,29.353-30.24h29.31c16.212,0,29.353,13.541,29.353,30.24v24.127"/>
				<path fill="#FED10C" stroke="#000000" stroke-width="2" stroke-linejoin="round" stroke-miterlimit="10" d="M156.497,124.076
					h2.346c2.792,0,5.057-2.266,5.057-5.059v-6.876c0-2.792-2.013-5.058-4.806-5.058h-2"/>
				<path fill="#FED10C" stroke="#000000" stroke-width="2" stroke-linejoin="round" stroke-miterlimit="10" d="M102.101,124.076
					h-2.347c-2.792,0-5.057-2.266-5.057-5.059v-6.876c0-2.792,2.014-5.058,4.806-5.058h2"/>
				
					<line fill="none" stroke="#000000" stroke-width="2" stroke-linecap="round" stroke-miterlimit="10" x1="156.497" y1="168.656" x2="156.497" y2="196.277"/>
				
					<line fill="none" stroke="#000000" stroke-width="2" stroke-linecap="round" stroke-miterlimit="10" x1="103.049" y1="168.656" x2="103.049" y2="185.623"/>
				<path fill="#FED10C" stroke="#000000" stroke-width="3" stroke-linejoin="round" stroke-miterlimit="10" d="M103.106,120.596
					c0,15.006,11.575,27.17,25.856,27.17l0,0c14.279,0,25.854-12.164,25.854-27.17v-15.367c0-15.008-11.575-27.171-25.854-27.171
					l0,0c-14.281,0-25.856,12.163-25.856,27.171V120.596z"/>
				<circle cx="140.794" cy="119.108" r="3.531"/>
				<circle cx="117.386" cy="119.108" r="3.531"/>
			</g>
		</g>
	</g>
	<g>
		<polygon fill="#FED10C" points="150.32,164.168 147.296,165.758 147.874,162.392 145.427,160.006 148.808,159.516 150.32,156.452 
			151.832,159.516 155.213,160.006 152.767,162.392 153.344,165.758 		"/>
		<path fill="#020202" d="M150.32,157.582l1.18,2.391l2.639,0.383l-1.909,1.861l0.451,2.627l-2.36-1.24l-2.36,1.24l0.451-2.627
			l-1.909-1.861l2.638-0.383L150.32,157.582 M150.32,155.322l-0.896,1.817l-0.948,1.919l-2.118,0.308l-2.005,0.291l1.451,1.414
			l1.533,1.494l-0.362,2.109l-0.342,1.997l1.793-0.943l1.895-0.995l1.895,0.995l1.793,0.943l-0.342-1.997l-0.362-2.109l1.533-1.494
			l1.451-1.414l-2.005-0.291l-2.118-0.308l-0.947-1.919L150.32,155.322L150.32,155.322z"/>
	</g>
</g>
<path fill-rule="evenodd" clip-rule="evenodd" d="M107.89,100.383v5.329l4.998,0.423v-2.877l1.227,2.877l9.147,0.945v-6.132
	c0,0,0.61,1.128,1.776,6.132c0,0,18.689,0.188,26.893-2.077l3.785-1.603l-1.792-12.733c0,0-3.785-9.241-11.989-12.636
	c-8.205-3.394-21.367-2.072-28.48,1.98c-10.178,5.802-9.983,20.372-10.361,24.332c-0.06,0.634,0.099,1.583,0.23,1.933
	c1.437-0.639,3.426-0.621,3.426-0.621L107.89,100.383z"/>
<rect x="98.398" y="97.885" fill-rule="evenodd" clip-rule="evenodd" width="3.358" height="38.842"/>
<rect x="156.039" y="97.885" fill-rule="evenodd" clip-rule="evenodd" width="3.358" height="37.207"/>
<g>
	<g>
		<path fill="#AAAAAA" d="M149.225,208.149c0,0,2.444-10.467,13.303-13.859c0,0,9.921,9.812,17.897,9.812
			c7.976,0,16.792-6.839,17.815-9.812c1.021-2.973,11.232,5.267,12.949,12.476l1.276,17.863v4.19c0,0-12.848,19.775-31.62,19.775
			c-18.773,0-29.115-16.875-31.387-18.786C147.185,227.894,149.225,208.149,149.225,208.149z"/>
		<path fill="none" stroke="#000000" stroke-width="3" stroke-linejoin="round" stroke-miterlimit="10" d="M212.465,232.825v-18.553
			c0-12.16-9.566-22.016-21.37-22.016h-21.34c-11.804,0-21.372,9.855-21.372,22.016v17.569"/>
		<path fill="#FED10C" stroke="#000000" stroke-width="2" stroke-linejoin="round" stroke-miterlimit="10" d="M160.166,186.859
			h-1.708c-2.033,0-3.682-1.649-3.682-3.684v-5.008c0-2.03,1.465-3.681,3.498-3.681h1.457"/>
		<path fill="#FED10C" stroke="#000000" stroke-width="2" stroke-linejoin="round" stroke-miterlimit="10" d="M201.349,186.859
			h1.708c2.033,0,3.682-1.649,3.682-3.684v-5.008c0-2.03-1.465-3.681-3.499-3.681h-1.457"/>
		<path fill="#FED10C" stroke="#000000" stroke-width="3" stroke-linejoin="round" stroke-miterlimit="10" d="M200.533,184.325
			c0,10.926-8.856,19.783-19.783,19.783l0,0c-10.926,0-19.781-8.857-19.781-19.783v-11.188c0-10.928,8.855-19.784,19.781-19.784l0,0
			c10.927,0,19.783,8.856,19.783,19.784V184.325z"/>
		<path d="M174.973,179.435c0,1.418-1.151,2.567-2.571,2.567c-1.419,0-2.571-1.149-2.571-2.567c0-1.423,1.152-2.572,2.571-2.572
			C173.822,176.862,174.973,178.012,174.973,179.435z"/>
		<path d="M192.015,179.435c0,1.418-1.15,2.567-2.57,2.567c-1.42,0-2.57-1.149-2.57-2.567c0-1.423,1.15-2.572,2.57-2.572
			C190.865,176.862,192.015,178.012,192.015,179.435z"/>
	</g>
	<path fill="#10489B" d="M164.339,198.254l6.503,5.188l1.559,11.551c0,0-0.904,2.943,2.571,2.943c3.472,0,11.24,0,11.24,0
		s2.984-0.434,2.984-2.983s0.75-11.535,0.75-11.535l3.271-1.89l3.027-2.492v17.765l3.637,5.906v19.012l-11.747,11.447
		c0,0-3.188,3.687-8,3.687c-3.656,0-7.052-3.339-7.052-3.339l-11.562-11.473v-23.526l2.816-3.761V198.254z"/>
	<path fill="none" stroke="#000000" stroke-width="2" stroke-linecap="round" stroke-linejoin="round" stroke-miterlimit="10" d="
		M189.276,202.185v12.845c0,1.923-1.56,3.485-3.484,3.485h-10.905c-1.924,0-3.482-1.563-3.482-3.485v-13.265"/>
	
		<polyline fill="none" stroke="#000000" stroke-width="2" stroke-linecap="round" stroke-linejoin="round" stroke-miterlimit="10" points="
		199.883,242.981 199.883,223.286 196.941,218.319 196.941,197.022 	"/>
	
		<polyline fill="none" stroke="#000000" stroke-width="2" stroke-linecap="round" stroke-linejoin="round" stroke-miterlimit="10" points="
		163.91,195.978 163.91,213.744 160.969,218.708 160.969,243.765 	"/>
	<path fill="none" stroke="#000000" stroke-width="3" stroke-linejoin="round" stroke-miterlimit="10" d="M165.701,160.304
		c3.795,6.244,13.22,17.382,34.832,16.557"/>
</g>
<path fill="none" stroke="#000000" stroke-width="3" stroke-linecap="round" stroke-miterlimit="10" d="M137.172,137.694
	c-1.689,1.403-4.377,2.311-7.404,2.311c-2.884,0-5.46-0.824-7.158-2.115"/>
</svg>
